<svg xmlns="http://www.w3.org/2000/svg" viewBox="0 0 1200 359" role="img" aria-labelledby="title desc"><title id="title">Class Diagram of work_order_status_history</title><desc id="desc">Generated diagram of focal class work_order_status_history and related classes.</desc><g><!-- Focal work_order_status_history -->
<a xlink:href="./work_order_status_history.html" target="_top" xmlns:xlink="http://www.w3.org/1999/xlink"><rect x="525" y="5" width="225" height="352" fill="white" stroke="black" stroke-width="2"><title>This subcomponent is used to record how the status of the Work Order changed over time</title></rect></a><text x="637" y="18" text-anchor="middle" font-family="sans-serif" font-size="12" fill="black"><tspan x="637" y="18">work_order_status_history</tspan></text>
<line x1="525" y1="31" x2="750" y2="31" stroke="black" stroke-width="1" /><text font-family="sans-serif" font-size="12" fill="black" text-anchor="start"><tspan x="532" y="44" text-anchor="start">comments : string</tspan><tspan x="743" y="44" text-anchor="end">[0..1]</tspan><tspan x="532" y="60" text-anchor="start">created_date_time :</tspan><tspan x="743" y="60" text-anchor="end">[0..1]</tspan><tspan x="532" y="76" text-anchor="start">string</tspan><tspan x="532" y="92" text-anchor="start">entered_date_time :</tspan><tspan x="743" y="92" text-anchor="end">[0..1]</tspan><tspan x="532" y="108" text-anchor="start">string</tspan><tspan x="532" y="124" text-anchor="start">exited_date_time :</tspan><tspan x="743" y="124" text-anchor="end">[0..1]</tspan><tspan x="532" y="140" text-anchor="start">string</tspan><tspan x="532" y="156" text-anchor="start">reason : string</tspan><tspan x="743" y="156" text-anchor="end">[0..1]</tspan><tspan x="532" y="172" text-anchor="start">reason_code :</tspan><tspan x="743" y="172" text-anchor="end">[0..1]</tspan><tspan x="532" y="188" text-anchor="start">string</tspan><tspan x="532" y="204" text-anchor="start">status_code :</tspan><tspan x="743" y="204" text-anchor="end">[0..1]</tspan><tspan x="532" y="220" text-anchor="start">string</tspan><tspan x="532" y="236" text-anchor="start">updated_by : string</tspan><tspan x="743" y="236" text-anchor="end">[0..1]</tspan><tspan x="532" y="252" text-anchor="start">work_order_id :</tspan><tspan x="743" y="252" text-anchor="end">[0..1]</tspan><tspan x="532" y="268" text-anchor="start">integer</tspan><tspan x="532" y="284" text-anchor="start">work_order_status_history_id</tspan><tspan x="743" y="284" text-anchor="end">[0..1]</tspan><tspan x="532" y="300" text-anchor="start">: string</tspan></text></g>
</svg>