<svg xmlns="http://www.w3.org/2000/svg" viewBox="0 0 1200 519" role="img" aria-labelledby="title desc"><title id="title">Class Diagram of investigation Item</title><desc id="desc">Generated diagram of focal class investigation Item and related classes.</desc><g><!-- Association investigation investigation Module Data Model -->
<line x1="155" y1="42" x2="525" y2="42" stroke="black" stroke-width="2" /><text x="503" y="38" text-anchor="end" font-family="sans-serif" font-size="12" fill="black"><tspan x="503" y="38">0</tspan></text>
<text x="340" y="58" text-anchor="middle" font-family="sans-serif" font-size="12" fill="black"><tspan x="340" y="58">investigation</tspan></text>
</g>
<g><!-- investigation Module Data Model -->
<a xlink:href="./investigation-Module-Data-Model.html" target="_top" xmlns:xlink="http://www.w3.org/1999/xlink"><rect x="5" y="5" width="150" height="75" fill="whitesmoke" stroke="black" stroke-width="2"><title></title></rect></a><text x="80" y="18" text-anchor="middle" font-family="sans-serif" font-size="12" fill="black"><tspan x="80" y="18">investigation</tspan><tspan x="80" y="34">Module Data Model</tspan></text>
</g>
<g><!-- Focal investigation Item -->
<a xlink:href="./investigation-Item.html" target="_top" xmlns:xlink="http://www.w3.org/1999/xlink"><rect x="525" y="5" width="225" height="512" fill="white" stroke="black" stroke-width="2"><title>Table storing investigation details.</title></rect></a><text x="637" y="18" text-anchor="middle" font-family="sans-serif" font-size="12" fill="black"><tspan x="637" y="18">investigation Item</tspan></text>
<line x1="525" y1="31" x2="750" y2="31" stroke="black" stroke-width="1" /><text font-family="sans-serif" font-size="12" fill="black" text-anchor="start"><tspan x="532" y="44" text-anchor="start">hazard_confirmed :</tspan><tspan x="743" y="44" text-anchor="end">[0..1]</tspan><tspan x="532" y="60" text-anchor="start">boolean</tspan><tspan x="532" y="76" text-anchor="start">hazard_report_id :</tspan><tspan x="743" y="76" text-anchor="end">[0..1]</tspan><tspan x="532" y="92" text-anchor="start">integer</tspan><tspan x="532" y="108" text-anchor="start">inspector_name :</tspan><tspan x="743" y="108" text-anchor="end">[0..1]</tspan><tspan x="532" y="124" text-anchor="start">string</tspan><tspan x="532" y="140" text-anchor="start">investigation_completed_date</tspan><tspan x="743" y="140" text-anchor="end">[0..1]</tspan><tspan x="532" y="156" text-anchor="start">: string</tspan><tspan x="532" y="172" text-anchor="start">investigation_id :</tspan><tspan x="743" y="172" text-anchor="end">[0..1]</tspan><tspan x="532" y="188" text-anchor="start">integer</tspan><tspan x="532" y="204" text-anchor="start">investigation_notes</tspan><tspan x="743" y="204" text-anchor="end">[0..1]</tspan><tspan x="532" y="220" text-anchor="start">: string</tspan><tspan x="532" y="236" text-anchor="start">investigation_reference</tspan><tspan x="743" y="236" text-anchor="end">[0..1]</tspan><tspan x="532" y="252" text-anchor="start">: string</tspan><tspan x="532" y="268" text-anchor="start">investigation_scheduled_date</tspan><tspan x="743" y="268" text-anchor="end">[0..1]</tspan><tspan x="532" y="284" text-anchor="start">: string</tspan><tspan x="532" y="300" text-anchor="start">investigation_type_id</tspan><tspan x="743" y="300" text-anchor="end">[0..1]</tspan><tspan x="532" y="316" text-anchor="start">: integer</tspan><tspan x="532" y="332" text-anchor="start">notification_sent_to_tenant</tspan><tspan x="743" y="332" text-anchor="end">[0..1]</tspan><tspan x="532" y="348" text-anchor="start">: boolean</tspan><tspan x="532" y="364" text-anchor="start">sla_breach_flag :</tspan><tspan x="743" y="364" text-anchor="end">[0..1]</tspan><tspan x="532" y="380" text-anchor="start">boolean</tspan><tspan x="532" y="396" text-anchor="start">tenancy_id :</tspan><tspan x="743" y="396" text-anchor="end">[0..1]</tspan><tspan x="532" y="412" text-anchor="start">integer</tspan><tspan x="532" y="428" text-anchor="start">trigger_source_id :</tspan><tspan x="743" y="428" text-anchor="end">[0..1]</tspan><tspan x="532" y="444" text-anchor="start">integer</tspan><tspan x="532" y="460" text-anchor="start">uprn : string</tspan><tspan x="743" y="460" text-anchor="end">[0..1]</tspan></text></g>
</svg>