<svg xmlns="http://www.w3.org/2000/svg" viewBox="0 0 1200 535" role="img" aria-labelledby="title desc"><title id="title">Class Diagram of escalation Item</title><desc id="desc">Generated diagram of focal class escalation Item and related classes.</desc><g><!-- Association escalation investigation Module Data Model -->
<line x1="155" y1="42" x2="525" y2="42" stroke="black" stroke-width="2" /><text x="503" y="38" text-anchor="end" font-family="sans-serif" font-size="12" fill="black"><tspan x="503" y="38">0</tspan></text>
<text x="340" y="58" text-anchor="middle" font-family="sans-serif" font-size="12" fill="black"><tspan x="340" y="58">escalation</tspan></text>
</g>
<g><!-- investigation Module Data Model -->
<a xlink:href="./investigation-Module-Data-Model.html" target="_top" xmlns:xlink="http://www.w3.org/1999/xlink"><rect x="5" y="5" width="150" height="75" fill="whitesmoke" stroke="black" stroke-width="2"><title></title></rect></a><text x="80" y="18" text-anchor="middle" font-family="sans-serif" font-size="12" fill="black"><tspan x="80" y="18">investigation</tspan><tspan x="80" y="34">Module Data Model</tspan></text>
</g>
<g><!-- Focal escalation Item -->
<a xlink:href="./escalation-Item.html" target="_top" xmlns:xlink="http://www.w3.org/1999/xlink"><rect x="525" y="5" width="225" height="528" fill="white" stroke="black" stroke-width="2"><title>Table storing escalation actions and tracking.</title></rect></a><text x="637" y="18" text-anchor="middle" font-family="sans-serif" font-size="12" fill="black"><tspan x="637" y="18">escalation Item</tspan></text>
<line x1="525" y1="31" x2="750" y2="31" stroke="black" stroke-width="1" /><text font-family="sans-serif" font-size="12" fill="black" text-anchor="start"><tspan x="532" y="44" text-anchor="start">action_taken :</tspan><tspan x="743" y="44" text-anchor="end">[0..1]</tspan><tspan x="532" y="60" text-anchor="start">string</tspan><tspan x="532" y="76" text-anchor="start">alternative_accommodation_details</tspan><tspan x="743" y="76" text-anchor="end">[0..1]</tspan><tspan x="532" y="92" text-anchor="start">: string</tspan><tspan x="532" y="108" text-anchor="start">compensation_amount</tspan><tspan x="743" y="108" text-anchor="end">[0..1]</tspan><tspan x="532" y="124" text-anchor="start">: number</tspan><tspan x="532" y="140" text-anchor="start">escalated_to :</tspan><tspan x="743" y="140" text-anchor="end">[0..1]</tspan><tspan x="532" y="156" text-anchor="start">string</tspan><tspan x="532" y="172" text-anchor="start">escalation_end_date</tspan><tspan x="743" y="172" text-anchor="end">[0..1]</tspan><tspan x="532" y="188" text-anchor="start">: string</tspan><tspan x="532" y="204" text-anchor="start">escalation_id :</tspan><tspan x="743" y="204" text-anchor="end">[0..1]</tspan><tspan x="532" y="220" text-anchor="start">integer</tspan><tspan x="532" y="236" text-anchor="start">escalation_notes :</tspan><tspan x="743" y="236" text-anchor="end">[0..1]</tspan><tspan x="532" y="252" text-anchor="start">string</tspan><tspan x="532" y="268" text-anchor="start">escalation_reason :</tspan><tspan x="743" y="268" text-anchor="end">[0..1]</tspan><tspan x="532" y="284" text-anchor="start">string</tspan><tspan x="532" y="300" text-anchor="start">escalation_reference</tspan><tspan x="743" y="300" text-anchor="end">[0..1]</tspan><tspan x="532" y="316" text-anchor="start">: string</tspan><tspan x="532" y="332" text-anchor="start">escalation_stage_id</tspan><tspan x="743" y="332" text-anchor="end">[0..1]</tspan><tspan x="532" y="348" text-anchor="start">: integer</tspan><tspan x="532" y="364" text-anchor="start">escalation_start_date</tspan><tspan x="743" y="364" text-anchor="end">[0..1]</tspan><tspan x="532" y="380" text-anchor="start">: string</tspan><tspan x="532" y="396" text-anchor="start">escalation_type_id</tspan><tspan x="743" y="396" text-anchor="end">[0..1]</tspan><tspan x="532" y="412" text-anchor="start">: integer</tspan><tspan x="532" y="428" text-anchor="start">investigation_id :</tspan><tspan x="743" y="428" text-anchor="end">[0..1]</tspan><tspan x="532" y="444" text-anchor="start">integer</tspan><tspan x="532" y="460" text-anchor="start">tenant_acceptance :</tspan><tspan x="743" y="460" text-anchor="end">[0..1]</tspan><tspan x="532" y="476" text-anchor="start">boolean</tspan></text></g>
</svg>