<svg xmlns="http://www.w3.org/2000/svg" viewBox="0 0 1200 359" role="img" aria-labelledby="title desc"><title id="title">Class Diagram of notification Item</title><desc id="desc">Generated diagram of focal class notification Item and related classes.</desc><g><!-- Association notification investigation Module Data Model -->
<line x1="155" y1="42" x2="525" y2="42" stroke="black" stroke-width="2" /><text x="503" y="38" text-anchor="end" font-family="sans-serif" font-size="12" fill="black"><tspan x="503" y="38">0</tspan></text>
<text x="340" y="58" text-anchor="middle" font-family="sans-serif" font-size="12" fill="black"><tspan x="340" y="58">notification</tspan></text>
</g>
<g><!-- investigation Module Data Model -->
<a xlink:href="./investigation-Module-Data-Model.html" target="_top" xmlns:xlink="http://www.w3.org/1999/xlink"><rect x="5" y="5" width="150" height="75" fill="whitesmoke" stroke="black" stroke-width="2"><title></title></rect></a><text x="80" y="18" text-anchor="middle" font-family="sans-serif" font-size="12" fill="black"><tspan x="80" y="18">investigation</tspan><tspan x="80" y="34">Module Data Model</tspan></text>
</g>
<g><!-- Focal notification Item -->
<a xlink:href="./notification-Item.html" target="_top" xmlns:xlink="http://www.w3.org/1999/xlink"><rect x="525" y="5" width="225" height="352" fill="white" stroke="black" stroke-width="2"><title>Table storing notifications related to investigations.</title></rect></a><text x="637" y="18" text-anchor="middle" font-family="sans-serif" font-size="12" fill="black"><tspan x="637" y="18">notification Item</tspan></text>
<line x1="525" y1="31" x2="750" y2="31" stroke="black" stroke-width="1" /><text font-family="sans-serif" font-size="12" fill="black" text-anchor="start"><tspan x="532" y="44" text-anchor="start">content_summary :</tspan><tspan x="743" y="44" text-anchor="end">[0..1]</tspan><tspan x="532" y="60" text-anchor="start">string</tspan><tspan x="532" y="76" text-anchor="start">date_sent : string</tspan><tspan x="743" y="76" text-anchor="end">[0..1]</tspan><tspan x="532" y="92" text-anchor="start">escalation_id :</tspan><tspan x="743" y="92" text-anchor="end">[0..1]</tspan><tspan x="532" y="108" text-anchor="start">integer</tspan><tspan x="532" y="124" text-anchor="start">investigation_id :</tspan><tspan x="743" y="124" text-anchor="end">[0..1]</tspan><tspan x="532" y="140" text-anchor="start">integer</tspan><tspan x="532" y="156" text-anchor="start">notification_id :</tspan><tspan x="743" y="156" text-anchor="end">[0..1]</tspan><tspan x="532" y="172" text-anchor="start">integer</tspan><tspan x="532" y="188" text-anchor="start">notification_method_id</tspan><tspan x="743" y="188" text-anchor="end">[0..1]</tspan><tspan x="532" y="204" text-anchor="start">: integer</tspan><tspan x="532" y="220" text-anchor="start">notification_type_id</tspan><tspan x="743" y="220" text-anchor="end">[0..1]</tspan><tspan x="532" y="236" text-anchor="start">: integer</tspan><tspan x="532" y="252" text-anchor="start">tenancy_id :</tspan><tspan x="743" y="252" text-anchor="end">[0..1]</tspan><tspan x="532" y="268" text-anchor="start">integer</tspan><tspan x="532" y="284" text-anchor="start">work_order_id :</tspan><tspan x="743" y="284" text-anchor="end">[0..1]</tspan><tspan x="532" y="300" text-anchor="start">integer</tspan></text></g>
</svg>