<svg xmlns="http://www.w3.org/2000/svg" viewBox="0 0 1200 839" role="img" aria-labelledby="title desc"><title id="title">Class Diagram of work_order Item</title><desc id="desc">Generated diagram of focal class work_order Item and related classes.</desc><g><!-- Association work_order investigation Module Data Model -->
<line x1="155" y1="42" x2="525" y2="42" stroke="black" stroke-width="2" /><text x="503" y="38" text-anchor="end" font-family="sans-serif" font-size="12" fill="black"><tspan x="503" y="38">0</tspan></text>
<text x="340" y="58" text-anchor="middle" font-family="sans-serif" font-size="12" fill="black"><tspan x="340" y="58">work_order</tspan></text>
</g>
<g><!-- investigation Module Data Model -->
<a xlink:href="./investigation-Module-Data-Model.html" target="_top" xmlns:xlink="http://www.w3.org/1999/xlink"><rect x="5" y="5" width="150" height="75" fill="whitesmoke" stroke="black" stroke-width="2"><title></title></rect></a><text x="80" y="18" text-anchor="middle" font-family="sans-serif" font-size="12" fill="black"><tspan x="80" y="18">investigation</tspan><tspan x="80" y="34">Module Data Model</tspan></text>
</g>
<g><!-- Focal work_order Item -->
<a xlink:href="./work_order-Item.html" target="_top" xmlns:xlink="http://www.w3.org/1999/xlink"><rect x="525" y="5" width="225" height="832" fill="white" stroke="black" stroke-width="2"><title>Details of the work to be done (including the location) that can be used to determine the resources required when establishing available appointments. This Work Order may have one or more Work Elements, and available appointments must be provided for each Work Element included.</title></rect></a><text x="637" y="18" text-anchor="middle" font-family="sans-serif" font-size="12" fill="black"><tspan x="637" y="18">work_order Item</tspan></text>
<line x1="525" y1="31" x2="750" y2="31" stroke="black" stroke-width="1" /><text font-family="sans-serif" font-size="12" fill="black" text-anchor="start"><tspan x="532" y="44" text-anchor="start">actual_completion_date_time</tspan><tspan x="743" y="44" text-anchor="end">[0..1]</tspan><tspan x="532" y="60" text-anchor="start">: string</tspan><tspan x="532" y="76" text-anchor="start">actual_start_date_time</tspan><tspan x="743" y="76" text-anchor="end">[0..1]</tspan><tspan x="532" y="92" text-anchor="start">: string</tspan><tspan x="532" y="108" text-anchor="start">address_id : string</tspan><tspan x="743" y="108" text-anchor="end">[0..1]</tspan><tspan x="532" y="124" text-anchor="start">contractor_organisation_id</tspan><tspan x="743" y="124" text-anchor="end">[0..1]</tspan><tspan x="532" y="140" text-anchor="start">: string</tspan><tspan x="532" y="156" text-anchor="start">date_raised :</tspan><tspan x="743" y="156" text-anchor="end">[0..1]</tspan><tspan x="532" y="172" text-anchor="start">string</tspan><tspan x="532" y="188" text-anchor="start">date_reported :</tspan><tspan x="743" y="188" text-anchor="end">[0..1]</tspan><tspan x="532" y="204" text-anchor="start">string</tspan><tspan x="532" y="220" text-anchor="start">description_of_work</tspan><tspan x="743" y="220" text-anchor="end">[0..1]</tspan><tspan x="532" y="236" text-anchor="start">: string</tspan><tspan x="532" y="252" text-anchor="start">escalation_id :</tspan><tspan x="743" y="252" text-anchor="end">[0..1]</tspan><tspan x="532" y="268" text-anchor="start">string</tspan><tspan x="532" y="284" text-anchor="start">estimated_cost :</tspan><tspan x="743" y="284" text-anchor="end">[0..1]</tspan><tspan x="532" y="300" text-anchor="start">number</tspan><tspan x="532" y="316" text-anchor="start">estimated_labour_hours</tspan><tspan x="743" y="316" text-anchor="end">[0..1]</tspan><tspan x="532" y="332" text-anchor="start">: number</tspan><tspan x="532" y="348" text-anchor="start">hazard_report_id :</tspan><tspan x="743" y="348" text-anchor="end">[0..1]</tspan><tspan x="532" y="364" text-anchor="start">string</tspan><tspan x="532" y="380" text-anchor="start">inspection_id :</tspan><tspan x="743" y="380" text-anchor="end">[0..1]</tspan><tspan x="532" y="396" text-anchor="start">string</tspan><tspan x="532" y="412" text-anchor="start">job_status_update :</tspan><tspan x="743" y="412" text-anchor="end">[0..1]</tspan><tspan x="532" y="428" text-anchor="start">string</tspan><tspan x="532" y="444" text-anchor="start">location_alert_id :</tspan><tspan x="743" y="444" text-anchor="end">[0..1]</tspan><tspan x="532" y="460" text-anchor="start">string</tspan><tspan x="532" y="476" text-anchor="start">location_of_repair</tspan><tspan x="743" y="476" text-anchor="end">[0..1]</tspan><tspan x="532" y="492" text-anchor="start">: string</tspan><tspan x="532" y="508" text-anchor="start">person_alert_id :</tspan><tspan x="743" y="508" text-anchor="end">[0..1]</tspan><tspan x="532" y="524" text-anchor="start">string</tspan><tspan x="532" y="540" text-anchor="start">planned_finish_date</tspan><tspan x="743" y="540" text-anchor="end">[0..1]</tspan><tspan x="532" y="556" text-anchor="start">: string</tspan><tspan x="532" y="572" text-anchor="start">planned_start_date</tspan><tspan x="743" y="572" text-anchor="end">[0..1]</tspan><tspan x="532" y="588" text-anchor="start">: string</tspan><tspan x="532" y="604" text-anchor="start">repair_sla_breach_flag</tspan><tspan x="743" y="604" text-anchor="end">[0..1]</tspan><tspan x="532" y="620" text-anchor="start">: string</tspan><tspan x="532" y="636" text-anchor="start">tenancy_id : string</tspan><tspan x="743" y="636" text-anchor="end">[0..1]</tspan><tspan x="532" y="652" text-anchor="start">tenant_id : string</tspan><tspan x="743" y="652" text-anchor="end">[0..1]</tspan><tspan x="532" y="668" text-anchor="start">work_class_id :</tspan><tspan x="743" y="668" text-anchor="end">[0..1]</tspan><tspan x="532" y="684" text-anchor="start">string</tspan><tspan x="532" y="700" text-anchor="start">work_element_id :</tspan><tspan x="743" y="700" text-anchor="end">[0..1]</tspan><tspan x="532" y="716" text-anchor="start">string</tspan><tspan x="532" y="732" text-anchor="start">work_order_id :</tspan><tspan x="743" y="732" text-anchor="end">[0..1]</tspan><tspan x="532" y="748" text-anchor="start">string</tspan><tspan x="532" y="764" text-anchor="start">work_priority_id :</tspan><tspan x="743" y="764" text-anchor="end">[0..1]</tspan><tspan x="532" y="780" text-anchor="start">string</tspan></text></g>
</svg>