<svg xmlns="http://www.w3.org/2000/svg" viewBox="0 0 1200 327" role="img" aria-labelledby="title desc"><title id="title">Class Diagram of Need</title><desc id="desc">Generated diagram of focal class Need and related classes.</desc><g><!-- Association manages Case -->
<line x1="155" y1="42" x2="525" y2="42" stroke="black" stroke-width="2" /><text x="503" y="38" text-anchor="end" font-family="sans-serif" font-size="12" fill="black"><tspan x="503" y="38">0..*</tspan></text>
<text x="340" y="58" text-anchor="middle" font-family="sans-serif" font-size="12" fill="black"><tspan x="340" y="58">manages</tspan></text>
</g>
<g><!-- Case -->
<a xlink:href="./Case.html" target="_top" xmlns:xlink="http://www.w3.org/1999/xlink"><rect x="5" y="5" width="150" height="75" fill="whitesmoke" stroke="black" stroke-width="2"><title></title></rect></a><text x="80" y="18" text-anchor="middle" font-family="sans-serif" font-size="12" fill="black"><tspan x="80" y="18">Case</tspan></text>
</g>
<g><!-- Association has need Household -->
<line x1="155" y1="122" x2="525" y2="122" stroke="black" stroke-width="2" /><text x="503" y="118" text-anchor="end" font-family="sans-serif" font-size="12" fill="black"><tspan x="503" y="118">0..*</tspan></text>
<text x="340" y="138" text-anchor="middle" font-family="sans-serif" font-size="12" fill="black"><tspan x="340" y="138">has need</tspan></text>
</g>
<g><!-- Household -->
<a xlink:href="./Household.html" target="_top" xmlns:xlink="http://www.w3.org/1999/xlink"><rect x="5" y="85" width="150" height="75" fill="whitesmoke" stroke="black" stroke-width="2"><title></title></rect></a><text x="80" y="98" text-anchor="middle" font-family="sans-serif" font-size="12" fill="black"><tspan x="80" y="98">Household</tspan></text>
</g>
<g><!-- Association has need Person -->
<line x1="155" y1="202" x2="525" y2="202" stroke="black" stroke-width="2" /><text x="503" y="198" text-anchor="end" font-family="sans-serif" font-size="12" fill="black"><tspan x="503" y="198">0..*</tspan></text>
<text x="340" y="218" text-anchor="middle" font-family="sans-serif" font-size="12" fill="black"><tspan x="340" y="218">has need</tspan></text>
</g>
<g><!-- Person -->
<a xlink:href="./Person.html" target="_top" xmlns:xlink="http://www.w3.org/1999/xlink"><rect x="5" y="165" width="150" height="75" fill="whitesmoke" stroke="black" stroke-width="2"><title></title></rect></a><text x="80" y="178" text-anchor="middle" font-family="sans-serif" font-size="12" fill="black"><tspan x="80" y="178">Person</tspan></text>
</g>
<g><!-- Association addresses Plan -->
<line x1="155" y1="282" x2="525" y2="282" stroke="black" stroke-width="2" /><text x="503" y="278" text-anchor="end" font-family="sans-serif" font-size="12" fill="black"><tspan x="503" y="278">0..*</tspan></text>
<text x="340" y="298" text-anchor="middle" font-family="sans-serif" font-size="12" fill="black"><tspan x="340" y="298">addresses</tspan></text>
</g>
<g><!-- Plan -->
<a xlink:href="./Plan.html" target="_top" xmlns:xlink="http://www.w3.org/1999/xlink"><rect x="5" y="245" width="150" height="75" fill="whitesmoke" stroke="black" stroke-width="2"><title></title></rect></a><text x="80" y="258" text-anchor="middle" font-family="sans-serif" font-size="12" fill="black"><tspan x="80" y="258">Plan</tspan></text>
</g>
<g><!-- Association addressed by Action -->
<line x1="675" y1="42" x2="1045" y2="42" stroke="black" stroke-width="2" /><text x="1023" y="38" text-anchor="end" font-family="sans-serif" font-size="12" fill="black"><tspan x="1023" y="38">0..*</tspan></text>
<text x="860" y="58" text-anchor="middle" font-family="sans-serif" font-size="12" fill="black"><tspan x="860" y="58">addressed by</tspan></text>
</g>
<g><!-- Action -->
<a xlink:href="./Action.html" target="_top" xmlns:xlink="http://www.w3.org/1999/xlink"><rect x="1045" y="5" width="150" height="75" fill="whitesmoke" stroke="black" stroke-width="2"><title></title></rect></a><text x="1120" y="18" text-anchor="middle" font-family="sans-serif" font-size="12" fill="black"><tspan x="1120" y="18">Action</tspan></text>
</g>
<g><!-- Association has Outcome -->
<line x1="675" y1="122" x2="1045" y2="122" stroke="black" stroke-width="2" /><text x="1023" y="118" text-anchor="end" font-family="sans-serif" font-size="12" fill="black"><tspan x="1023" y="118">0..*</tspan></text>
<text x="860" y="138" text-anchor="middle" font-family="sans-serif" font-size="12" fill="black"><tspan x="860" y="138">has</tspan></text>
</g>
<g><!-- Outcome -->
<a xlink:href="./Outcome.html" target="_top" xmlns:xlink="http://www.w3.org/1999/xlink"><rect x="1045" y="85" width="150" height="75" fill="whitesmoke" stroke="black" stroke-width="2"><title></title></rect></a><text x="1120" y="98" text-anchor="middle" font-family="sans-serif" font-size="12" fill="black"><tspan x="1120" y="98">Outcome</tspan></text>
</g>
<g><!-- Association has referral Referral -->
<line x1="675" y1="202" x2="1045" y2="202" stroke="black" stroke-width="2" /><text x="1023" y="198" text-anchor="end" font-family="sans-serif" font-size="12" fill="black"><tspan x="1023" y="198">0..*</tspan></text>
<text x="860" y="218" text-anchor="middle" font-family="sans-serif" font-size="12" fill="black"><tspan x="860" y="218">has referral</tspan></text>
</g>
<g><!-- Referral -->
<a xlink:href="./Referral.html" target="_top" xmlns:xlink="http://www.w3.org/1999/xlink"><rect x="1045" y="165" width="150" height="75" fill="whitesmoke" stroke="black" stroke-width="2"><title></title></rect></a><text x="1120" y="178" text-anchor="middle" font-family="sans-serif" font-size="12" fill="black"><tspan x="1120" y="178">Referral</tspan></text>
</g>
<g><!-- Association Type Type -->
<line x1="675" y1="282" x2="1045" y2="282" stroke="black" stroke-width="2" /><text x="1023" y="278" text-anchor="end" font-family="sans-serif" font-size="12" fill="black"><tspan x="1023" y="278">0..*</tspan></text>
<text x="860" y="298" text-anchor="middle" font-family="sans-serif" font-size="12" fill="black"><tspan x="860" y="298">Type</tspan></text>
</g>
<g><!-- Type -->
<a xlink:href="./Type.html" target="_top" xmlns:xlink="http://www.w3.org/1999/xlink"><rect x="1045" y="245" width="150" height="75" fill="whitesmoke" stroke="black" stroke-width="2"><title>To tag a thing with a type.</title></rect></a><text x="1120" y="258" text-anchor="middle" font-family="sans-serif" font-size="12" fill="black"><tspan x="1120" y="258">Type</tspan></text>
</g>
<g><!-- Focal Need -->
<a xlink:href="./Need.html" target="_top" xmlns:xlink="http://www.w3.org/1999/xlink"><rect x="525" y="5" width="225" height="320" fill="white" stroke="black" stroke-width="2"><title></title></rect></a><text x="637" y="18" text-anchor="middle" font-family="sans-serif" font-size="12" fill="black"><tspan x="637" y="18">Need</tspan></text>
<line x1="525" y1="31" x2="750" y2="31" stroke="black" stroke-width="1" /><text font-family="sans-serif" font-size="12" fill="black" text-anchor="start"><tspan x="532" y="44" text-anchor="start">Date : date</tspan><tspan x="743" y="44" text-anchor="end">[0..*]</tspan><tspan x="532" y="60" text-anchor="start">End Date : date</tspan><tspan x="743" y="60" text-anchor="end">[0..*]</tspan><tspan x="532" y="76" text-anchor="start">Rationale : string</tspan><tspan x="743" y="76" text-anchor="end">[0..*]</tspan><tspan x="532" y="92" text-anchor="start">Target Date : date</tspan><tspan x="743" y="92" text-anchor="end">[0..*]</tspan></text></g>
</svg>