<svg xmlns="http://www.w3.org/2000/svg" viewBox="0 0 1200 183" role="img" aria-labelledby="title desc"><title id="title">Class Diagram of Person Name</title><desc id="desc">Generated diagram of focal class Person Name and related classes.</desc><g><!-- Association Name Person -->
<line x1="155" y1="42" x2="525" y2="42" stroke="black" stroke-width="2" /><text x="503" y="38" text-anchor="end" font-family="sans-serif" font-size="12" fill="black"><tspan x="503" y="38">0..*</tspan></text>
<text x="340" y="58" text-anchor="middle" font-family="sans-serif" font-size="12" fill="black"><tspan x="340" y="58">Name</tspan></text>
</g>
<g><!-- Association PreviousName Person -->
<line x1="155" y1="117" x2="525" y2="117" stroke="black" stroke-width="2" /><text x="503" y="113" text-anchor="end" font-family="sans-serif" font-size="12" fill="black"><tspan x="503" y="113">0..*</tspan></text>
<text x="340" y="133" text-anchor="middle" font-family="sans-serif" font-size="12" fill="black"><tspan x="340" y="133">PreviousName</tspan></text>
</g>
<g><!-- Person -->
<a xlink:href="./Person.html" target="_top" xmlns:xlink="http://www.w3.org/1999/xlink"><rect x="5" y="5" width="150" height="150" fill="whitesmoke" stroke="black" stroke-width="2"><title></title></rect></a><text x="80" y="18" text-anchor="middle" font-family="sans-serif" font-size="12" fill="black"><tspan x="80" y="18">Person</tspan></text>
</g>
<g><!-- Focal Person Name -->
<a xlink:href="./Person-Name.html" target="_top" xmlns:xlink="http://www.w3.org/1999/xlink"><rect x="525" y="5" width="225" height="176" fill="white" stroke="black" stroke-width="2"><title></title></rect></a><text x="637" y="18" text-anchor="middle" font-family="sans-serif" font-size="12" fill="black"><tspan x="637" y="18">Person Name</tspan></text>
<line x1="525" y1="31" x2="750" y2="31" stroke="black" stroke-width="1" /><text font-family="sans-serif" font-size="12" fill="black" text-anchor="start"><tspan x="532" y="44" text-anchor="start">Family Name :</tspan><tspan x="743" y="44" text-anchor="end">[0..*]</tspan><tspan x="532" y="60" text-anchor="start">string</tspan><tspan x="532" y="76" text-anchor="start">Given Name : string</tspan><tspan x="743" y="76" text-anchor="end">[0..*]</tspan><tspan x="532" y="92" text-anchor="start">Title : string</tspan><tspan x="743" y="92" text-anchor="end">[0..*]</tspan><tspan x="532" y="108" text-anchor="start">Unstructured Name :</tspan><tspan x="743" y="108" text-anchor="end">[0..*]</tspan><tspan x="532" y="124" text-anchor="start">string</tspan></text></g>
</svg>