<svg xmlns="http://www.w3.org/2000/svg" viewBox="0 0 1200 432" role="img" aria-labelledby="title desc"><title id="title">Class Diagram of care performer</title><desc id="desc">Generated diagram of focal class care performer and related classes.</desc><!-- Super types of care performer -->
<g><!-- role -->
<a xlink:href="./role.html" target="_top" xmlns:xlink="http://www.w3.org/1999/xlink"><rect x="525" y="5" width="150" height="75" fill="white" stroke="black" stroke-width="2"><title>set of competencies or performances that are associated with a task</title></rect></a><text x="600" y="35" text-anchor="middle" font-family="Cambria" font-size="25" fill="black"><tspan x="600" y="35">role</tspan></text>
</g>
<!-- Generalization care performer -> role -->
<line x1="600" y1="155" x2="600" y2="135" stroke="black" stroke-width="2" /><line x1="600" y1="82" x2="600" y2="135" stroke="black" stroke-width="2" /><line x1="600" y1="135" x2="600" y2="135" stroke="black" stroke-width="2" /><polygon points="600,82 595,92 605,92" fill="white" stroke="black" stroke-width="2" /><g><!-- Association plays care personnel -->
<line x1="155" y1="192" x2="525" y2="192" stroke="black" stroke-width="2" /><text x="175" y="188" text-anchor="start" font-family="Cambria" font-size="22" fill="black"><tspan x="175" y="188">0..*</tspan></text>
<text x="505" y="188" text-anchor="end" font-family="Cambria" font-size="22" fill="black"><tspan x="505" y="188">1..*</tspan></text>
<text x="340" y="208" text-anchor="middle" font-family="Cambria" font-size="22" fill="black"><tspan x="340" y="208">plays</tspan></text>
</g>
<g><!-- care personnel -->
<a xlink:href="./care-personnel.html" target="_top" xmlns:xlink="http://www.w3.org/1999/xlink"><rect x="5" y="155" width="150" height="75" fill="whitesmoke" stroke="black" stroke-width="2"><title>person holding a care employment from a care organization</title></rect></a><text x="80" y="184" text-anchor="middle" font-family="Cambria" font-size="24.0625" fill="black"><tspan x="80" y="184">care</tspan><tspan x="80" y="212">personnel</tspan></text>
</g>
<g><!-- Association delivers care activity -->
<line x1="675" y1="192" x2="1045" y2="192" stroke="black" stroke-width="2" /><text x="695" y="188" text-anchor="start" font-family="Cambria" font-size="22" fill="black"><tspan x="695" y="188">1..*</tspan></text>
<text x="1023" y="188" text-anchor="end" font-family="Cambria" font-size="22" fill="black"><tspan x="1023" y="188">1..*</tspan></text>
<text x="860" y="208" text-anchor="middle" font-family="Cambria" font-size="22" fill="black"><tspan x="860" y="208">delivers</tspan></text>
</g>
<g><!-- care activity -->
<a xlink:href="./care-activity.html" target="_top" xmlns:xlink="http://www.w3.org/1999/xlink"><rect x="1045" y="155" width="150" height="75" fill="whitesmoke" stroke="black" stroke-width="2"><title>activity intended to improve or maintain a health state </title></rect></a><text x="1120" y="184" text-anchor="middle" font-family="Cambria" font-size="24.0625" fill="black"><tspan x="1120" y="184">care</tspan><tspan x="1120" y="212">activity</tspan></text>
</g>
<g><!-- Focal care performer -->
<a xlink:href="./care-performer.html" target="_top" xmlns:xlink="http://www.w3.org/1999/xlink"><rect x="525" y="155" width="150" height="80" fill="white" stroke="black" stroke-width="2"><title>role adopted by care personnel when performing care</title></rect></a><text x="600" y="185" text-anchor="middle" font-family="Cambria" font-size="25" fill="black"><tspan x="600" y="185">care</tspan><tspan x="600" y="215">performer</tspan></text>
</g>
<g><!-- self-care performer -->
<a xlink:href="./self-care-performer.html" target="_top" xmlns:xlink="http://www.w3.org/1999/xlink"><rect x="125" y="277" width="150" height="75" fill="white" stroke="black" stroke-width="2"><title>role played by a subject of care when performing self-care</title></rect></a><text x="200" y="306" text-anchor="middle" font-family="Cambria" font-size="24.0625" fill="black"><tspan x="200" y="306">self-care</tspan><tspan x="200" y="334">performer</tspan></text>
</g>
<g><!-- third party care performer -->
<a xlink:href="./third-party-care-performer.html" target="_top" xmlns:xlink="http://www.w3.org/1999/xlink"><rect x="525" y="277" width="150" height="75" fill="white" stroke="black" stroke-width="2"><title>role performed by a care third party</title></rect></a><text x="600" y="298" text-anchor="middle" font-family="Cambria" font-size="16.5625" fill="black"><tspan x="600" y="298">third party</tspan><tspan x="600" y="317">care performer</tspan></text>
</g>
<g><!-- prescriber -->
<a xlink:href="./prescriber.html" target="_top" xmlns:xlink="http://www.w3.org/1999/xlink"><rect x="925" y="277" width="150" height="75" fill="white" stroke="black" stroke-width="2"><title>role performed by a care professional when recommending or authorising a care activity</title></rect></a><text x="1000" y="307" text-anchor="middle" font-family="Cambria" font-size="25" fill="black"><tspan x="1000" y="307">prescriber</tspan></text>
</g>
<!-- Subclass row bus -->
<line x1="200" y1="257" x2="1000" y2="257" stroke="black" stroke-width="2" /><!-- Subclass row vertical to focal -->
<line x1="600" y1="247" x2="600" y2="257" stroke="black" stroke-width="2" /><polygon points="600,237 595,247 605,247" fill="white" stroke="black" stroke-width="2" /><line x1="200" y1="257" x2="200" y2="277" stroke="black" stroke-width="2" /><line x1="600" y1="257" x2="600" y2="277" stroke="black" stroke-width="2" /><line x1="1000" y1="257" x2="1000" y2="277" stroke="black" stroke-width="2" /></svg>