<svg xmlns="http://www.w3.org/2000/svg" viewBox="0 0 1200 1072" role="img" aria-labelledby="title desc"><title id="title">Class Diagram of care plan</title><desc id="desc">Generated diagram of focal class care plan and related classes.</desc><!-- Super types of care plan -->
<g><!-- mental object -->
<a xlink:href="./mental-object.html" target="_top" xmlns:xlink="http://www.w3.org/1999/xlink"><rect x="525" y="5" width="150" height="75" fill="white" stroke="black" stroke-width="2"><title>thoughts, ideas, memories and concepts that exist within an individual’s mind</title></rect></a><text x="600" y="34" text-anchor="middle" font-family="Cambria" font-size="24.0625" fill="black"><tspan x="600" y="34">mental</tspan><tspan x="600" y="62">object</tspan></text>
</g>
<!-- Generalization care plan -> mental object -->
<line x1="600" y1="155" x2="600" y2="135" stroke="black" stroke-width="2" /><line x1="600" y1="82" x2="600" y2="135" stroke="black" stroke-width="2" /><line x1="600" y1="135" x2="600" y2="135" stroke="black" stroke-width="2" /><polygon points="600,82 595,92 605,92" fill="white" stroke="black" stroke-width="2" /><!-- Self associations (pig's ear) adjacent to focal class -->
<g><!-- Self Association (adjacent) complies with -->
<path d="M 677 174 L 752 174 L 752 210 L 677 210" fill="none" stroke="black" stroke-width="2" /><g transform="translate(677,174)"><polygon points="0,0 8,-6 16,0 8,6" fill="white" stroke="black" stroke-width="2" /></g><text x="699" y="170" text-anchor="start" font-family="Cambria" font-size="22" fill="black"><tspan x="699" y="170">0..*</tspan></text>
<text x="681" y="206" text-anchor="start" font-family="Cambria" font-size="22" fill="black"><tspan x="681" y="206">0..*</tspan></text>
<text x="756" y="192" text-anchor="start" font-family="Cambria" font-size="22" fill="black"><tspan x="756" y="192">complies</tspan><tspan x="756" y="218">with</tspan></text>
</g>
<g><!-- Association applies care actor -->
<line x1="155" y1="192" x2="525" y2="192" stroke="black" stroke-width="2" /><text x="175" y="188" text-anchor="start" font-family="Cambria" font-size="22" fill="black"><tspan x="175" y="188">0..*</tspan></text>
<text x="505" y="188" text-anchor="end" font-family="Cambria" font-size="22" fill="black"><tspan x="505" y="188">1..*</tspan></text>
<text x="340" y="208" text-anchor="middle" font-family="Cambria" font-size="22" fill="black"><tspan x="340" y="208">applies</tspan></text>
</g>
<g><!-- care actor -->
<a xlink:href="./care-actor.html" target="_top" xmlns:xlink="http://www.w3.org/1999/xlink"><rect x="5" y="155" width="150" height="75" fill="whitesmoke" stroke="black" stroke-width="2"><title>organization or person participating in care</title></rect></a><text x="80" y="184" text-anchor="middle" font-family="Cambria" font-size="24.0625" fill="black"><tspan x="80" y="184">care</tspan><tspan x="80" y="212">actor</tspan></text>
</g>
<g><!-- Association scheduled in care appointment -->
<line x1="155" y1="272" x2="525" y2="272" stroke="black" stroke-width="2" /><text x="175" y="268" text-anchor="start" font-family="Cambria" font-size="22" fill="black"><tspan x="175" y="268">0..*</tspan></text>
<text x="505" y="268" text-anchor="end" font-family="Cambria" font-size="22" fill="black"><tspan x="505" y="268">0..*</tspan></text>
<text x="340" y="288" text-anchor="middle" font-family="Cambria" font-size="22" fill="black"><tspan x="340" y="288">scheduled in</tspan></text>
</g>
<g><!-- care appointment -->
<a xlink:href="./care-appointment.html" target="_top" xmlns:xlink="http://www.w3.org/1999/xlink"><rect x="5" y="235" width="150" height="75" fill="whitesmoke" stroke="black" stroke-width="2"><title>appointment for a contact</title></rect></a><text x="80" y="264" text-anchor="middle" font-family="Cambria" font-size="24.0625" fill="black"><tspan x="80" y="264">care</tspan><tspan x="80" y="292">appointment</tspan></text>
</g>
<g><!-- Association planned in care process -->
<line x1="155" y1="352" x2="525" y2="352" stroke="black" stroke-width="2" /><text x="175" y="348" text-anchor="start" font-family="Cambria" font-size="22" fill="black"><tspan x="175" y="348">1..*</tspan></text>
<text x="505" y="348" text-anchor="end" font-family="Cambria" font-size="22" fill="black"><tspan x="505" y="348">1..*</tspan></text>
<text x="340" y="368" text-anchor="middle" font-family="Cambria" font-size="22" fill="black"><tspan x="340" y="368">planned in</tspan></text>
</g>
<g><!-- care process -->
<a xlink:href="./care-process.html" target="_top" xmlns:xlink="http://www.w3.org/1999/xlink"><rect x="5" y="315" width="150" height="75" fill="whitesmoke" stroke="black" stroke-width="2"><title>set of interrelated or interacting care activities which transforms inputs into outputs</title></rect></a><text x="80" y="344" text-anchor="middle" font-family="Cambria" font-size="24.0625" fill="black"><tspan x="80" y="344">care</tspan><tspan x="80" y="372">process</tspan></text>
</g>
<g><!-- Association care activities bundle care activity bundle -->
<line x1="675" y1="272" x2="1045" y2="272" stroke="black" stroke-width="2" /><text x="695" y="268" text-anchor="start" font-family="Cambria" font-size="22" fill="black"><tspan x="695" y="268">1..*</tspan></text>
<text x="1023" y="268" text-anchor="end" font-family="Cambria" font-size="22" fill="black"><tspan x="1023" y="268">0..*</tspan></text>
<g transform="translate(1029,272)"><polygon points="0,0 8,-6 16,0 8,6" fill="white" stroke="black" stroke-width="2" /></g><text x="860" y="288" text-anchor="middle" font-family="Cambria" font-size="22" fill="black"><tspan x="860" y="288">care activities bundle</tspan></text>
</g>
<g><!-- care activity bundle -->
<a xlink:href="./care-activity-bundle.html" target="_top" xmlns:xlink="http://www.w3.org/1999/xlink"><rect x="1045" y="235" width="150" height="75" fill="whitesmoke" stroke="black" stroke-width="2"><title>set of care activities</title></rect></a><text x="1120" y="257" text-anchor="middle" font-family="Cambria" font-size="17.8125" fill="black"><tspan x="1120" y="257">care activity</tspan><tspan x="1120" y="278">bundle</tspan></text>
</g>
<g><!-- Association targets care goal -->
<line x1="675" y1="352" x2="1045" y2="352" stroke="black" stroke-width="2" /><text x="695" y="348" text-anchor="start" font-family="Cambria" font-size="22" fill="black"><tspan x="695" y="348">0..*</tspan></text>
<text x="1023" y="348" text-anchor="end" font-family="Cambria" font-size="22" fill="black"><tspan x="1023" y="348">1..*</tspan></text>
<text x="860" y="368" text-anchor="middle" font-family="Cambria" font-size="22" fill="black"><tspan x="860" y="368">targets</tspan></text>
</g>
<g><!-- care goal -->
<a xlink:href="./care-goal.html" target="_top" xmlns:xlink="http://www.w3.org/1999/xlink"><rect x="1045" y="315" width="150" height="75" fill="whitesmoke" stroke="black" stroke-width="2"><title>desired achievement of one or more care activities</title></rect></a><text x="1120" y="345" text-anchor="middle" font-family="Cambria" font-size="25" fill="black"><tspan x="1120" y="345">care goal</tspan></text>
</g>
<g><!-- Association conforms to care guideline -->
<line x1="675" y1="432" x2="1045" y2="432" stroke="black" stroke-width="2" /><text x="695" y="428" text-anchor="start" font-family="Cambria" font-size="22" fill="black"><tspan x="695" y="428">0..*</tspan></text>
<text x="1023" y="428" text-anchor="end" font-family="Cambria" font-size="22" fill="black"><tspan x="1023" y="428">1..*</tspan></text>
<text x="860" y="448" text-anchor="middle" font-family="Cambria" font-size="22" fill="black"><tspan x="860" y="448">conforms to</tspan></text>
</g>
<g><!-- care guideline -->
<a xlink:href="./care-guideline.html" target="_top" xmlns:xlink="http://www.w3.org/1999/xlink"><rect x="1045" y="395" width="150" height="75" fill="whitesmoke" stroke="black" stroke-width="2"><title>set of systematically developed statements based on knowledge to assist the decisions made by care actors about care activities to be performed with regard to specified health issues</title></rect></a><text x="1120" y="424" text-anchor="middle" font-family="Cambria" font-size="24.0625" fill="black"><tspan x="1120" y="424">care</tspan><tspan x="1120" y="452">guideline</tspan></text>
</g>
<g><!-- Association result of care planning -->
<line x1="675" y1="512" x2="1045" y2="512" stroke="black" stroke-width="2" /><text x="695" y="508" text-anchor="start" font-family="Cambria" font-size="22" fill="black"><tspan x="695" y="508">1..*</tspan></text>
<text x="1023" y="508" text-anchor="end" font-family="Cambria" font-size="22" fill="black"><tspan x="1023" y="508">1..*</tspan></text>
<text x="860" y="528" text-anchor="middle" font-family="Cambria" font-size="22" fill="black"><tspan x="860" y="528">result of</tspan></text>
</g>
<g><!-- care planning -->
<a xlink:href="./care-planning.html" target="_top" xmlns:xlink="http://www.w3.org/1999/xlink"><rect x="1045" y="475" width="150" height="75" fill="whitesmoke" stroke="black" stroke-width="2"><title>care activity management where a care plan is managed</title></rect></a><text x="1120" y="504" text-anchor="middle" font-family="Cambria" font-size="24.0625" fill="black"><tspan x="1120" y="504">care</tspan><tspan x="1120" y="532">planning</tspan></text>
</g>
<g><!-- Association based upon core care plan -->
<line x1="675" y1="592" x2="1045" y2="592" stroke="black" stroke-width="2" /><text x="695" y="588" text-anchor="start" font-family="Cambria" font-size="22" fill="black"><tspan x="695" y="588">0..*</tspan></text>
<text x="1023" y="588" text-anchor="end" font-family="Cambria" font-size="22" fill="black"><tspan x="1023" y="588">1..*</tspan></text>
<text x="860" y="608" text-anchor="middle" font-family="Cambria" font-size="22" fill="black"><tspan x="860" y="608">based upon</tspan></text>
</g>
<g><!-- core care plan -->
<a xlink:href="./core-care-plan.html" target="_top" xmlns:xlink="http://www.w3.org/1999/xlink"><rect x="1045" y="555" width="150" height="75" fill="whitesmoke" stroke="black" stroke-width="2"><title>knowledge providing reusable content addressing one or more specified health issues</title></rect></a><text x="1120" y="584" text-anchor="middle" font-family="Cambria" font-size="24.0625" fill="black"><tspan x="1120" y="584">core care</tspan><tspan x="1120" y="612">plan</tspan></text>
</g>
<g><!-- Association recorded in health record -->
<line x1="675" y1="672" x2="1045" y2="672" stroke="black" stroke-width="2" /><text x="695" y="668" text-anchor="start" font-family="Cambria" font-size="22" fill="black"><tspan x="695" y="668">1..*</tspan></text>
<text x="1023" y="668" text-anchor="end" font-family="Cambria" font-size="22" fill="black"><tspan x="1023" y="668">1..*</tspan></text>
<text x="860" y="688" text-anchor="middle" font-family="Cambria" font-size="22" fill="black"><tspan x="860" y="688">recorded in</tspan></text>
</g>
<g><!-- health record -->
<a xlink:href="./health-record.html" target="_top" xmlns:xlink="http://www.w3.org/1999/xlink"><rect x="1045" y="635" width="150" height="75" fill="whitesmoke" stroke="black" stroke-width="2"><title>data repository regarding the health and care of a subject of care</title></rect></a><text x="1120" y="664" text-anchor="middle" font-family="Cambria" font-size="24.0625" fill="black"><tspan x="1120" y="664">health</tspan><tspan x="1120" y="692">record</tspan></text>
</g>
<g><!-- Association addresses health thread -->
<line x1="675" y1="752" x2="1045" y2="752" stroke="black" stroke-width="2" /><text x="695" y="748" text-anchor="start" font-family="Cambria" font-size="22" fill="black"><tspan x="695" y="748">1..*</tspan></text>
<text x="1023" y="748" text-anchor="end" font-family="Cambria" font-size="22" fill="black"><tspan x="1023" y="748">1..*</tspan></text>
<text x="860" y="768" text-anchor="middle" font-family="Cambria" font-size="22" fill="black"><tspan x="860" y="768">addresses</tspan></text>
</g>
<g><!-- health thread -->
<a xlink:href="./health-thread.html" target="_top" xmlns:xlink="http://www.w3.org/1999/xlink"><rect x="1045" y="715" width="150" height="75" fill="whitesmoke" stroke="black" stroke-width="2"><title>defined association between health matters as determined by one or more care actors</title></rect></a><text x="1120" y="744" text-anchor="middle" font-family="Cambria" font-size="24.0625" fill="black"><tspan x="1120" y="744">health</tspan><tspan x="1120" y="772">thread</tspan></text>
</g>
<g><!-- Association implements protocol -->
<line x1="675" y1="832" x2="1045" y2="832" stroke="black" stroke-width="2" /><text x="695" y="828" text-anchor="start" font-family="Cambria" font-size="22" fill="black"><tspan x="695" y="828">0..*</tspan></text>
<text x="1023" y="828" text-anchor="end" font-family="Cambria" font-size="22" fill="black"><tspan x="1023" y="828">0..*</tspan></text>
<text x="860" y="848" text-anchor="middle" font-family="Cambria" font-size="22" fill="black"><tspan x="860" y="848">implements</tspan></text>
</g>
<g><!-- protocol -->
<a xlink:href="./protocol.html" target="_top" xmlns:xlink="http://www.w3.org/1999/xlink"><rect x="1045" y="795" width="150" height="75" fill="whitesmoke" stroke="black" stroke-width="2"><title>customized care guideline</title></rect></a><text x="1120" y="825" text-anchor="middle" font-family="Cambria" font-size="25" fill="black"><tspan x="1120" y="825">protocol</tspan></text>
</g>
<g><!-- Focal care plan -->
<a xlink:href="./care-plan.html" target="_top" xmlns:xlink="http://www.w3.org/1999/xlink"><rect x="525" y="155" width="150" height="720" fill="white" stroke="black" stroke-width="2"><title>dynamic, personalized plan including identified needed care activity, health objectives and care goals, relating to one or more specified health needs in a care process</title></rect></a><text x="600" y="185" text-anchor="middle" font-family="Cambria" font-size="25" fill="black"><tspan x="600" y="185">care plan</tspan></text>
</g>
<g><!-- integrated care plan -->
<a xlink:href="./integrated-care-plan.html" target="_top" xmlns:xlink="http://www.w3.org/1999/xlink"><rect x="125" y="917" width="150" height="75" fill="white" stroke="black" stroke-width="2"><title>care plan crossing organizational, professional and contextual borders</title></rect></a><text x="200" y="946" text-anchor="middle" font-family="Cambria" font-size="24.0625" fill="black"><tspan x="200" y="946">integrated</tspan><tspan x="200" y="974">care plan</tspan></text>
</g>
<g><!-- social care plan -->
<a xlink:href="./social-care-plan.html" target="_top" xmlns:xlink="http://www.w3.org/1999/xlink"><rect x="525" y="917" width="150" height="75" fill="white" stroke="black" stroke-width="2"><title>care plan addressing social issues</title></rect></a><text x="600" y="946" text-anchor="middle" font-family="Cambria" font-size="24.0625" fill="black"><tspan x="600" y="946">social</tspan><tspan x="600" y="974">care plan</tspan></text>
</g>
<g><!-- clinical care plan -->
<a xlink:href="./clinical-care-plan.html" target="_top" xmlns:xlink="http://www.w3.org/1999/xlink"><rect x="925" y="917" width="150" height="75" fill="white" stroke="black" stroke-width="2"><title>care plan addressing clinical issues</title></rect></a><text x="1000" y="946" text-anchor="middle" font-family="Cambria" font-size="24.0625" fill="black"><tspan x="1000" y="946">clinical</tspan><tspan x="1000" y="974">care plan</tspan></text>
</g>
<!-- Subclass row bus -->
<line x1="200" y1="897" x2="1000" y2="897" stroke="black" stroke-width="2" /><!-- Subclass row vertical to focal -->
<line x1="600" y1="887" x2="600" y2="897" stroke="black" stroke-width="2" /><polygon points="600,877 595,887 605,887" fill="white" stroke="black" stroke-width="2" /><line x1="200" y1="897" x2="200" y2="917" stroke="black" stroke-width="2" /><line x1="600" y1="897" x2="600" y2="917" stroke="black" stroke-width="2" /><line x1="1000" y1="897" x2="1000" y2="917" stroke="black" stroke-width="2" /></svg>