<svg xmlns="http://www.w3.org/2000/svg" viewBox="0 0 1200 752" role="img" aria-labelledby="title desc"><title id="title">Class Diagram of care process</title><desc id="desc">Generated diagram of focal class care process and related classes.</desc><!-- Super types of care process -->
<g><!-- process -->
<a xlink:href="./process.html" target="_top" xmlns:xlink="http://www.w3.org/1999/xlink"><rect x="525" y="5" width="150" height="75" fill="white" stroke="black" stroke-width="2"><title></title></rect></a><text x="600" y="18" text-anchor="middle" font-family="Cambria" font-size="12" fill="black"><tspan x="600" y="18">process</tspan></text>
</g>
<!-- Generalization care process -> process -->
<line x1="600" y1="155" x2="600" y2="135" stroke="black" stroke-width="2" /><line x1="600" y1="82" x2="600" y2="135" stroke="black" stroke-width="2" /><line x1="600" y1="135" x2="600" y2="135" stroke="black" stroke-width="2" /><polygon points="600,82 595,92 605,92" fill="white" stroke="black" stroke-width="2" /><!-- Self associations (pig's ear) adjacent to focal class -->
<g><!-- Self Association (adjacent) care process -->
<path d="M 677 174 L 752 174 L 752 210 L 677 210" fill="none" stroke="black" stroke-width="2" /><g transform="translate(677,174)"><polygon points="0,0 8,-6 16,0 8,6" fill="white" stroke="black" stroke-width="2" /></g><text x="699" y="170" text-anchor="start" font-family="Cambria" font-size="12" fill="black"><tspan x="699" y="170">0..*</tspan></text>
<text x="681" y="206" text-anchor="start" font-family="Cambria" font-size="12" fill="black"><tspan x="681" y="206">0..1</tspan></text>
</g>
<g><!-- Association negatively influences adverse event -->
<line x1="155" y1="192" x2="525" y2="192" stroke="black" stroke-width="2" /><text x="175" y="188" text-anchor="start" font-family="Cambria" font-size="12" fill="black"><tspan x="175" y="188">1..*</tspan></text>
<text x="505" y="188" text-anchor="end" font-family="Cambria" font-size="12" fill="black"><tspan x="505" y="188">1..*</tspan></text>
<text x="340" y="208" text-anchor="middle" font-family="Cambria" font-size="12" fill="black"><tspan x="340" y="208">negatively influences</tspan></text>
</g>
<g><!-- adverse event -->
<a xlink:href="./adverse-event.html" target="_top" xmlns:xlink="http://www.w3.org/1999/xlink"><rect x="5" y="155" width="150" height="75" fill="whitesmoke" stroke="black" stroke-width="2"><title>unintended event that has negative impact upon a care process</title></rect></a><text x="80" y="168" text-anchor="middle" font-family="Cambria" font-size="12" fill="black"><tspan x="80" y="168">adverse event</tspan></text>
</g>
<g><!-- Association care process care activity -->
<line x1="155" y1="272" x2="525" y2="272" stroke="black" stroke-width="2" /><text x="175" y="268" text-anchor="start" font-family="Cambria" font-size="12" fill="black"><tspan x="175" y="268">1..*</tspan></text>
<text x="505" y="268" text-anchor="end" font-family="Cambria" font-size="12" fill="black"><tspan x="505" y="268">1..*</tspan></text>
<g transform="translate(509,272)"><polygon points="0,0 8,-6 16,0 8,6" fill="black" stroke="black" stroke-width="2" /></g></g>
<g><!-- care activity -->
<a xlink:href="./care-activity.html" target="_top" xmlns:xlink="http://www.w3.org/1999/xlink"><rect x="5" y="235" width="150" height="75" fill="whitesmoke" stroke="black" stroke-width="2"><title>activity intended to improve or maintain a health state </title></rect></a><text x="80" y="248" text-anchor="middle" font-family="Cambria" font-size="12" fill="black"><tspan x="80" y="248">care activity</tspan></text>
</g>
<g><!-- Association regulates care mandate -->
<line x1="155" y1="352" x2="525" y2="352" stroke="black" stroke-width="2" /><text x="175" y="348" text-anchor="start" font-family="Cambria" font-size="12" fill="black"><tspan x="175" y="348">1..*</tspan></text>
<text x="505" y="348" text-anchor="end" font-family="Cambria" font-size="12" fill="black"><tspan x="505" y="348">0..*</tspan></text>
<text x="340" y="368" text-anchor="middle" font-family="Cambria" font-size="12" fill="black"><tspan x="340" y="368">regulates</tspan></text>
</g>
<g><!-- care mandate -->
<a xlink:href="./care-mandate.html" target="_top" xmlns:xlink="http://www.w3.org/1999/xlink"><rect x="5" y="315" width="150" height="75" fill="whitesmoke" stroke="black" stroke-width="2"><title>mandate based on a commitment and either an informed consent or an authorization by law defining the rights and obligations of one care actor with regard to their involvement in care processes performed for a specific subject of care</title></rect></a><text x="80" y="328" text-anchor="middle" font-family="Cambria" font-size="12" fill="black"><tspan x="80" y="328">care mandate</tspan></text>
</g>
<g><!-- Association evaluates care process evaluation -->
<line x1="155" y1="432" x2="525" y2="432" stroke="black" stroke-width="2" /><text x="175" y="428" text-anchor="start" font-family="Cambria" font-size="12" fill="black"><tspan x="175" y="428">0..*</tspan></text>
<text x="505" y="428" text-anchor="end" font-family="Cambria" font-size="12" fill="black"><tspan x="505" y="428">1..*</tspan></text>
<text x="340" y="448" text-anchor="middle" font-family="Cambria" font-size="12" fill="black"><tspan x="340" y="448">evaluates</tspan></text>
</g>
<g><!-- care process evaluation -->
<a xlink:href="./care-process-evaluation.html" target="_top" xmlns:xlink="http://www.w3.org/1999/xlink"><rect x="5" y="395" width="150" height="75" fill="whitesmoke" stroke="black" stroke-width="2"><title>care evaluation where a care process is evaluated against requirements</title></rect></a><text x="80" y="408" text-anchor="middle" font-family="Cambria" font-size="12" fill="black"><tspan x="80" y="408">care process</tspan><tspan x="80" y="424">evaluation</tspan></text>
</g>
<g><!-- Association input to input health state -->
<line x1="155" y1="512" x2="525" y2="512" stroke="black" stroke-width="2" /><text x="175" y="508" text-anchor="start" font-family="Cambria" font-size="12" fill="black"><tspan x="175" y="508">1</tspan></text>
<text x="505" y="508" text-anchor="end" font-family="Cambria" font-size="12" fill="black"><tspan x="505" y="508">0..1</tspan></text>
<text x="340" y="528" text-anchor="middle" font-family="Cambria" font-size="12" fill="black"><tspan x="340" y="528">input to</tspan></text>
</g>
<g><!-- input health state -->
<a xlink:href="./input-health-state.html" target="_top" xmlns:xlink="http://www.w3.org/1999/xlink"><rect x="5" y="475" width="150" height="75" fill="whitesmoke" stroke="black" stroke-width="2"><title>health state at the start of a care process</title></rect></a><text x="80" y="488" text-anchor="middle" font-family="Cambria" font-size="12" fill="black"><tspan x="80" y="488">input health state</tspan></text>
</g>
<g><!-- Association planned in care plan -->
<line x1="675" y1="272" x2="1045" y2="272" stroke="black" stroke-width="2" /><text x="695" y="268" text-anchor="start" font-family="Cambria" font-size="12" fill="black"><tspan x="695" y="268">1..*</tspan></text>
<text x="1023" y="268" text-anchor="end" font-family="Cambria" font-size="12" fill="black"><tspan x="1023" y="268">1..*</tspan></text>
<text x="860" y="288" text-anchor="middle" font-family="Cambria" font-size="12" fill="black"><tspan x="860" y="288">planned in</tspan></text>
</g>
<g><!-- care plan -->
<a xlink:href="./care-plan.html" target="_top" xmlns:xlink="http://www.w3.org/1999/xlink"><rect x="1045" y="235" width="150" height="75" fill="whitesmoke" stroke="black" stroke-width="2"><title>dynamic, personalized plan including identified needed care activity, health objectives and care goals, relating to one or more specified health needs in a care process</title></rect></a><text x="1120" y="248" text-anchor="middle" font-family="Cambria" font-size="12" fill="black"><tspan x="1120" y="248">care plan</tspan></text>
</g>
<g><!-- Association documented in health record -->
<line x1="675" y1="352" x2="1045" y2="352" stroke="black" stroke-width="2" /><text x="695" y="348" text-anchor="start" font-family="Cambria" font-size="12" fill="black"><tspan x="695" y="348">1..*</tspan></text>
<text x="1023" y="348" text-anchor="end" font-family="Cambria" font-size="12" fill="black"><tspan x="1023" y="348">1..*</tspan></text>
<text x="860" y="368" text-anchor="middle" font-family="Cambria" font-size="12" fill="black"><tspan x="860" y="368">documented in</tspan></text>
</g>
<g><!-- health record -->
<a xlink:href="./health-record.html" target="_top" xmlns:xlink="http://www.w3.org/1999/xlink"><rect x="1045" y="315" width="150" height="75" fill="whitesmoke" stroke="black" stroke-width="2"><title>data repository regarding the health and care of a subject of care</title></rect></a><text x="1120" y="328" text-anchor="middle" font-family="Cambria" font-size="12" fill="black"><tspan x="1120" y="328">health record</tspan></text>
</g>
<g><!-- Association outputs output health state -->
<line x1="675" y1="432" x2="1045" y2="432" stroke="black" stroke-width="2" /><text x="695" y="428" text-anchor="start" font-family="Cambria" font-size="12" fill="black"><tspan x="695" y="428">1..*</tspan></text>
<text x="1023" y="428" text-anchor="end" font-family="Cambria" font-size="12" fill="black"><tspan x="1023" y="428">1</tspan></text>
<text x="860" y="448" text-anchor="middle" font-family="Cambria" font-size="12" fill="black"><tspan x="860" y="448">outputs</tspan></text>
</g>
<g><!-- output health state -->
<a xlink:href="./output-health-state.html" target="_top" xmlns:xlink="http://www.w3.org/1999/xlink"><rect x="1045" y="395" width="150" height="75" fill="whitesmoke" stroke="black" stroke-width="2"><title>health state at the end of a care process</title></rect></a><text x="1120" y="408" text-anchor="middle" font-family="Cambria" font-size="12" fill="black"><tspan x="1120" y="408">output health state</tspan></text>
</g>
<g><!-- Association performed for subject of care -->
<line x1="675" y1="512" x2="1045" y2="512" stroke="black" stroke-width="2" /><text x="695" y="508" text-anchor="start" font-family="Cambria" font-size="12" fill="black"><tspan x="695" y="508">1</tspan></text>
<text x="1023" y="508" text-anchor="end" font-family="Cambria" font-size="12" fill="black"><tspan x="1023" y="508">1..*</tspan></text>
<text x="860" y="528" text-anchor="middle" font-family="Cambria" font-size="12" fill="black"><tspan x="860" y="528">performed for</tspan></text>
</g>
<g><!-- subject of care -->
<a xlink:href="./subject-of-care.html" target="_top" xmlns:xlink="http://www.w3.org/1999/xlink"><rect x="1045" y="475" width="150" height="75" fill="whitesmoke" stroke="black" stroke-width="2"><title>person seeking to receive, receiving, or having received care</title></rect></a><text x="1120" y="488" text-anchor="middle" font-family="Cambria" font-size="12" fill="black"><tspan x="1120" y="488">subject of care</tspan></text>
</g>
<g><!-- Focal care process -->
<a xlink:href="./care-process.html" target="_top" xmlns:xlink="http://www.w3.org/1999/xlink"><rect x="525" y="155" width="150" height="400" fill="white" stroke="black" stroke-width="2"><title>set of interrelated or interacting care activities which transforms inputs into outputs</title></rect></a><text x="600" y="168" text-anchor="middle" font-family="Cambria" font-size="12" fill="black"><tspan x="600" y="168">care process</tspan></text>
</g>
<g><!-- continuity of care process -->
<a xlink:href="./continuity-of-care-process.html" target="_top" xmlns:xlink="http://www.w3.org/1999/xlink"><rect x="525" y="597" width="150" height="75" fill="white" stroke="black" stroke-width="2"><title>care process, encompassing all care provider activities and other prescribed care activities, that addresses identified or specified health issues</title></rect></a><text x="600" y="610" text-anchor="middle" font-family="Cambria" font-size="12" fill="black"><tspan x="600" y="610">continuity of care</tspan><tspan x="600" y="626">process</tspan></text>
</g>
<!-- Subclass row bus -->
<line x1="600" y1="577" x2="600" y2="577" stroke="black" stroke-width="2" /><!-- Subclass row vertical to focal -->
<line x1="600" y1="567" x2="600" y2="577" stroke="black" stroke-width="2" /><polygon points="600,557 595,567 605,567" fill="white" stroke="black" stroke-width="2" /><line x1="600" y1="577" x2="600" y2="597" stroke="black" stroke-width="2" /></svg>