<svg xmlns="http://www.w3.org/2000/svg" viewBox="0 0 1200 247" role="img" aria-labelledby="title desc"><title id="title">Class Diagram of care</title><desc id="desc">Generated diagram of focal class care and related classes.</desc><g><!-- Association care care activity -->
<line x1="155" y1="42" x2="525" y2="42" stroke="black" stroke-width="2" /><text x="175" y="38" text-anchor="start" font-family="Cambria" font-size="12" fill="black"><tspan x="175" y="38">1..*</tspan></text>
<text x="505" y="38" text-anchor="end" font-family="Cambria" font-size="12" fill="black"><tspan x="505" y="38">1..*</tspan></text>
<g transform="translate(509,42)"><polygon points="0,0 8,-6 16,0 8,6" fill="white" stroke="black" stroke-width="2" /></g></g>
<g><!-- care activity -->
<a xlink:href="./care-activity.html" target="_top" xmlns:xlink="http://www.w3.org/1999/xlink"><rect x="5" y="5" width="150" height="75" fill="whitesmoke" stroke="black" stroke-width="2"><title>activity intended to improve or maintain a health state </title></rect></a><text x="80" y="18" text-anchor="middle" font-family="Cambria" font-size="12" fill="black"><tspan x="80" y="18">care activity</tspan></text>
</g>
<g><!-- Association care resource -->
<line x1="155" y1="122" x2="525" y2="122" stroke="black" stroke-width="2" /><text x="175" y="118" text-anchor="start" font-family="Cambria" font-size="12" fill="black"><tspan x="175" y="118">1..*</tspan></text>
<text x="505" y="118" text-anchor="end" font-family="Cambria" font-size="12" fill="black"><tspan x="505" y="118">1..*</tspan></text>
<g transform="translate(509,122)"><polygon points="0,0 8,-6 16,0 8,6" fill="white" stroke="black" stroke-width="2" /></g></g>
<g><!-- resource -->
<a xlink:href="./resource.html" target="_top" xmlns:xlink="http://www.w3.org/1999/xlink"><rect x="5" y="85" width="150" height="75" fill="whitesmoke" stroke="black" stroke-width="2"><title>asset that is utilized or consumed during the execution of activities</title></rect></a><text x="80" y="98" text-anchor="middle" font-family="Cambria" font-size="12" fill="black"><tspan x="80" y="98">resource</tspan></text>
</g>
<g><!-- Association seeks to receive, is receiving, or has received subject of care -->
<line x1="155" y1="202" x2="525" y2="202" stroke="black" stroke-width="2" /><text x="175" y="198" text-anchor="start" font-family="Cambria" font-size="12" fill="black"><tspan x="175" y="198">1..*</tspan></text>
<text x="505" y="198" text-anchor="end" font-family="Cambria" font-size="12" fill="black"><tspan x="505" y="198">1..*</tspan></text>
<text x="340" y="218" text-anchor="middle" font-family="Cambria" font-size="12" fill="black"><tspan x="340" y="218">seeks to receive, is receiving, or has received</tspan></text>
</g>
<g><!-- subject of care -->
<a xlink:href="./subject-of-care.html" target="_top" xmlns:xlink="http://www.w3.org/1999/xlink"><rect x="5" y="165" width="150" height="75" fill="whitesmoke" stroke="black" stroke-width="2"><title>person seeking to receive, receiving, or having received care</title></rect></a><text x="80" y="178" text-anchor="middle" font-family="Cambria" font-size="12" fill="black"><tspan x="80" y="178">subject of care</tspan></text>
</g>
<g><!-- Focal care -->
<a xlink:href="./care.html" target="_top" xmlns:xlink="http://www.w3.org/1999/xlink"><rect x="525" y="5" width="150" height="240" fill="white" stroke="black" stroke-width="2"><title>provision of accommodations, comfort and treatment to an individual subject of care</title></rect></a><text x="600" y="18" text-anchor="middle" font-family="Cambria" font-size="12" fill="black"><tspan x="600" y="18">care</tspan></text>
</g>
</svg>