<svg xmlns="http://www.w3.org/2000/svg" viewBox="0 0 1200 317" role="img" aria-labelledby="title desc"><title id="title">Class Diagram of care personnel</title><desc id="desc">Generated diagram of focal class care personnel and related classes.</desc><!-- Super types of care personnel -->
<g><!-- care provider -->
<a xlink:href="./care-provider.html" target="_top" xmlns:xlink="http://www.w3.org/1999/xlink"><rect x="125" y="5" width="150" height="75" fill="white" stroke="black" stroke-width="2"><title>care actor that is able to be assigned one or more care period mandates</title></rect></a><text x="200" y="18" text-anchor="middle" font-family="Cambria" font-size="12" fill="black"><tspan x="200" y="18">care provider</tspan></text>
</g>
<!-- Generalization care personnel -> care provider -->
<line x1="600" y1="155" x2="600" y2="135" stroke="black" stroke-width="2" /><line x1="200" y1="82" x2="200" y2="135" stroke="black" stroke-width="2" /><line x1="600" y1="135" x2="200" y2="135" stroke="black" stroke-width="2" /><polygon points="200,82 195,92 205,92" fill="white" stroke="black" stroke-width="2" /><g><!-- care actor -->
<a xlink:href="./care-actor.html" target="_top" xmlns:xlink="http://www.w3.org/1999/xlink"><rect x="525" y="5" width="150" height="75" fill="white" stroke="black" stroke-width="2"><title>organization or person participating in care</title></rect></a><text x="600" y="18" text-anchor="middle" font-family="Cambria" font-size="12" fill="black"><tspan x="600" y="18">care actor</tspan></text>
</g>
<!-- Generalization care personnel -> care actor -->
<line x1="600" y1="155" x2="600" y2="135" stroke="black" stroke-width="2" /><line x1="600" y1="82" x2="600" y2="135" stroke="black" stroke-width="2" /><line x1="600" y1="135" x2="600" y2="135" stroke="black" stroke-width="2" /><polygon points="600,82 595,92 605,92" fill="white" stroke="black" stroke-width="2" /><g><!-- care resource -->
<a xlink:href="./care-resource.html" target="_top" xmlns:xlink="http://www.w3.org/1999/xlink"><rect x="925" y="5" width="150" height="75" fill="white" stroke="black" stroke-width="2"><title>resource needed to perform care activities</title></rect></a><text x="1000" y="18" text-anchor="middle" font-family="Cambria" font-size="12" fill="black"><tspan x="1000" y="18">care resource</tspan></text>
</g>
<!-- Generalization care personnel -> care resource -->
<line x1="600" y1="155" x2="600" y2="135" stroke="black" stroke-width="2" /><line x1="1000" y1="82" x2="1000" y2="135" stroke="black" stroke-width="2" /><line x1="600" y1="135" x2="1000" y2="135" stroke="black" stroke-width="2" /><polygon points="1000,82 995,92 1005,92" fill="white" stroke="black" stroke-width="2" /><g><!-- Association mandates care employment -->
<line x1="155" y1="192" x2="525" y2="192" stroke="black" stroke-width="2" /><text x="175" y="188" text-anchor="start" font-family="Cambria" font-size="12" fill="black"><tspan x="175" y="188">1</tspan></text>
<text x="505" y="188" text-anchor="end" font-family="Cambria" font-size="12" fill="black"><tspan x="505" y="188">1..*</tspan></text>
<text x="340" y="208" text-anchor="middle" font-family="Cambria" font-size="12" fill="black"><tspan x="340" y="208">mandates</tspan></text>
</g>
<g><!-- care employment -->
<a xlink:href="./care-employment.html" target="_top" xmlns:xlink="http://www.w3.org/1999/xlink"><rect x="5" y="155" width="150" height="75" fill="whitesmoke" stroke="black" stroke-width="2"><title>mandate given by a care organization to a care personnel describing the roles and responsibilities assigned to that care personnel</title></rect></a><text x="80" y="168" text-anchor="middle" font-family="Cambria" font-size="12" fill="black"><tspan x="80" y="168">care employment</tspan></text>
</g>
<g><!-- Association participates in care contact -->
<line x1="675" y1="192" x2="1045" y2="192" stroke="black" stroke-width="2" /><text x="695" y="188" text-anchor="start" font-family="Cambria" font-size="12" fill="black"><tspan x="695" y="188">1..*</tspan></text>
<text x="1023" y="188" text-anchor="end" font-family="Cambria" font-size="12" fill="black"><tspan x="1023" y="188">0..*</tspan></text>
<text x="860" y="208" text-anchor="middle" font-family="Cambria" font-size="12" fill="black"><tspan x="860" y="208">participates in</tspan></text>
</g>
<g><!-- care contact -->
<a xlink:href="./care-contact.html" target="_top" xmlns:xlink="http://www.w3.org/1999/xlink"><rect x="1045" y="155" width="150" height="75" fill="whitesmoke" stroke="black" stroke-width="2"><title>interaction between one or more subject of care and one or more care personnel</title></rect></a><text x="1120" y="168" text-anchor="middle" font-family="Cambria" font-size="12" fill="black"><tspan x="1120" y="168">care contact</tspan></text>
</g>
<g><!-- Association plays care performer -->
<line x1="675" y1="272" x2="1045" y2="272" stroke="black" stroke-width="2" /><text x="695" y="268" text-anchor="start" font-family="Cambria" font-size="12" fill="black"><tspan x="695" y="268">1..*</tspan></text>
<text x="1023" y="268" text-anchor="end" font-family="Cambria" font-size="12" fill="black"><tspan x="1023" y="268">0..*</tspan></text>
<text x="860" y="288" text-anchor="middle" font-family="Cambria" font-size="12" fill="black"><tspan x="860" y="288">plays</tspan></text>
</g>
<g><!-- care performer -->
<a xlink:href="./care-performer.html" target="_top" xmlns:xlink="http://www.w3.org/1999/xlink"><rect x="1045" y="235" width="150" height="75" fill="whitesmoke" stroke="black" stroke-width="2"><title>role adopted by care personnel when performing care</title></rect></a><text x="1120" y="248" text-anchor="middle" font-family="Cambria" font-size="12" fill="black"><tspan x="1120" y="248">care performer</tspan></text>
</g>
<g><!-- Focal care personnel -->
<a xlink:href="./care-personnel.html" target="_top" xmlns:xlink="http://www.w3.org/1999/xlink"><rect x="525" y="155" width="150" height="160" fill="white" stroke="black" stroke-width="2"><title>person holding a care employment from a care organization</title></rect></a><text x="600" y="168" text-anchor="middle" font-family="Cambria" font-size="12" fill="black"><tspan x="600" y="168">care personnel</tspan></text>
</g>
</svg>