<svg xmlns="http://www.w3.org/2000/svg" viewBox="0 0 1200 512" role="img" aria-labelledby="title desc"><title id="title">Class Diagram of care activity bundle</title><desc id="desc">Generated diagram of focal class care activity bundle and related classes.</desc><!-- Super types of care activity bundle -->
<g><!-- care activity -->
<a xlink:href="./care-activity.html" target="_top" xmlns:xlink="http://www.w3.org/1999/xlink"><rect x="525" y="5" width="150" height="75" fill="white" stroke="black" stroke-width="2"><title>activity intended to improve or maintain a health state </title></rect></a><text x="600" y="34" text-anchor="middle" font-family="Cambria" font-size="24.0625" fill="black"><tspan x="600" y="34">care</tspan><tspan x="600" y="62">activity</tspan></text>
</g>
<!-- Generalization care activity bundle -> care activity -->
<line x1="600" y1="155" x2="600" y2="135" stroke="black" stroke-width="2" /><line x1="600" y1="82" x2="600" y2="135" stroke="black" stroke-width="2" /><line x1="600" y1="135" x2="600" y2="135" stroke="black" stroke-width="2" /><polygon points="600,82 595,92 605,92" fill="white" stroke="black" stroke-width="2" /><!-- Self associations (pig's ear) adjacent to focal class -->
<g><!-- Self Association (adjacent) includes -->
<path d="M 677 174 L 752 174 L 752 210 L 677 210" fill="none" stroke="black" stroke-width="2" /><g transform="translate(677,174)"><polygon points="0,0 8,-6 16,0 8,6" fill="white" stroke="black" stroke-width="2" /></g><text x="699" y="170" text-anchor="start" font-family="Cambria" font-size="22" fill="black"><tspan x="699" y="170">0..*</tspan></text>
<text x="681" y="206" text-anchor="start" font-family="Cambria" font-size="22" fill="black"><tspan x="681" y="206">0..*</tspan></text>
<text x="756" y="192" text-anchor="start" font-family="Cambria" font-size="22" fill="black"><tspan x="756" y="192">includes</tspan></text>
</g>
<g><!-- Association care activities bundle care plan -->
<line x1="155" y1="192" x2="525" y2="192" stroke="black" stroke-width="2" /><text x="175" y="188" text-anchor="start" font-family="Cambria" font-size="22" fill="black"><tspan x="175" y="188">1..*</tspan></text>
<text x="505" y="188" text-anchor="end" font-family="Cambria" font-size="22" fill="black"><tspan x="505" y="188">0..*</tspan></text>
<g transform="translate(509,192)"><polygon points="0,0 8,-6 16,0 8,6" fill="white" stroke="black" stroke-width="2" /></g><text x="340" y="208" text-anchor="middle" font-family="Cambria" font-size="22" fill="black"><tspan x="340" y="208">care activities bundle</tspan></text>
</g>
<g><!-- care plan -->
<a xlink:href="./care-plan.html" target="_top" xmlns:xlink="http://www.w3.org/1999/xlink"><rect x="5" y="155" width="150" height="75" fill="whitesmoke" stroke="black" stroke-width="2"><title>dynamic, personalized plan including identified needed care activity, health objectives and care goals, relating to one or more specified health needs in a care process</title></rect></a><text x="80" y="185" text-anchor="middle" font-family="Cambria" font-size="25" fill="black"><tspan x="80" y="185">care plan</tspan></text>
</g>
<g><!-- Association care activity care activity -->
<line x1="675" y1="272" x2="1045" y2="272" stroke="black" stroke-width="2" /><text x="695" y="268" text-anchor="start" font-family="Cambria" font-size="22" fill="black"><tspan x="695" y="268">0..1</tspan></text>
<text x="1023" y="268" text-anchor="end" font-family="Cambria" font-size="22" fill="black"><tspan x="1023" y="268">1..*</tspan></text>
<g transform="translate(1029,272)"><polygon points="0,0 8,-6 16,0 8,6" fill="white" stroke="black" stroke-width="2" /></g></g>
<g><!-- care activity -->
<a xlink:href="./care-activity.html" target="_top" xmlns:xlink="http://www.w3.org/1999/xlink"><rect x="1045" y="235" width="150" height="75" fill="white" stroke="black" stroke-width="2"><title>activity intended to improve or maintain a health state </title></rect></a><text x="1120" y="264" text-anchor="middle" font-family="Cambria" font-size="24.0625" fill="black"><tspan x="1120" y="264">care</tspan><tspan x="1120" y="292">activity</tspan></text>
</g>
<g><!-- Focal care activity bundle -->
<a xlink:href="./care-activity-bundle.html" target="_top" xmlns:xlink="http://www.w3.org/1999/xlink"><rect x="525" y="155" width="150" height="160" fill="white" stroke="black" stroke-width="2"><title>set of care activities</title></rect></a><text x="600" y="185" text-anchor="middle" font-family="Cambria" font-size="25" fill="black"><tspan x="600" y="185">care</tspan><tspan x="600" y="215">activity</tspan><tspan x="600" y="245">bundle</tspan></text>
</g>
<g><!-- needed care activity -->
<a xlink:href="./needed-care-activity.html" target="_top" xmlns:xlink="http://www.w3.org/1999/xlink"><rect x="525" y="357" width="150" height="75" fill="white" stroke="black" stroke-width="2"><title>care activity bundle which includes those care activities assessed as needed to address specified health need</title></rect></a><text x="600" y="382" text-anchor="middle" font-family="Cambria" font-size="20.9375" fill="black"><tspan x="600" y="382">needed care</tspan><tspan x="600" y="407">activity</tspan></text>
</g>
<!-- Subclass row bus -->
<line x1="600" y1="337" x2="600" y2="337" stroke="black" stroke-width="2" /><!-- Subclass row vertical to focal -->
<line x1="600" y1="327" x2="600" y2="337" stroke="black" stroke-width="2" /><polygon points="600,317 595,327 605,327" fill="white" stroke="black" stroke-width="2" /><line x1="600" y1="337" x2="600" y2="357" stroke="black" stroke-width="2" /></svg>