<svg xmlns="http://www.w3.org/2000/svg" viewBox="0 0 1200 1392" role="img" aria-labelledby="title desc"><title id="title">Class Diagram of care activity</title><desc id="desc">Generated diagram of focal class care activity and related classes.</desc><!-- Super types of care activity -->
<g><!-- event -->
<a xlink:href="./event.html" target="_top" xmlns:xlink="http://www.w3.org/1999/xlink"><rect x="525" y="5" width="150" height="75" fill="white" stroke="black" stroke-width="2"><title>situation considered to occur at a time point</title></rect></a><text x="600" y="35" text-anchor="middle" font-family="Cambria" font-size="25" fill="black"><tspan x="600" y="35">event</tspan></text>
</g>
<!-- Generalization care activity -> event -->
<line x1="600" y1="155" x2="600" y2="135" stroke="black" stroke-width="2" /><line x1="600" y1="82" x2="600" y2="135" stroke="black" stroke-width="2" /><line x1="600" y1="135" x2="600" y2="135" stroke="black" stroke-width="2" /><polygon points="600,82 595,92 605,92" fill="white" stroke="black" stroke-width="2" /><!-- Self associations (pig's ear) adjacent to focal class -->
<g><!-- Self Association (adjacent) care activity -->
<path d="M 677 174 L 752 174 L 752 210 L 677 210" fill="none" stroke="black" stroke-width="2" /><g transform="translate(677,174)"><polygon points="0,0 8,-6 16,0 8,6" fill="white" stroke="black" stroke-width="2" /></g><text x="699" y="170" text-anchor="start" font-family="Cambria" font-size="22" fill="black"><tspan x="699" y="170">1..*</tspan></text>
<text x="681" y="206" text-anchor="start" font-family="Cambria" font-size="22" fill="black"><tspan x="681" y="206">0..*</tspan></text>
</g>
<g><!-- Association initiated during automated care -->
<line x1="155" y1="192" x2="525" y2="192" stroke="black" stroke-width="2" /><text x="175" y="188" text-anchor="start" font-family="Cambria" font-size="22" fill="black"><tspan x="175" y="188">1</tspan></text>
<text x="505" y="188" text-anchor="end" font-family="Cambria" font-size="22" fill="black"><tspan x="505" y="188">0..*</tspan></text>
<text x="340" y="208" text-anchor="middle" font-family="Cambria" font-size="22" fill="black"><tspan x="340" y="208">initiated during</tspan></text>
</g>
<g><!-- Association terminated during automated care -->
<line x1="155" y1="267" x2="525" y2="267" stroke="black" stroke-width="2" /><text x="175" y="263" text-anchor="start" font-family="Cambria" font-size="22" fill="black"><tspan x="175" y="263">1</tspan></text>
<text x="505" y="263" text-anchor="end" font-family="Cambria" font-size="22" fill="black"><tspan x="505" y="263">0..*</tspan></text>
<text x="340" y="283" text-anchor="middle" font-family="Cambria" font-size="22" fill="black"><tspan x="340" y="283">terminated during</tspan></text>
</g>
<g><!-- Association reviewed during automated care -->
<line x1="155" y1="342" x2="525" y2="342" stroke="black" stroke-width="2" /><text x="175" y="338" text-anchor="start" font-family="Cambria" font-size="22" fill="black"><tspan x="175" y="338">1..*</tspan></text>
<text x="505" y="338" text-anchor="end" font-family="Cambria" font-size="22" fill="black"><tspan x="505" y="338">0..*</tspan></text>
<text x="340" y="358" text-anchor="middle" font-family="Cambria" font-size="22" fill="black"><tspan x="340" y="358">reviewed during</tspan></text>
</g>
<g><!-- automated care -->
<a xlink:href="./automated-care.html" target="_top" xmlns:xlink="http://www.w3.org/1999/xlink"><rect x="5" y="155" width="150" height="225" fill="white" stroke="black" stroke-width="2"><title>care initiated by a care actor and thereafter delivered by an automatic medical device</title></rect></a><text x="80" y="185" text-anchor="middle" font-family="Cambria" font-size="25" fill="black"><tspan x="80" y="185">automated</tspan><tspan x="80" y="215">care</tspan></text>
</g>
<g><!-- Association care activity care activity bundle -->
<line x1="155" y1="422" x2="525" y2="422" stroke="black" stroke-width="2" /><text x="175" y="418" text-anchor="start" font-family="Cambria" font-size="22" fill="black"><tspan x="175" y="418">0..1</tspan></text>
<text x="505" y="418" text-anchor="end" font-family="Cambria" font-size="22" fill="black"><tspan x="505" y="418">1..*</tspan></text>
<g transform="translate(509,422)"><polygon points="0,0 8,-6 16,0 8,6" fill="white" stroke="black" stroke-width="2" /></g></g>
<g><!-- care activity bundle -->
<a xlink:href="./care-activity-bundle.html" target="_top" xmlns:xlink="http://www.w3.org/1999/xlink"><rect x="5" y="385" width="150" height="75" fill="white" stroke="black" stroke-width="2"><title>set of care activities</title></rect></a><text x="80" y="407" text-anchor="middle" font-family="Cambria" font-size="17.8125" fill="black"><tspan x="80" y="407">care activity</tspan><tspan x="80" y="428">bundle</tspan></text>
</g>
<g><!-- Association manages care activity management -->
<line x1="155" y1="502" x2="525" y2="502" stroke="black" stroke-width="2" /><text x="175" y="498" text-anchor="start" font-family="Cambria" font-size="22" fill="black"><tspan x="175" y="498">1..*</tspan></text>
<text x="505" y="498" text-anchor="end" font-family="Cambria" font-size="22" fill="black"><tspan x="505" y="498">1..*</tspan></text>
<text x="340" y="518" text-anchor="middle" font-family="Cambria" font-size="22" fill="black"><tspan x="340" y="518">manages</tspan></text>
</g>
<g><!-- care activity management -->
<a xlink:href="./care-activity-management.html" target="_top" xmlns:xlink="http://www.w3.org/1999/xlink"><rect x="5" y="465" width="150" height="75" fill="white" stroke="black" stroke-width="2"><title>care activity during which the status of care activities in a care plan are changed</title></rect></a><text x="80" y="487" text-anchor="middle" font-family="Cambria" font-size="17.8125" fill="black"><tspan x="80" y="487">care activity</tspan><tspan x="80" y="508">management</tspan></text>
</g>
<g><!-- Association performs care actor -->
<line x1="155" y1="582" x2="525" y2="582" stroke="black" stroke-width="2" /><text x="175" y="578" text-anchor="start" font-family="Cambria" font-size="22" fill="black"><tspan x="175" y="578">0..*</tspan></text>
<text x="505" y="578" text-anchor="end" font-family="Cambria" font-size="22" fill="black"><tspan x="505" y="578">1..*</tspan></text>
<text x="340" y="598" text-anchor="middle" font-family="Cambria" font-size="22" fill="black"><tspan x="340" y="598">performs</tspan></text>
</g>
<g><!-- care actor -->
<a xlink:href="./care-actor.html" target="_top" xmlns:xlink="http://www.w3.org/1999/xlink"><rect x="5" y="545" width="150" height="75" fill="whitesmoke" stroke="black" stroke-width="2"><title>organization or person participating in care</title></rect></a><text x="80" y="574" text-anchor="middle" font-family="Cambria" font-size="24.0625" fill="black"><tspan x="80" y="574">care</tspan><tspan x="80" y="602">actor</tspan></text>
</g>
<g><!-- Association relates to the provision of care commitment -->
<line x1="155" y1="662" x2="525" y2="662" stroke="black" stroke-width="2" /><text x="175" y="658" text-anchor="start" font-family="Cambria" font-size="22" fill="black"><tspan x="175" y="658">1..*</tspan></text>
<text x="505" y="658" text-anchor="end" font-family="Cambria" font-size="22" fill="black"><tspan x="505" y="658">0..*</tspan></text>
<text x="340" y="678" text-anchor="middle" font-family="Cambria" font-size="22" fill="black"><tspan x="340" y="678">relates to the provision of</tspan></text>
</g>
<g><!-- care commitment -->
<a xlink:href="./care-commitment.html" target="_top" xmlns:xlink="http://www.w3.org/1999/xlink"><rect x="5" y="625" width="150" height="75" fill="whitesmoke" stroke="black" stroke-width="2"><title>acceptance of a care request including commitment by the care actor to perform requested care activities</title></rect></a><text x="80" y="654" text-anchor="middle" font-family="Cambria" font-size="24.0625" fill="black"><tspan x="80" y="654">care</tspan><tspan x="80" y="682">commitment</tspan></text>
</g>
<g><!-- Association evaluates aspects of care evaluation -->
<line x1="155" y1="742" x2="525" y2="742" stroke="black" stroke-width="2" /><text x="175" y="738" text-anchor="start" font-family="Cambria" font-size="22" fill="black"><tspan x="175" y="738">1..*</tspan></text>
<text x="505" y="738" text-anchor="end" font-family="Cambria" font-size="22" fill="black"><tspan x="505" y="738">0..*</tspan></text>
<text x="340" y="758" text-anchor="middle" font-family="Cambria" font-size="22" fill="black"><tspan x="340" y="758">evaluates aspects of</tspan></text>
</g>
<g><!-- care evaluation -->
<a xlink:href="./care-evaluation.html" target="_top" xmlns:xlink="http://www.w3.org/1999/xlink"><rect x="5" y="705" width="150" height="75" fill="white" stroke="black" stroke-width="2"><title>care activity where aspects of at least one other care activity are evaluated</title></rect></a><text x="80" y="734" text-anchor="middle" font-family="Cambria" font-size="24.0625" fill="black"><tspan x="80" y="734">care</tspan><tspan x="80" y="762">evaluation</tspan></text>
</g>
<g><!-- Association delivers care performer -->
<line x1="155" y1="822" x2="525" y2="822" stroke="black" stroke-width="2" /><text x="175" y="818" text-anchor="start" font-family="Cambria" font-size="22" fill="black"><tspan x="175" y="818">1..*</tspan></text>
<text x="505" y="818" text-anchor="end" font-family="Cambria" font-size="22" fill="black"><tspan x="505" y="818">1..*</tspan></text>
<text x="340" y="838" text-anchor="middle" font-family="Cambria" font-size="22" fill="black"><tspan x="340" y="838">delivers</tspan></text>
</g>
<g><!-- care performer -->
<a xlink:href="./care-performer.html" target="_top" xmlns:xlink="http://www.w3.org/1999/xlink"><rect x="5" y="785" width="150" height="75" fill="whitesmoke" stroke="black" stroke-width="2"><title>role adopted by care personnel when performing care</title></rect></a><text x="80" y="814" text-anchor="middle" font-family="Cambria" font-size="24.0625" fill="black"><tspan x="80" y="814">care</tspan><tspan x="80" y="842">performer</tspan></text>
</g>
<g><!-- Association accessed during health record -->
<line x1="155" y1="902" x2="525" y2="902" stroke="black" stroke-width="2" /><text x="175" y="898" text-anchor="start" font-family="Cambria" font-size="22" fill="black"><tspan x="175" y="898">0..*</tspan></text>
<text x="505" y="898" text-anchor="end" font-family="Cambria" font-size="22" fill="black"><tspan x="505" y="898">0..*</tspan></text>
<text x="340" y="918" text-anchor="middle" font-family="Cambria" font-size="22" fill="black"><tspan x="340" y="918">accessed during</tspan></text>
</g>
<g><!-- health record -->
<a xlink:href="./health-record.html" target="_top" xmlns:xlink="http://www.w3.org/1999/xlink"><rect x="5" y="865" width="150" height="75" fill="whitesmoke" stroke="black" stroke-width="2"><title>data repository regarding the health and care of a subject of care</title></rect></a><text x="80" y="894" text-anchor="middle" font-family="Cambria" font-size="24.0625" fill="black"><tspan x="80" y="894">health</tspan><tspan x="80" y="922">record</tspan></text>
</g>
<g><!-- Association care care -->
<line x1="675" y1="272" x2="1045" y2="272" stroke="black" stroke-width="2" /><text x="695" y="268" text-anchor="start" font-family="Cambria" font-size="22" fill="black"><tspan x="695" y="268">1..*</tspan></text>
<text x="1023" y="268" text-anchor="end" font-family="Cambria" font-size="22" fill="black"><tspan x="1023" y="268">1..*</tspan></text>
<g transform="translate(1029,272)"><polygon points="0,0 8,-6 16,0 8,6" fill="white" stroke="black" stroke-width="2" /></g></g>
<g><!-- care -->
<a xlink:href="./care.html" target="_top" xmlns:xlink="http://www.w3.org/1999/xlink"><rect x="1045" y="235" width="150" height="75" fill="whitesmoke" stroke="black" stroke-width="2"><title>provision of accommodations, comfort and treatment to an individual subject of care</title></rect></a><text x="1120" y="265" text-anchor="middle" font-family="Cambria" font-size="25" fill="black"><tspan x="1120" y="265">care</tspan></text>
</g>
<g><!-- Association performed during care activity period -->
<line x1="675" y1="352" x2="1045" y2="352" stroke="black" stroke-width="2" /><text x="695" y="348" text-anchor="start" font-family="Cambria" font-size="22" fill="black"><tspan x="695" y="348">1..*</tspan></text>
<text x="1023" y="348" text-anchor="end" font-family="Cambria" font-size="22" fill="black"><tspan x="1023" y="348">1..*</tspan></text>
<text x="860" y="368" text-anchor="middle" font-family="Cambria" font-size="22" fill="black"><tspan x="860" y="368">performed during</tspan></text>
</g>
<g><!-- care activity period -->
<a xlink:href="./care-activity-period.html" target="_top" xmlns:xlink="http://www.w3.org/1999/xlink"><rect x="1045" y="315" width="150" height="75" fill="whitesmoke" stroke="black" stroke-width="2"><title>period during which care activities are performed for a subject of care</title></rect></a><text x="1120" y="337" text-anchor="middle" font-family="Cambria" font-size="17.8125" fill="black"><tspan x="1120" y="337">care activity</tspan><tspan x="1120" y="358">period</tspan></text>
</g>
<g><!-- Association targets care goal -->
<line x1="675" y1="432" x2="1045" y2="432" stroke="black" stroke-width="2" /><text x="695" y="428" text-anchor="start" font-family="Cambria" font-size="22" fill="black"><tspan x="695" y="428">1..*</tspan></text>
<text x="1023" y="428" text-anchor="end" font-family="Cambria" font-size="22" fill="black"><tspan x="1023" y="428">1..*</tspan></text>
<text x="860" y="448" text-anchor="middle" font-family="Cambria" font-size="22" fill="black"><tspan x="860" y="448">targets</tspan></text>
</g>
<g><!-- care goal -->
<a xlink:href="./care-goal.html" target="_top" xmlns:xlink="http://www.w3.org/1999/xlink"><rect x="1045" y="395" width="150" height="75" fill="whitesmoke" stroke="black" stroke-width="2"><title>desired achievement of one or more care activities</title></rect></a><text x="1120" y="425" text-anchor="middle" font-family="Cambria" font-size="25" fill="black"><tspan x="1120" y="425">care goal</tspan></text>
</g>
<g><!-- Association care process care process -->
<line x1="675" y1="512" x2="1045" y2="512" stroke="black" stroke-width="2" /><text x="695" y="508" text-anchor="start" font-family="Cambria" font-size="22" fill="black"><tspan x="695" y="508">1..*</tspan></text>
<text x="1023" y="508" text-anchor="end" font-family="Cambria" font-size="22" fill="black"><tspan x="1023" y="508">1..*</tspan></text>
<g transform="translate(1029,512)"><polygon points="0,0 8,-6 16,0 8,6" fill="black" stroke="black" stroke-width="2" /></g></g>
<g><!-- care process -->
<a xlink:href="./care-process.html" target="_top" xmlns:xlink="http://www.w3.org/1999/xlink"><rect x="1045" y="475" width="150" height="75" fill="whitesmoke" stroke="black" stroke-width="2"><title>set of interrelated or interacting care activities which transforms inputs into outputs</title></rect></a><text x="1120" y="504" text-anchor="middle" font-family="Cambria" font-size="24.0625" fill="black"><tspan x="1120" y="504">care</tspan><tspan x="1120" y="532">process</tspan></text>
</g>
<g><!-- Association requires care resource -->
<line x1="675" y1="592" x2="1045" y2="592" stroke="black" stroke-width="2" /><text x="695" y="588" text-anchor="start" font-family="Cambria" font-size="22" fill="black"><tspan x="695" y="588">1..*</tspan></text>
<text x="1023" y="588" text-anchor="end" font-family="Cambria" font-size="22" fill="black"><tspan x="1023" y="588">0..*</tspan></text>
<text x="860" y="608" text-anchor="middle" font-family="Cambria" font-size="22" fill="black"><tspan x="860" y="608">requires</tspan></text>
</g>
<g><!-- care resource -->
<a xlink:href="./care-resource.html" target="_top" xmlns:xlink="http://www.w3.org/1999/xlink"><rect x="1045" y="555" width="150" height="75" fill="whitesmoke" stroke="black" stroke-width="2"><title>resource needed to perform care activities</title></rect></a><text x="1120" y="584" text-anchor="middle" font-family="Cambria" font-size="24.0625" fill="black"><tspan x="1120" y="584">care</tspan><tspan x="1120" y="612">resource</tspan></text>
</g>
<g><!-- Association recorded in health record -->
<line x1="675" y1="672" x2="1045" y2="672" stroke="black" stroke-width="2" /><text x="695" y="668" text-anchor="start" font-family="Cambria" font-size="22" fill="black"><tspan x="695" y="668">1..*</tspan></text>
<text x="1023" y="668" text-anchor="end" font-family="Cambria" font-size="22" fill="black"><tspan x="1023" y="668">1..*</tspan></text>
<text x="860" y="688" text-anchor="middle" font-family="Cambria" font-size="22" fill="black"><tspan x="860" y="688">recorded in</tspan></text>
</g>
<g><!-- health record -->
<a xlink:href="./health-record.html" target="_top" xmlns:xlink="http://www.w3.org/1999/xlink"><rect x="1045" y="635" width="150" height="75" fill="whitesmoke" stroke="black" stroke-width="2"><title>data repository regarding the health and care of a subject of care</title></rect></a><text x="1120" y="664" text-anchor="middle" font-family="Cambria" font-size="24.0625" fill="black"><tspan x="1120" y="664">health</tspan><tspan x="1120" y="692">record</tspan></text>
</g>
<g><!-- Association performed at point of care -->
<line x1="675" y1="752" x2="1045" y2="752" stroke="black" stroke-width="2" /><text x="695" y="748" text-anchor="start" font-family="Cambria" font-size="22" fill="black"><tspan x="695" y="748">1..*</tspan></text>
<text x="1023" y="748" text-anchor="end" font-family="Cambria" font-size="22" fill="black"><tspan x="1023" y="748">0..*</tspan></text>
<text x="860" y="768" text-anchor="middle" font-family="Cambria" font-size="22" fill="black"><tspan x="860" y="768">performed at</tspan></text>
</g>
<g><!-- point of care -->
<a xlink:href="./point-of-care.html" target="_top" xmlns:xlink="http://www.w3.org/1999/xlink"><rect x="1045" y="715" width="150" height="75" fill="whitesmoke" stroke="black" stroke-width="2"><title>location where direct care activities are performed</title></rect></a><text x="1120" y="744" text-anchor="middle" font-family="Cambria" font-size="24.0625" fill="black"><tspan x="1120" y="744">point of</tspan><tspan x="1120" y="772">care</tspan></text>
</g>
<g><!-- Association for subject of care -->
<line x1="675" y1="832" x2="1045" y2="832" stroke="black" stroke-width="2" /><text x="695" y="828" text-anchor="start" font-family="Cambria" font-size="22" fill="black"><tspan x="695" y="828">0..*</tspan></text>
<text x="1023" y="828" text-anchor="end" font-family="Cambria" font-size="22" fill="black"><tspan x="1023" y="828">1</tspan></text>
<text x="860" y="848" text-anchor="middle" font-family="Cambria" font-size="22" fill="black"><tspan x="860" y="848">for</tspan></text>
</g>
<g><!-- subject of care -->
<a xlink:href="./subject-of-care.html" target="_top" xmlns:xlink="http://www.w3.org/1999/xlink"><rect x="1045" y="795" width="150" height="75" fill="whitesmoke" stroke="black" stroke-width="2"><title>person seeking to receive, receiving, or having received care</title></rect></a><text x="1120" y="824" text-anchor="middle" font-family="Cambria" font-size="24.0625" fill="black"><tspan x="1120" y="824">subject</tspan><tspan x="1120" y="852">of care</tspan></text>
</g>
<g><!-- Focal care activity -->
<a xlink:href="./care-activity.html" target="_top" xmlns:xlink="http://www.w3.org/1999/xlink"><rect x="525" y="155" width="150" height="790" fill="white" stroke="black" stroke-width="2"><title>activity intended to improve or maintain a health state </title></rect></a><text x="600" y="185" text-anchor="middle" font-family="Cambria" font-size="25" fill="black"><tspan x="600" y="185">care</tspan><tspan x="600" y="215">activity</tspan></text>
</g>
<g><!-- care assessment -->
<a xlink:href="./care-assessment.html" target="_top" xmlns:xlink="http://www.w3.org/1999/xlink"><rect x="25" y="987" width="150" height="75" fill="white" stroke="black" stroke-width="2"><title>care activity where an opinion is formed about health conditions of a subject of care</title></rect></a><text x="100" y="1016" text-anchor="middle" font-family="Cambria" font-size="24.0625" fill="black"><tspan x="100" y="1016">care</tspan><tspan x="100" y="1044">assessment</tspan></text>
</g>
<g><!-- care communication -->
<a xlink:href="./care-communication.html" target="_top" xmlns:xlink="http://www.w3.org/1999/xlink"><rect x="225" y="987" width="150" height="75" fill="white" stroke="black" stroke-width="2"><title>care activity where at least two care actors communicate</title></rect></a><text x="300" y="1016" text-anchor="middle" font-family="Cambria" font-size="24.0625" fill="black"><tspan x="300" y="1016">care</tspan><tspan x="300" y="1044">communication</tspan></text>
</g>
<g><!-- self-care -->
<a xlink:href="./self-care.html" target="_top" xmlns:xlink="http://www.w3.org/1999/xlink"><rect x="425" y="987" width="150" height="75" fill="white" stroke="black" stroke-width="2"><title>care activity performed by the subject of care</title></rect></a><text x="500" y="1017" text-anchor="middle" font-family="Cambria" font-size="25" fill="black"><tspan x="500" y="1017">self-care</tspan></text>
</g>
<g><!-- care treatment -->
<a xlink:href="./care-treatment.html" target="_top" xmlns:xlink="http://www.w3.org/1999/xlink"><rect x="625" y="987" width="150" height="75" fill="white" stroke="black" stroke-width="2"><title>care activity intended to directly improve or maintain a health state</title></rect></a><text x="700" y="1016" text-anchor="middle" font-family="Cambria" font-size="24.0625" fill="black"><tspan x="700" y="1016">care</tspan><tspan x="700" y="1044">treatment</tspan></text>
</g>
<g><!-- care third party activity -->
<a xlink:href="./care-third-party-activity.html" target="_top" xmlns:xlink="http://www.w3.org/1999/xlink"><rect x="825" y="987" width="150" height="75" fill="white" stroke="black" stroke-width="2"><title>care activity performed by a care third party</title></rect></a><text x="900" y="1008" text-anchor="middle" font-family="Cambria" font-size="16.5625" fill="black"><tspan x="900" y="1008">care third</tspan><tspan x="900" y="1027">party activity</tspan></text>
</g>
<g><!-- automated care -->
<a xlink:href="./automated-care.html" target="_top" xmlns:xlink="http://www.w3.org/1999/xlink"><rect x="1025" y="987" width="150" height="75" fill="white" stroke="black" stroke-width="2"><title>care initiated by a care actor and thereafter delivered by an automatic medical device</title></rect></a><text x="1100" y="1016" text-anchor="middle" font-family="Cambria" font-size="24.0625" fill="black"><tspan x="1100" y="1016">automated</tspan><tspan x="1100" y="1044">care</tspan></text>
</g>
<!-- Subclass row bus -->
<line x1="100" y1="967" x2="1100" y2="967" stroke="black" stroke-width="2" /><!-- Subclass row vertical to focal -->
<line x1="600" y1="957" x2="600" y2="967" stroke="black" stroke-width="2" /><polygon points="600,947 595,957 605,957" fill="white" stroke="black" stroke-width="2" /><line x1="100" y1="967" x2="100" y2="987" stroke="black" stroke-width="2" /><line x1="300" y1="967" x2="300" y2="987" stroke="black" stroke-width="2" /><line x1="500" y1="967" x2="500" y2="987" stroke="black" stroke-width="2" /><line x1="700" y1="967" x2="700" y2="987" stroke="black" stroke-width="2" /><line x1="900" y1="967" x2="900" y2="987" stroke="black" stroke-width="2" /><line x1="1100" y1="967" x2="1100" y2="987" stroke="black" stroke-width="2" /><g><!-- care evaluation -->
<a xlink:href="./care-evaluation.html" target="_top" xmlns:xlink="http://www.w3.org/1999/xlink"><rect x="25" y="1112" width="150" height="75" fill="white" stroke="black" stroke-width="2"><title>care activity where aspects of at least one other care activity are evaluated</title></rect></a><text x="100" y="1141" text-anchor="middle" font-family="Cambria" font-size="24.0625" fill="black"><tspan x="100" y="1141">care</tspan><tspan x="100" y="1169">evaluation</tspan></text>
</g>
<g><!-- social care -->
<a xlink:href="./social-care.html" target="_top" xmlns:xlink="http://www.w3.org/1999/xlink"><rect x="225" y="1112" width="150" height="75" fill="white" stroke="black" stroke-width="2"><title>care activity supporting a subject of care to live in their social environment</title></rect></a><text x="300" y="1141" text-anchor="middle" font-family="Cambria" font-size="24.0625" fill="black"><tspan x="300" y="1141">social</tspan><tspan x="300" y="1169">care</tspan></text>
</g>
<g><!-- care provider activity -->
<a xlink:href="./care-provider-activity.html" target="_top" xmlns:xlink="http://www.w3.org/1999/xlink"><rect x="425" y="1112" width="150" height="75" fill="white" stroke="black" stroke-width="2"><title>care activity performed by a care provider</title></rect></a><text x="500" y="1134" text-anchor="middle" font-family="Cambria" font-size="17.8125" fill="black"><tspan x="500" y="1134">care provider</tspan><tspan x="500" y="1155">activity</tspan></text>
</g>
<g><!-- care documenting -->
<a xlink:href="./care-documenting.html" target="_top" xmlns:xlink="http://www.w3.org/1999/xlink"><rect x="625" y="1112" width="150" height="75" fill="white" stroke="black" stroke-width="2"><title>care activity where health records are created or maintained</title></rect></a><text x="700" y="1141" text-anchor="middle" font-family="Cambria" font-size="24.0625" fill="black"><tspan x="700" y="1141">care</tspan><tspan x="700" y="1169">documenting</tspan></text>
</g>
<g><!-- care investigation -->
<a xlink:href="./care-investigation.html" target="_top" xmlns:xlink="http://www.w3.org/1999/xlink"><rect x="825" y="1112" width="150" height="75" fill="white" stroke="black" stroke-width="2"><title>care activity with the intention to clarify one or more health conditions of a subject of care</title></rect></a><text x="900" y="1141" text-anchor="middle" font-family="Cambria" font-size="24.0625" fill="black"><tspan x="900" y="1141">care</tspan><tspan x="900" y="1169">investigation</tspan></text>
</g>
<g><!-- clinical care -->
<a xlink:href="./clinical-care.html" target="_top" xmlns:xlink="http://www.w3.org/1999/xlink"><rect x="1025" y="1112" width="150" height="75" fill="white" stroke="black" stroke-width="2"><title>care activity concerned with physical or mental health needs</title></rect></a><text x="1100" y="1141" text-anchor="middle" font-family="Cambria" font-size="24.0625" fill="black"><tspan x="1100" y="1141">clinical</tspan><tspan x="1100" y="1169">care</tspan></text>
</g>
<!-- Subclass row bus -->
<line x1="100" y1="1092" x2="1100" y2="1092" stroke="black" stroke-width="2" /><!-- Subclass row vertical to focal -->
<line x1="600" y1="957" x2="600" y2="1092" stroke="black" stroke-width="2" /><line x1="100" y1="1092" x2="100" y2="1112" stroke="black" stroke-width="2" /><line x1="300" y1="1092" x2="300" y2="1112" stroke="black" stroke-width="2" /><line x1="500" y1="1092" x2="500" y2="1112" stroke="black" stroke-width="2" /><line x1="700" y1="1092" x2="700" y2="1112" stroke="black" stroke-width="2" /><line x1="900" y1="1092" x2="900" y2="1112" stroke="black" stroke-width="2" /><line x1="1100" y1="1092" x2="1100" y2="1112" stroke="black" stroke-width="2" /><g><!-- adverse event management -->
<a xlink:href="./adverse-event-management.html" target="_top" xmlns:xlink="http://www.w3.org/1999/xlink"><rect x="75" y="1237" width="150" height="75" fill="white" stroke="black" stroke-width="2"><title>set of care activities performed in response to an adverse event</title></rect></a><text x="150" y="1259" text-anchor="middle" font-family="Cambria" font-size="17.8125" fill="black"><tspan x="150" y="1259">adverse event</tspan><tspan x="150" y="1280">management</tspan></text>
</g>
<g><!-- care activity bundle -->
<a xlink:href="./care-activity-bundle.html" target="_top" xmlns:xlink="http://www.w3.org/1999/xlink"><rect x="375" y="1237" width="150" height="75" fill="white" stroke="black" stroke-width="2"><title>set of care activities</title></rect></a><text x="450" y="1259" text-anchor="middle" font-family="Cambria" font-size="17.8125" fill="black"><tspan x="450" y="1259">care activity</tspan><tspan x="450" y="1280">bundle</tspan></text>
</g>
<g><!-- care activity management -->
<a xlink:href="./care-activity-management.html" target="_top" xmlns:xlink="http://www.w3.org/1999/xlink"><rect x="975" y="1237" width="150" height="75" fill="white" stroke="black" stroke-width="2"><title>care activity during which the status of care activities in a care plan are changed</title></rect></a><text x="1050" y="1259" text-anchor="middle" font-family="Cambria" font-size="17.8125" fill="black"><tspan x="1050" y="1259">care activity</tspan><tspan x="1050" y="1280">management</tspan></text>
</g>
<!-- Subclass row bus -->
<line x1="150" y1="1217" x2="1050" y2="1217" stroke="black" stroke-width="2" /><!-- Subclass row vertical to focal -->
<line x1="600" y1="957" x2="600" y2="1217" stroke="black" stroke-width="2" /><line x1="150" y1="1217" x2="150" y2="1237" stroke="black" stroke-width="2" /><line x1="450" y1="1217" x2="450" y2="1237" stroke="black" stroke-width="2" /><line x1="1050" y1="1217" x2="1050" y2="1237" stroke="black" stroke-width="2" /></svg>