<svg xmlns="http://www.w3.org/2000/svg" viewBox="0 0 1200 512" role="img" aria-labelledby="title desc"><title id="title">Class Diagram of care third party activity</title><desc id="desc">Generated diagram of focal class care third party activity and related classes.</desc><!-- Super types of care third party activity -->
<g><!-- care activity -->
<a xlink:href="./care-activity.html" target="_top" xmlns:xlink="http://www.w3.org/1999/xlink"><rect x="525" y="5" width="150" height="75" fill="white" stroke="black" stroke-width="2"><title>activity intended to improve or maintain a health state </title></rect></a><text x="600" y="34" text-anchor="middle" font-family="Cambria" font-size="24.0625" fill="black"><tspan x="600" y="34">care</tspan><tspan x="600" y="62">activity</tspan></text>
</g>
<!-- Generalization care third party activity -> care activity -->
<line x1="600" y1="155" x2="600" y2="135" stroke="black" stroke-width="2" /><line x1="600" y1="82" x2="600" y2="135" stroke="black" stroke-width="2" /><line x1="600" y1="135" x2="600" y2="135" stroke="black" stroke-width="2" /><polygon points="600,82 595,92 605,92" fill="white" stroke="black" stroke-width="2" /><g><!-- Association delivers third party care performer -->
<line x1="155" y1="192" x2="525" y2="192" stroke="black" stroke-width="2" /><text x="175" y="188" text-anchor="start" font-family="Cambria" font-size="22" fill="black"><tspan x="175" y="188">1..*</tspan></text>
<text x="505" y="188" text-anchor="end" font-family="Cambria" font-size="22" fill="black"><tspan x="505" y="188">1..*</tspan></text>
<text x="340" y="208" text-anchor="middle" font-family="Cambria" font-size="22" fill="black"><tspan x="340" y="208">delivers</tspan></text>
</g>
<g><!-- third party care performer -->
<a xlink:href="./third-party-care-performer.html" target="_top" xmlns:xlink="http://www.w3.org/1999/xlink"><rect x="5" y="155" width="150" height="75" fill="whitesmoke" stroke="black" stroke-width="2"><title>role performed by a care third party</title></rect></a><text x="80" y="176" text-anchor="middle" font-family="Cambria" font-size="16.5625" fill="black"><tspan x="80" y="176">third party</tspan><tspan x="80" y="195">care performer</tspan></text>
</g>
<g><!-- Association requires care activity mandate -->
<line x1="675" y1="192" x2="1045" y2="192" stroke="black" stroke-width="2" /><text x="695" y="188" text-anchor="start" font-family="Cambria" font-size="22" fill="black"><tspan x="695" y="188">1..*</tspan></text>
<text x="1023" y="188" text-anchor="end" font-family="Cambria" font-size="22" fill="black"><tspan x="1023" y="188">0..*</tspan></text>
<text x="860" y="208" text-anchor="middle" font-family="Cambria" font-size="22" fill="black"><tspan x="860" y="208">requires</tspan></text>
</g>
<g><!-- care activity mandate -->
<a xlink:href="./care-activity-mandate.html" target="_top" xmlns:xlink="http://www.w3.org/1999/xlink"><rect x="1045" y="155" width="150" height="75" fill="whitesmoke" stroke="black" stroke-width="2"><title>care mandate assigning the right and obligation to perform specific care activities</title></rect></a><text x="1120" y="177" text-anchor="middle" font-family="Cambria" font-size="17.8125" fill="black"><tspan x="1120" y="177">care activity</tspan><tspan x="1120" y="198">mandate</tspan></text>
</g>
<g><!-- Association generates non-ratified care information -->
<line x1="675" y1="272" x2="1045" y2="272" stroke="black" stroke-width="2" /><text x="695" y="268" text-anchor="start" font-family="Cambria" font-size="22" fill="black"><tspan x="695" y="268">0..*</tspan></text>
<text x="1023" y="268" text-anchor="end" font-family="Cambria" font-size="22" fill="black"><tspan x="1023" y="268">0..*</tspan></text>
<text x="860" y="288" text-anchor="middle" font-family="Cambria" font-size="22" fill="black"><tspan x="860" y="288">generates</tspan></text>
</g>
<g><!-- non-ratified care information -->
<a xlink:href="./non-ratified-care-information.html" target="_top" xmlns:xlink="http://www.w3.org/1999/xlink"><rect x="1045" y="235" width="150" height="75" fill="whitesmoke" stroke="black" stroke-width="2"><title>care information the relevance of which has not been assessed and explicitly stated as valid by a care professional</title></rect></a><text x="1120" y="256" text-anchor="middle" font-family="Cambria" font-size="16.5625" fill="black"><tspan x="1120" y="256">non-ratified</tspan><tspan x="1120" y="275">care</tspan><tspan x="1120" y="294">information</tspan></text>
</g>
<g><!-- Focal care third party activity -->
<a xlink:href="./care-third-party-activity.html" target="_top" xmlns:xlink="http://www.w3.org/1999/xlink"><rect x="525" y="155" width="150" height="160" fill="white" stroke="black" stroke-width="2"><title>care activity performed by a care third party</title></rect></a><text x="600" y="185" text-anchor="middle" font-family="Cambria" font-size="25" fill="black"><tspan x="600" y="185">care</tspan><tspan x="600" y="215">third</tspan><tspan x="600" y="245">party</tspan><tspan x="600" y="275">activity</tspan></text>
</g>
<g><!-- prescribed third party activity -->
<a xlink:href="./prescribed-third-party-activity.html" target="_top" xmlns:xlink="http://www.w3.org/1999/xlink"><rect x="525" y="357" width="150" height="75" fill="white" stroke="black" stroke-width="2"><title>care third party activity prescribed by a care professional</title></rect></a><text x="600" y="378" text-anchor="middle" font-family="Cambria" font-size="16.5625" fill="black"><tspan x="600" y="378">prescribed</tspan><tspan x="600" y="397">third party</tspan><tspan x="600" y="416">activity</tspan></text>
</g>
<!-- Subclass row bus -->
<line x1="600" y1="337" x2="600" y2="337" stroke="black" stroke-width="2" /><!-- Subclass row vertical to focal -->
<line x1="600" y1="327" x2="600" y2="337" stroke="black" stroke-width="2" /><polygon points="600,317 595,327 605,327" fill="white" stroke="black" stroke-width="2" /><line x1="600" y1="337" x2="600" y2="357" stroke="black" stroke-width="2" /></svg>