<svg xmlns="http://www.w3.org/2000/svg" viewBox="0 0 1200 512" role="img" aria-labelledby="title desc"><title id="title">Class Diagram of care third party</title><desc id="desc">Generated diagram of focal class care third party and related classes.</desc><!-- Super types of care third party -->
<g><!-- care actor -->
<a xlink:href="./care-actor.html" target="_top" xmlns:xlink="http://www.w3.org/1999/xlink"><rect x="525" y="5" width="150" height="75" fill="white" stroke="black" stroke-width="2"><title>organization or person participating in care</title></rect></a><text x="600" y="34" text-anchor="middle" font-family="Cambria" font-size="24.0625" fill="black"><tspan x="600" y="34">care</tspan><tspan x="600" y="62">actor</tspan></text>
</g>
<!-- Generalization care third party -> care actor -->
<line x1="600" y1="155" x2="600" y2="135" stroke="black" stroke-width="2" /><line x1="600" y1="82" x2="600" y2="135" stroke="black" stroke-width="2" /><line x1="600" y1="135" x2="600" y2="135" stroke="black" stroke-width="2" /><polygon points="600,82 595,92 605,92" fill="white" stroke="black" stroke-width="2" /><g><!-- Association assigned to proxy mandate -->
<line x1="155" y1="192" x2="525" y2="192" stroke="black" stroke-width="2" /><text x="175" y="188" text-anchor="start" font-family="Cambria" font-size="22" fill="black"><tspan x="175" y="188">1..*</tspan></text>
<text x="505" y="188" text-anchor="end" font-family="Cambria" font-size="22" fill="black"><tspan x="505" y="188">1..*</tspan></text>
<text x="340" y="208" text-anchor="middle" font-family="Cambria" font-size="22" fill="black"><tspan x="340" y="208">assigned to</tspan></text>
</g>
<g><!-- proxy mandate -->
<a xlink:href="./proxy-mandate.html" target="_top" xmlns:xlink="http://www.w3.org/1999/xlink"><rect x="5" y="155" width="150" height="75" fill="whitesmoke" stroke="black" stroke-width="2"><title>care mandate to take decisions on behalf of a subject of care</title></rect></a><text x="80" y="184" text-anchor="middle" font-family="Cambria" font-size="24.0625" fill="black"><tspan x="80" y="184">proxy</tspan><tspan x="80" y="212">mandate</tspan></text>
</g>
<g><!-- Association supports subject of care -->
<line x1="675" y1="192" x2="1045" y2="192" stroke="black" stroke-width="2" /><text x="695" y="188" text-anchor="start" font-family="Cambria" font-size="22" fill="black"><tspan x="695" y="188">1..*</tspan></text>
<text x="1023" y="188" text-anchor="end" font-family="Cambria" font-size="22" fill="black"><tspan x="1023" y="188">1..*</tspan></text>
<text x="860" y="208" text-anchor="middle" font-family="Cambria" font-size="22" fill="black"><tspan x="860" y="208">supports</tspan></text>
</g>
<g><!-- subject of care -->
<a xlink:href="./subject-of-care.html" target="_top" xmlns:xlink="http://www.w3.org/1999/xlink"><rect x="1045" y="155" width="150" height="75" fill="whitesmoke" stroke="black" stroke-width="2"><title>person seeking to receive, receiving, or having received care</title></rect></a><text x="1120" y="184" text-anchor="middle" font-family="Cambria" font-size="24.0625" fill="black"><tspan x="1120" y="184">subject</tspan><tspan x="1120" y="212">of care</tspan></text>
</g>
<g><!-- Association plays third party care performer -->
<line x1="675" y1="272" x2="1045" y2="272" stroke="black" stroke-width="2" /><text x="695" y="268" text-anchor="start" font-family="Cambria" font-size="22" fill="black"><tspan x="695" y="268">0..*</tspan></text>
<text x="1023" y="268" text-anchor="end" font-family="Cambria" font-size="22" fill="black"><tspan x="1023" y="268">1..*</tspan></text>
<text x="860" y="288" text-anchor="middle" font-family="Cambria" font-size="22" fill="black"><tspan x="860" y="288">plays</tspan></text>
</g>
<g><!-- third party care performer -->
<a xlink:href="./third-party-care-performer.html" target="_top" xmlns:xlink="http://www.w3.org/1999/xlink"><rect x="1045" y="235" width="150" height="75" fill="whitesmoke" stroke="black" stroke-width="2"><title>role performed by a care third party</title></rect></a><text x="1120" y="256" text-anchor="middle" font-family="Cambria" font-size="16.5625" fill="black"><tspan x="1120" y="256">third party</tspan><tspan x="1120" y="275">care performer</tspan></text>
</g>
<g><!-- Focal care third party -->
<a xlink:href="./care-third-party.html" target="_top" xmlns:xlink="http://www.w3.org/1999/xlink"><rect x="525" y="155" width="150" height="160" fill="white" stroke="black" stroke-width="2"><title>care actor other than a care provider or the subject of care</title></rect></a><text x="600" y="185" text-anchor="middle" font-family="Cambria" font-size="25" fill="black"><tspan x="600" y="185">care</tspan><tspan x="600" y="215">third</tspan><tspan x="600" y="245">party</tspan></text>
</g>
<g><!-- care supporting organization -->
<a xlink:href="./care-supporting-organization.html" target="_top" xmlns:xlink="http://www.w3.org/1999/xlink"><rect x="125" y="357" width="150" height="75" fill="white" stroke="black" stroke-width="2"><title>organization that is a care third party</title></rect></a><text x="200" y="378" text-anchor="middle" font-family="Cambria" font-size="16.5625" fill="black"><tspan x="200" y="378">care</tspan><tspan x="200" y="397">supporting</tspan><tspan x="200" y="416">organization</tspan></text>
</g>
<g><!-- other carer -->
<a xlink:href="./other-carer.html" target="_top" xmlns:xlink="http://www.w3.org/1999/xlink"><rect x="525" y="357" width="150" height="75" fill="white" stroke="black" stroke-width="2"><title>person being a care third party</title></rect></a><text x="600" y="386" text-anchor="middle" font-family="Cambria" font-size="24.0625" fill="black"><tspan x="600" y="386">other</tspan><tspan x="600" y="414">carer</tspan></text>
</g>
<g><!-- subject of care proxy -->
<a xlink:href="./subject-of-care-proxy.html" target="_top" xmlns:xlink="http://www.w3.org/1999/xlink"><rect x="925" y="357" width="150" height="75" fill="white" stroke="black" stroke-width="2"><title>care actor exercising a proxy mandate</title></rect></a><text x="1000" y="385" text-anchor="middle" font-family="Cambria" font-size="23.125" fill="black"><tspan x="1000" y="385">subject of</tspan><tspan x="1000" y="412">care proxy</tspan></text>
</g>
<!-- Subclass row bus -->
<line x1="200" y1="337" x2="1000" y2="337" stroke="black" stroke-width="2" /><!-- Subclass row vertical to focal -->
<line x1="600" y1="327" x2="600" y2="337" stroke="black" stroke-width="2" /><polygon points="600,317 595,327 605,327" fill="white" stroke="black" stroke-width="2" /><line x1="200" y1="337" x2="200" y2="357" stroke="black" stroke-width="2" /><line x1="600" y1="337" x2="600" y2="357" stroke="black" stroke-width="2" /><line x1="1000" y1="337" x2="1000" y2="357" stroke="black" stroke-width="2" /></svg>