<svg xmlns="http://www.w3.org/2000/svg" viewBox="0 0 1200 232" role="img" aria-labelledby="title desc"><title id="title">Class Diagram of clinical issue</title><desc id="desc">Generated diagram of focal class clinical issue and related classes.</desc><!-- Super types of clinical issue -->
<g><!-- clinical matter -->
<a xlink:href="./clinical-matter.html" target="_top" xmlns:xlink="http://www.w3.org/1999/xlink"><rect x="225" y="5" width="150" height="75" fill="white" stroke="black" stroke-width="2"><title>health matter concerned with the body or mind</title></rect></a><text x="300" y="34" text-anchor="middle" font-family="Cambria" font-size="24.0625" fill="black"><tspan x="300" y="34">clinical</tspan><tspan x="300" y="62">matter</tspan></text>
</g>
<!-- Generalization clinical issue -> clinical matter -->
<line x1="600" y1="155" x2="600" y2="135" stroke="black" stroke-width="2" /><line x1="300" y1="82" x2="300" y2="135" stroke="black" stroke-width="2" /><line x1="600" y1="135" x2="300" y2="135" stroke="black" stroke-width="2" /><polygon points="300,82 295,92 305,92" fill="white" stroke="black" stroke-width="2" /><g><!-- health issue -->
<a xlink:href="./health-issue.html" target="_top" xmlns:xlink="http://www.w3.org/1999/xlink"><rect x="825" y="5" width="150" height="75" fill="white" stroke="black" stroke-width="2"><title>health condition motivating care</title></rect></a><text x="900" y="34" text-anchor="middle" font-family="Cambria" font-size="24.0625" fill="black"><tspan x="900" y="34">health</tspan><tspan x="900" y="62">issue</tspan></text>
</g>
<!-- Generalization clinical issue -> health issue -->
<line x1="600" y1="155" x2="600" y2="135" stroke="black" stroke-width="2" /><line x1="900" y1="82" x2="900" y2="135" stroke="black" stroke-width="2" /><line x1="600" y1="135" x2="900" y2="135" stroke="black" stroke-width="2" /><polygon points="900,82 895,92 905,92" fill="white" stroke="black" stroke-width="2" /><g><!-- Focal clinical issue -->
<a xlink:href="./clinical-issue.html" target="_top" xmlns:xlink="http://www.w3.org/1999/xlink"><rect x="525" y="155" width="150" height="75" fill="white" stroke="black" stroke-width="2"><title>health issue that is a clinical matter</title></rect></a><text x="600" y="184" text-anchor="middle" font-family="Cambria" font-size="24.0625" fill="black"><tspan x="600" y="184">clinical</tspan><tspan x="600" y="212">issue</tspan></text>
</g>
</svg>