<svg xmlns="http://www.w3.org/2000/svg" viewBox="0 0 1200 427" role="img" aria-labelledby="title desc"><title id="title">Class Diagram of clinical matter</title><desc id="desc">Generated diagram of focal class clinical matter and related classes.</desc><!-- Super types of clinical matter -->
<g><!-- health matter -->
<a xlink:href="./health-matter.html" target="_top" xmlns:xlink="http://www.w3.org/1999/xlink"><rect x="525" y="5" width="150" height="75" fill="white" stroke="black" stroke-width="2"><title>circumstance contributing to the health state of a person</title></rect></a><text x="600" y="34" text-anchor="middle" font-family="Cambria" font-size="24.0625" fill="black"><tspan x="600" y="34">health</tspan><tspan x="600" y="62">matter</tspan></text>
</g>
<!-- Generalization clinical matter -> health matter -->
<line x1="600" y1="155" x2="600" y2="135" stroke="black" stroke-width="2" /><line x1="600" y1="82" x2="600" y2="135" stroke="black" stroke-width="2" /><line x1="600" y1="135" x2="600" y2="135" stroke="black" stroke-width="2" /><polygon points="600,82 595,92 605,92" fill="white" stroke="black" stroke-width="2" /><g><!-- Focal clinical matter -->
<a xlink:href="./clinical-matter.html" target="_top" xmlns:xlink="http://www.w3.org/1999/xlink"><rect x="525" y="155" width="150" height="75" fill="white" stroke="black" stroke-width="2"><title>health matter concerned with the body or mind</title></rect></a><text x="600" y="184" text-anchor="middle" font-family="Cambria" font-size="24.0625" fill="black"><tspan x="600" y="184">clinical</tspan><tspan x="600" y="212">matter</tspan></text>
</g>
<g><!-- clinical issue -->
<a xlink:href="./clinical-issue.html" target="_top" xmlns:xlink="http://www.w3.org/1999/xlink"><rect x="525" y="272" width="150" height="75" fill="white" stroke="black" stroke-width="2"><title>health issue that is a clinical matter</title></rect></a><text x="600" y="301" text-anchor="middle" font-family="Cambria" font-size="24.0625" fill="black"><tspan x="600" y="301">clinical</tspan><tspan x="600" y="329">issue</tspan></text>
</g>
<!-- Subclass row bus -->
<line x1="600" y1="252" x2="600" y2="252" stroke="black" stroke-width="2" /><!-- Subclass row vertical to focal -->
<line x1="600" y1="242" x2="600" y2="252" stroke="black" stroke-width="2" /><polygon points="600,232 595,242 605,242" fill="white" stroke="black" stroke-width="2" /><line x1="600" y1="252" x2="600" y2="272" stroke="black" stroke-width="2" /></svg>