<svg xmlns="http://www.w3.org/2000/svg" viewBox="0 0 1200 427" role="img" aria-labelledby="title desc"><title id="title">Class Diagram of commitment</title><desc id="desc">Generated diagram of focal class commitment and related classes.</desc><!-- Super types of commitment -->
<g><!-- mandate -->
<a xlink:href="./mandate.html" target="_top" xmlns:xlink="http://www.w3.org/1999/xlink"><rect x="525" y="5" width="150" height="75" fill="white" stroke="black" stroke-width="2"><title>commission to act</title></rect></a><text x="600" y="35" text-anchor="middle" font-family="Cambria" font-size="25" fill="black"><tspan x="600" y="35">mandate</tspan></text>
</g>
<!-- Generalization commitment -> mandate -->
<line x1="600" y1="155" x2="600" y2="135" stroke="black" stroke-width="2" /><line x1="600" y1="82" x2="600" y2="135" stroke="black" stroke-width="2" /><line x1="600" y1="135" x2="600" y2="135" stroke="black" stroke-width="2" /><polygon points="600,82 595,92 605,92" fill="white" stroke="black" stroke-width="2" /><g><!-- Focal commitment -->
<a xlink:href="./commitment.html" target="_top" xmlns:xlink="http://www.w3.org/1999/xlink"><rect x="525" y="155" width="150" height="75" fill="white" stroke="black" stroke-width="2"><title>obligation by one or more of the participants in an act to comply with a rule or perform a contract</title></rect></a><text x="600" y="185" text-anchor="middle" font-family="Cambria" font-size="25" fill="black"><tspan x="600" y="185">commitment</tspan></text>
</g>
<g><!-- care commitment -->
<a xlink:href="./care-commitment.html" target="_top" xmlns:xlink="http://www.w3.org/1999/xlink"><rect x="525" y="272" width="150" height="75" fill="white" stroke="black" stroke-width="2"><title>acceptance of a care request including commitment by the care actor to perform requested care activities</title></rect></a><text x="600" y="301" text-anchor="middle" font-family="Cambria" font-size="24.0625" fill="black"><tspan x="600" y="301">care</tspan><tspan x="600" y="329">commitment</tspan></text>
</g>
<!-- Subclass row bus -->
<line x1="600" y1="252" x2="600" y2="252" stroke="black" stroke-width="2" /><!-- Subclass row vertical to focal -->
<line x1="600" y1="242" x2="600" y2="252" stroke="black" stroke-width="2" /><polygon points="600,232 595,242 605,242" fill="white" stroke="black" stroke-width="2" /><line x1="600" y1="252" x2="600" y2="272" stroke="black" stroke-width="2" /></svg>