<svg xmlns="http://www.w3.org/2000/svg" viewBox="0 0 1200 237" role="img" aria-labelledby="title desc"><title id="title">Class Diagram of composition</title><desc id="desc">Generated diagram of focal class composition and related classes.</desc><!-- Super types of composition -->
<g><!-- health record component -->
<a xlink:href="./health-record-component.html" target="_top" xmlns:xlink="http://www.w3.org/1999/xlink"><rect x="525" y="5" width="150" height="75" fill="white" stroke="black" stroke-width="2"><title>part of a health record that is identifiable for the purposes of referencing and revision</title></rect></a><text x="600" y="27" text-anchor="middle" font-family="Cambria" font-size="17.8125" fill="black"><tspan x="600" y="27">health record</tspan><tspan x="600" y="48">component</tspan></text>
</g>
<!-- Generalization composition -> health record component -->
<line x1="600" y1="155" x2="600" y2="135" stroke="black" stroke-width="2" /><line x1="600" y1="82" x2="600" y2="135" stroke="black" stroke-width="2" /><line x1="600" y1="135" x2="600" y2="135" stroke="black" stroke-width="2" /><polygon points="600,82 595,92 605,92" fill="white" stroke="black" stroke-width="2" /><g><!-- Association composition entry -->
<line x1="155" y1="192" x2="525" y2="192" stroke="black" stroke-width="2" /><text x="175" y="188" text-anchor="start" font-family="Cambria" font-size="22" fill="black"><tspan x="175" y="188">1..*</tspan></text>
<text x="505" y="188" text-anchor="end" font-family="Cambria" font-size="22" fill="black"><tspan x="505" y="188">1..*</tspan></text>
<g transform="translate(509,192)"><polygon points="0,0 8,-6 16,0 8,6" fill="black" stroke="black" stroke-width="2" /></g></g>
<g><!-- entry -->
<a xlink:href="./entry.html" target="_top" xmlns:xlink="http://www.w3.org/1999/xlink"><rect x="5" y="155" width="150" height="75" fill="whitesmoke" stroke="black" stroke-width="2"><title>health record component that represents the data documenting one  observation or a series of related observations, or a  statement, an explanation of reasoning, a care intention, plan or action</title></rect></a><text x="80" y="185" text-anchor="middle" font-family="Cambria" font-size="25" fill="black"><tspan x="80" y="185">entry</tspan></text>
</g>
<g><!-- Association composition folder -->
<line x1="675" y1="192" x2="1045" y2="192" stroke="black" stroke-width="2" /><text x="695" y="188" text-anchor="start" font-family="Cambria" font-size="22" fill="black"><tspan x="695" y="188">1..*</tspan></text>
<text x="1023" y="188" text-anchor="end" font-family="Cambria" font-size="22" fill="black"><tspan x="1023" y="188">0..*</tspan></text>
<g transform="translate(1029,192)"><polygon points="0,0 8,-6 16,0 8,6" fill="white" stroke="black" stroke-width="2" /></g></g>
<g><!-- folder -->
<a xlink:href="./folder.html" target="_top" xmlns:xlink="http://www.w3.org/1999/xlink"><rect x="1045" y="155" width="150" height="75" fill="whitesmoke" stroke="black" stroke-width="2"><title>structure component used for creating hierarchical structures within an electronic health record extract and with compositions as leaf nodes</title></rect></a><text x="1120" y="185" text-anchor="middle" font-family="Cambria" font-size="25" fill="black"><tspan x="1120" y="185">folder</tspan></text>
</g>
<g><!-- Focal composition -->
<a xlink:href="./composition.html" target="_top" xmlns:xlink="http://www.w3.org/1999/xlink"><rect x="525" y="155" width="150" height="80" fill="white" stroke="black" stroke-width="2"><title>structure component containing information composed during one clinical encounter or documentation session, and committed within one health record</title></rect></a><text x="600" y="185" text-anchor="middle" font-family="Cambria" font-size="25" fill="black"><tspan x="600" y="185">composition</tspan></text>
</g>
</svg>