<svg xmlns="http://www.w3.org/2000/svg" viewBox="0 0 1200 432" role="img" aria-labelledby="title desc"><title id="title">Class Diagram of data repository</title><desc id="desc">Generated diagram of focal class data repository and related classes.</desc><!-- Super types of data repository -->
<g><!-- resource -->
<a xlink:href="./resource.html" target="_top" xmlns:xlink="http://www.w3.org/1999/xlink"><rect x="225" y="5" width="150" height="75" fill="white" stroke="black" stroke-width="2"><title>asset that is utilized or consumed during the execution of activities</title></rect></a><text x="300" y="35" text-anchor="middle" font-family="Cambria" font-size="25" fill="black"><tspan x="300" y="35">resource</tspan></text>
</g>
<!-- Generalization data repository -> resource -->
<line x1="600" y1="155" x2="600" y2="135" stroke="black" stroke-width="2" /><line x1="300" y1="82" x2="300" y2="135" stroke="black" stroke-width="2" /><line x1="600" y1="135" x2="300" y2="135" stroke="black" stroke-width="2" /><polygon points="300,82 295,92 305,92" fill="white" stroke="black" stroke-width="2" /><g><!-- mental object -->
<a xlink:href="./mental-object.html" target="_top" xmlns:xlink="http://www.w3.org/1999/xlink"><rect x="825" y="5" width="150" height="75" fill="white" stroke="black" stroke-width="2"><title>thoughts, ideas, memories and concepts that exist within an individual’s mind</title></rect></a><text x="900" y="34" text-anchor="middle" font-family="Cambria" font-size="24.0625" fill="black"><tspan x="900" y="34">mental</tspan><tspan x="900" y="62">object</tspan></text>
</g>
<!-- Generalization data repository -> mental object -->
<line x1="600" y1="155" x2="600" y2="135" stroke="black" stroke-width="2" /><line x1="900" y1="82" x2="900" y2="135" stroke="black" stroke-width="2" /><line x1="600" y1="135" x2="900" y2="135" stroke="black" stroke-width="2" /><polygon points="900,82 895,92 905,92" fill="white" stroke="black" stroke-width="2" /><g><!-- Association imported into health record extract -->
<line x1="155" y1="192" x2="525" y2="192" stroke="black" stroke-width="2" /><text x="175" y="188" text-anchor="start" font-family="Cambria" font-size="22" fill="black"><tspan x="175" y="188">0..*</tspan></text>
<text x="505" y="188" text-anchor="end" font-family="Cambria" font-size="22" fill="black"><tspan x="505" y="188">1..*</tspan></text>
<text x="340" y="208" text-anchor="middle" font-family="Cambria" font-size="22" fill="black"><tspan x="340" y="208">imported into</tspan></text>
</g>
<g><!-- health record extract -->
<a xlink:href="./health-record-extract.html" target="_top" xmlns:xlink="http://www.w3.org/1999/xlink"><rect x="5" y="155" width="150" height="75" fill="whitesmoke" stroke="black" stroke-width="2"><title>part or all of a health record extracted for the purpose of communication</title></rect></a><text x="80" y="177" text-anchor="middle" font-family="Cambria" font-size="17.8125" fill="black"><tspan x="80" y="177">health record</tspan><tspan x="80" y="198">extract</tspan></text>
</g>
<g><!-- Association stores health record -->
<line x1="675" y1="192" x2="1045" y2="192" stroke="black" stroke-width="2" /><text x="695" y="188" text-anchor="start" font-family="Cambria" font-size="22" fill="black"><tspan x="695" y="188">0..*</tspan></text>
<text x="1023" y="188" text-anchor="end" font-family="Cambria" font-size="22" fill="black"><tspan x="1023" y="188">0..*</tspan></text>
<text x="860" y="208" text-anchor="middle" font-family="Cambria" font-size="22" fill="black"><tspan x="860" y="208">stores</tspan></text>
</g>
<g><!-- health record -->
<a xlink:href="./health-record.html" target="_top" xmlns:xlink="http://www.w3.org/1999/xlink"><rect x="1045" y="155" width="150" height="75" fill="white" stroke="black" stroke-width="2"><title>data repository regarding the health and care of a subject of care</title></rect></a><text x="1120" y="184" text-anchor="middle" font-family="Cambria" font-size="24.0625" fill="black"><tspan x="1120" y="184">health</tspan><tspan x="1120" y="212">record</tspan></text>
</g>
<g><!-- Focal data repository -->
<a xlink:href="./data-repository.html" target="_top" xmlns:xlink="http://www.w3.org/1999/xlink"><rect x="525" y="155" width="150" height="80" fill="white" stroke="black" stroke-width="2"><title>identifiable data storage facility</title></rect></a><text x="600" y="185" text-anchor="middle" font-family="Cambria" font-size="25" fill="black"><tspan x="600" y="185">data</tspan><tspan x="600" y="215">repository</tspan></text>
</g>
<g><!-- sharable data repository -->
<a xlink:href="./sharable-data-repository.html" target="_top" xmlns:xlink="http://www.w3.org/1999/xlink"><rect x="225" y="277" width="150" height="75" fill="white" stroke="black" stroke-width="2"><title>data repository containing health record extracts, accessible for duly authorized care actors independent of their organizational affiliation and placed under the custody of a care actor</title></rect></a><text x="300" y="299" text-anchor="middle" font-family="Cambria" font-size="17.8125" fill="black"><tspan x="300" y="299">sharable data</tspan><tspan x="300" y="320">repository</tspan></text>
</g>
<g><!-- health record -->
<a xlink:href="./health-record.html" target="_top" xmlns:xlink="http://www.w3.org/1999/xlink"><rect x="825" y="277" width="150" height="75" fill="white" stroke="black" stroke-width="2"><title>data repository regarding the health and care of a subject of care</title></rect></a><text x="900" y="306" text-anchor="middle" font-family="Cambria" font-size="24.0625" fill="black"><tspan x="900" y="306">health</tspan><tspan x="900" y="334">record</tspan></text>
</g>
<!-- Subclass row bus -->
<line x1="300" y1="257" x2="900" y2="257" stroke="black" stroke-width="2" /><!-- Subclass row vertical to focal -->
<line x1="600" y1="247" x2="600" y2="257" stroke="black" stroke-width="2" /><polygon points="600,237 595,247 605,247" fill="white" stroke="black" stroke-width="2" /><line x1="300" y1="257" x2="300" y2="277" stroke="black" stroke-width="2" /><line x1="900" y1="257" x2="900" y2="277" stroke="black" stroke-width="2" /></svg>