<svg xmlns="http://www.w3.org/2000/svg" viewBox="0 0 1200 512" role="img" aria-labelledby="title desc"><title id="title">Class Diagram of episode of care</title><desc id="desc">Generated diagram of focal class episode of care and related classes.</desc><!-- Super types of episode of care -->
<g><!-- health related period -->
<a xlink:href="./health-related-period.html" target="_top" xmlns:xlink="http://www.w3.org/1999/xlink"><rect x="525" y="5" width="150" height="75" fill="white" stroke="black" stroke-width="2"><title>time interval related to the health or care of a subject of care</title></rect></a><text x="600" y="26" text-anchor="middle" font-family="Cambria" font-size="16.5625" fill="black"><tspan x="600" y="26">health related</tspan><tspan x="600" y="45">period</tspan></text>
</g>
<!-- Generalization episode of care -> health related period -->
<line x1="600" y1="155" x2="600" y2="135" stroke="black" stroke-width="2" /><line x1="600" y1="82" x2="600" y2="135" stroke="black" stroke-width="2" /><line x1="600" y1="135" x2="600" y2="135" stroke="black" stroke-width="2" /><polygon points="600,82 595,92 605,92" fill="white" stroke="black" stroke-width="2" /><g><!-- Association manages care provider -->
<line x1="155" y1="192" x2="525" y2="192" stroke="black" stroke-width="2" /><text x="175" y="188" text-anchor="start" font-family="Cambria" font-size="22" fill="black"><tspan x="175" y="188">0..*</tspan></text>
<text x="505" y="188" text-anchor="end" font-family="Cambria" font-size="22" fill="black"><tspan x="505" y="188">1..*</tspan></text>
<text x="340" y="208" text-anchor="middle" font-family="Cambria" font-size="22" fill="black"><tspan x="340" y="208">manages</tspan></text>
</g>
<g><!-- care provider -->
<a xlink:href="./care-provider.html" target="_top" xmlns:xlink="http://www.w3.org/1999/xlink"><rect x="5" y="155" width="150" height="75" fill="whitesmoke" stroke="black" stroke-width="2"><title>care actor that is able to be assigned one or more care period mandates</title></rect></a><text x="80" y="184" text-anchor="middle" font-family="Cambria" font-size="24.0625" fill="black"><tspan x="80" y="184">care</tspan><tspan x="80" y="212">provider</tspan></text>
</g>
<g><!-- Association episodes of care bundle episodes of care bundle -->
<line x1="675" y1="192" x2="1045" y2="192" stroke="black" stroke-width="2" /><text x="695" y="188" text-anchor="start" font-family="Cambria" font-size="22" fill="black"><tspan x="695" y="188">0..*</tspan></text>
<text x="1023" y="188" text-anchor="end" font-family="Cambria" font-size="22" fill="black"><tspan x="1023" y="188">1..*</tspan></text>
<g transform="translate(1029,192)"><polygon points="0,0 8,-6 16,0 8,6" fill="white" stroke="black" stroke-width="2" /></g></g>
<g><!-- episodes of care bundle -->
<a xlink:href="./episodes-of-care-bundle.html" target="_top" xmlns:xlink="http://www.w3.org/1999/xlink"><rect x="1045" y="155" width="150" height="75" fill="whitesmoke" stroke="black" stroke-width="2"><title>group of episodes of care delineated by a health thread</title></rect></a><text x="1120" y="180" text-anchor="middle" font-family="Cambria" font-size="20.9375" fill="black"><tspan x="1120" y="180">episodes of</tspan><tspan x="1120" y="205">care bundle</tspan></text>
</g>
<g><!-- Association centred on health issue -->
<line x1="675" y1="272" x2="1045" y2="272" stroke="black" stroke-width="2" /><text x="695" y="268" text-anchor="start" font-family="Cambria" font-size="22" fill="black"><tspan x="695" y="268">1..*</tspan></text>
<text x="1023" y="268" text-anchor="end" font-family="Cambria" font-size="22" fill="black"><tspan x="1023" y="268">1..*</tspan></text>
<text x="860" y="288" text-anchor="middle" font-family="Cambria" font-size="22" fill="black"><tspan x="860" y="288">centred on</tspan></text>
</g>
<g><!-- health issue -->
<a xlink:href="./health-issue.html" target="_top" xmlns:xlink="http://www.w3.org/1999/xlink"><rect x="1045" y="235" width="150" height="75" fill="whitesmoke" stroke="black" stroke-width="2"><title>health condition motivating care</title></rect></a><text x="1120" y="264" text-anchor="middle" font-family="Cambria" font-size="24.0625" fill="black"><tspan x="1120" y="264">health</tspan><tspan x="1120" y="292">issue</tspan></text>
</g>
<g><!-- Focal episode of care -->
<a xlink:href="./episode-of-care.html" target="_top" xmlns:xlink="http://www.w3.org/1999/xlink"><rect x="525" y="155" width="150" height="160" fill="white" stroke="black" stroke-width="2"><title>health related period during which care activities are performed to address one health issue as identified by one care professional</title></rect></a><text x="600" y="185" text-anchor="middle" font-family="Cambria" font-size="25" fill="black"><tspan x="600" y="185">episode</tspan><tspan x="600" y="215">of care</tspan></text>
</g>
<g><!-- health approach -->
<a xlink:href="./health-approach.html" target="_top" xmlns:xlink="http://www.w3.org/1999/xlink"><rect x="525" y="357" width="150" height="75" fill="white" stroke="black" stroke-width="2"><title>episode of care during which the care activities performed address one specific care goal</title></rect></a><text x="600" y="386" text-anchor="middle" font-family="Cambria" font-size="24.0625" fill="black"><tspan x="600" y="386">health</tspan><tspan x="600" y="414">approach</tspan></text>
</g>
<!-- Subclass row bus -->
<line x1="600" y1="337" x2="600" y2="337" stroke="black" stroke-width="2" /><!-- Subclass row vertical to focal -->
<line x1="600" y1="327" x2="600" y2="337" stroke="black" stroke-width="2" /><polygon points="600,317 595,327 605,327" fill="white" stroke="black" stroke-width="2" /><line x1="600" y1="337" x2="600" y2="357" stroke="black" stroke-width="2" /></svg>