<svg xmlns="http://www.w3.org/2000/svg" viewBox="0 0 1200 427" role="img" aria-labelledby="title desc"><title id="title">Class Diagram of event</title><desc id="desc">Generated diagram of focal class event and related classes.</desc><!-- Super types of event -->
<g><!-- thing -->
<a xlink:href="./thing.html" target="_top" xmlns:xlink="http://www.w3.org/1999/xlink"><rect x="525" y="5" width="150" height="75" fill="white" stroke="black" stroke-width="2"><title></title></rect></a><text x="600" y="18" text-anchor="middle" font-family="Cambria" font-size="12" fill="black"><tspan x="600" y="18">thing</tspan></text>
</g>
<!-- Generalization event -> thing -->
<line x1="600" y1="155" x2="600" y2="135" stroke="black" stroke-width="2" /><line x1="600" y1="82" x2="600" y2="135" stroke="black" stroke-width="2" /><line x1="600" y1="135" x2="600" y2="135" stroke="black" stroke-width="2" /><polygon points="600,82 595,92 605,92" fill="white" stroke="black" stroke-width="2" /><g><!-- Focal event -->
<a xlink:href="./event.html" target="_top" xmlns:xlink="http://www.w3.org/1999/xlink"><rect x="525" y="155" width="150" height="75" fill="white" stroke="black" stroke-width="2"><title>situation considered to occur at a time point</title></rect></a><text x="600" y="168" text-anchor="middle" font-family="Cambria" font-size="12" fill="black"><tspan x="600" y="168">event</tspan></text>
</g>
<g><!-- appointment -->
<a xlink:href="./appointment.html" target="_top" xmlns:xlink="http://www.w3.org/1999/xlink"><rect x="45" y="272" width="150" height="75" fill="white" stroke="black" stroke-width="2"><title>arrangement to meet someone at a particular time and place</title></rect></a><text x="120" y="285" text-anchor="middle" font-family="Cambria" font-size="12" fill="black"><tspan x="120" y="285">appointment</tspan></text>
</g>
<g><!-- care contact -->
<a xlink:href="./care-contact.html" target="_top" xmlns:xlink="http://www.w3.org/1999/xlink"><rect x="285" y="272" width="150" height="75" fill="white" stroke="black" stroke-width="2"><title>interaction between one or more subject of care and one or more care personnel</title></rect></a><text x="360" y="285" text-anchor="middle" font-family="Cambria" font-size="12" fill="black"><tspan x="360" y="285">care contact</tspan></text>
</g>
<g><!-- request for care -->
<a xlink:href="./request-for-care.html" target="_top" xmlns:xlink="http://www.w3.org/1999/xlink"><rect x="525" y="272" width="150" height="75" fill="white" stroke="black" stroke-width="2"><title>request for care provider activities</title></rect></a><text x="600" y="285" text-anchor="middle" font-family="Cambria" font-size="12" fill="black"><tspan x="600" y="285">request for care</tspan></text>
</g>
<g><!-- care activity -->
<a xlink:href="./care-activity.html" target="_top" xmlns:xlink="http://www.w3.org/1999/xlink"><rect x="765" y="272" width="150" height="75" fill="white" stroke="black" stroke-width="2"><title>activity intended to improve or maintain a health state </title></rect></a><text x="840" y="285" text-anchor="middle" font-family="Cambria" font-size="12" fill="black"><tspan x="840" y="285">care activity</tspan></text>
</g>
<g><!-- unintended event -->
<a xlink:href="./unintended-event.html" target="_top" xmlns:xlink="http://www.w3.org/1999/xlink"><rect x="1005" y="272" width="150" height="75" fill="white" stroke="black" stroke-width="2"><title>phenomenon that is not part of the normal course of a process</title></rect></a><text x="1080" y="285" text-anchor="middle" font-family="Cambria" font-size="12" fill="black"><tspan x="1080" y="285">unintended event</tspan></text>
</g>
<!-- Subclass row bus -->
<line x1="120" y1="252" x2="1080" y2="252" stroke="black" stroke-width="2" /><!-- Subclass row vertical to focal -->
<line x1="600" y1="242" x2="600" y2="252" stroke="black" stroke-width="2" /><polygon points="600,232 595,242 605,242" fill="white" stroke="black" stroke-width="2" /><line x1="120" y1="252" x2="120" y2="272" stroke="black" stroke-width="2" /><line x1="360" y1="252" x2="360" y2="272" stroke="black" stroke-width="2" /><line x1="600" y1="252" x2="600" y2="272" stroke="black" stroke-width="2" /><line x1="840" y1="252" x2="840" y2="272" stroke="black" stroke-width="2" /><line x1="1080" y1="252" x2="1080" y2="272" stroke="black" stroke-width="2" /></svg>