<svg xmlns="http://www.w3.org/2000/svg" viewBox="0 0 1200 237" role="img" aria-labelledby="title desc"><title id="title">Class Diagram of folder</title><desc id="desc">Generated diagram of focal class folder and related classes.</desc><!-- Super types of folder -->
<g><!-- health record component -->
<a xlink:href="./health-record-component.html" target="_top" xmlns:xlink="http://www.w3.org/1999/xlink"><rect x="525" y="5" width="150" height="75" fill="white" stroke="black" stroke-width="2"><title>part of a health record that is identifiable for the purposes of referencing and revision</title></rect></a><text x="600" y="18" text-anchor="middle" font-family="Cambria" font-size="12" fill="black"><tspan x="600" y="18">health record</tspan><tspan x="600" y="34">component</tspan></text>
</g>
<!-- Generalization folder -> health record component -->
<line x1="600" y1="155" x2="600" y2="135" stroke="black" stroke-width="2" /><line x1="600" y1="82" x2="600" y2="135" stroke="black" stroke-width="2" /><line x1="600" y1="135" x2="600" y2="135" stroke="black" stroke-width="2" /><polygon points="600,82 595,92 605,92" fill="white" stroke="black" stroke-width="2" /><!-- Self associations (pig's ear) adjacent to focal class -->
<g><!-- Self Association (adjacent) folder -->
<path d="M 677 174 L 752 174 L 752 210 L 677 210" fill="none" stroke="black" stroke-width="2" /><text x="681" y="170" text-anchor="start" font-family="Cambria" font-size="12" fill="black"><tspan x="681" y="170">0..*</tspan></text>
<text x="681" y="206" text-anchor="start" font-family="Cambria" font-size="12" fill="black"><tspan x="681" y="206">0..*</tspan></text>
<text x="756" y="192" text-anchor="start" font-family="Cambria" font-size="12" fill="black"><tspan x="756" y="192">folder</tspan></text>
</g>
<g><!-- Association composition composition -->
<line x1="155" y1="192" x2="525" y2="192" stroke="black" stroke-width="2" /><text x="175" y="188" text-anchor="start" font-family="Cambria" font-size="12" fill="black"><tspan x="175" y="188">0..*</tspan></text>
<text x="505" y="188" text-anchor="end" font-family="Cambria" font-size="12" fill="black"><tspan x="505" y="188">1..*</tspan></text>
<g transform="translate(509,192)"><polygon points="0,0 8,-6 16,0 8,6" fill="white" stroke="black" stroke-width="2" /></g></g>
<g><!-- composition -->
<a xlink:href="./composition.html" target="_top" xmlns:xlink="http://www.w3.org/1999/xlink"><rect x="5" y="155" width="150" height="75" fill="whitesmoke" stroke="black" stroke-width="2"><title>structure component containing information composed during one clinical encounter or documentation session, and committed within one health record</title></rect></a><text x="80" y="168" text-anchor="middle" font-family="Cambria" font-size="12" fill="black"><tspan x="80" y="168">composition</tspan></text>
</g>
<g><!-- Focal folder -->
<a xlink:href="./folder.html" target="_top" xmlns:xlink="http://www.w3.org/1999/xlink"><rect x="525" y="155" width="150" height="80" fill="white" stroke="black" stroke-width="2"><title>structure component used for creating hierarchical structures within an electronic health record extract and with compositions as leaf nodes</title></rect></a><text x="600" y="168" text-anchor="middle" font-family="Cambria" font-size="12" fill="black"><tspan x="600" y="168">folder</tspan></text>
</g>
</svg>