<svg xmlns="http://www.w3.org/2000/svg" viewBox="0 0 1200 672" role="img" aria-labelledby="title desc"><title id="title">Class Diagram of health thread</title><desc id="desc">Generated diagram of focal class health thread and related classes.</desc><!-- Super types of health thread -->
<g><!-- knowledge -->
<a xlink:href="./knowledge.html" target="_top" xmlns:xlink="http://www.w3.org/1999/xlink"><rect x="525" y="5" width="150" height="75" fill="white" stroke="black" stroke-width="2"><title>maintained, processed, and interpreted information</title></rect></a><text x="600" y="35" text-anchor="middle" font-family="Cambria" font-size="25" fill="black"><tspan x="600" y="35">knowledge</tspan></text>
</g>
<!-- Generalization health thread -> knowledge -->
<line x1="600" y1="155" x2="600" y2="135" stroke="black" stroke-width="2" /><line x1="600" y1="82" x2="600" y2="135" stroke="black" stroke-width="2" /><line x1="600" y1="135" x2="600" y2="135" stroke="black" stroke-width="2" /><polygon points="600,82 595,92 605,92" fill="white" stroke="black" stroke-width="2" /><!-- Self associations (pig's ear) adjacent to focal class -->
<g><!-- Self Association (adjacent) links -->
<path d="M 677 174 L 752 174 L 752 210 L 677 210" fill="none" stroke="black" stroke-width="2" /><text x="681" y="170" text-anchor="start" font-family="Cambria" font-size="22" fill="black"><tspan x="681" y="170">0..*</tspan></text>
<text x="681" y="206" text-anchor="start" font-family="Cambria" font-size="22" fill="black"><tspan x="681" y="206">1..*</tspan></text>
<text x="756" y="192" text-anchor="start" font-family="Cambria" font-size="22" fill="black"><tspan x="756" y="192">links</tspan></text>
</g>
<g><!-- Association defines care actor -->
<line x1="155" y1="192" x2="525" y2="192" stroke="black" stroke-width="2" /><text x="175" y="188" text-anchor="start" font-family="Cambria" font-size="22" fill="black"><tspan x="175" y="188">0..*</tspan></text>
<text x="505" y="188" text-anchor="end" font-family="Cambria" font-size="22" fill="black"><tspan x="505" y="188">1..*</tspan></text>
<text x="340" y="208" text-anchor="middle" font-family="Cambria" font-size="22" fill="black"><tspan x="340" y="208">defines</tspan></text>
</g>
<g><!-- care actor -->
<a xlink:href="./care-actor.html" target="_top" xmlns:xlink="http://www.w3.org/1999/xlink"><rect x="5" y="155" width="150" height="75" fill="whitesmoke" stroke="black" stroke-width="2"><title>organization or person participating in care</title></rect></a><text x="80" y="184" text-anchor="middle" font-family="Cambria" font-size="24.0625" fill="black"><tspan x="80" y="184">care</tspan><tspan x="80" y="212">actor</tspan></text>
</g>
<g><!-- Association addresses care plan -->
<line x1="155" y1="272" x2="525" y2="272" stroke="black" stroke-width="2" /><text x="175" y="268" text-anchor="start" font-family="Cambria" font-size="22" fill="black"><tspan x="175" y="268">1..*</tspan></text>
<text x="505" y="268" text-anchor="end" font-family="Cambria" font-size="22" fill="black"><tspan x="505" y="268">1..*</tspan></text>
<text x="340" y="288" text-anchor="middle" font-family="Cambria" font-size="22" fill="black"><tspan x="340" y="288">addresses</tspan></text>
</g>
<g><!-- care plan -->
<a xlink:href="./care-plan.html" target="_top" xmlns:xlink="http://www.w3.org/1999/xlink"><rect x="5" y="235" width="150" height="75" fill="whitesmoke" stroke="black" stroke-width="2"><title>dynamic, personalized plan including identified needed care activity, health objectives and care goals, relating to one or more specified health needs in a care process</title></rect></a><text x="80" y="265" text-anchor="middle" font-family="Cambria" font-size="25" fill="black"><tspan x="80" y="265">care plan</tspan></text>
</g>
<g><!-- Association concerns continuity facilitator mandate -->
<line x1="155" y1="352" x2="525" y2="352" stroke="black" stroke-width="2" /><text x="175" y="348" text-anchor="start" font-family="Cambria" font-size="22" fill="black"><tspan x="175" y="348">1..*</tspan></text>
<text x="505" y="348" text-anchor="end" font-family="Cambria" font-size="22" fill="black"><tspan x="505" y="348">1..*</tspan></text>
<text x="340" y="368" text-anchor="middle" font-family="Cambria" font-size="22" fill="black"><tspan x="340" y="368">concerns</tspan></text>
</g>
<g><!-- continuity facilitator mandate -->
<a xlink:href="./continuity-facilitator-mandate.html" target="_top" xmlns:xlink="http://www.w3.org/1999/xlink"><rect x="5" y="315" width="150" height="75" fill="whitesmoke" stroke="black" stroke-width="2"><title>care mandate assigning the right and obligation to monitor and coordinate the delivery of care to one subject of care including the right to retrieve relevant information and obligation to document all activities based on this mandate</title></rect></a><text x="80" y="336" text-anchor="middle" font-family="Cambria" font-size="16.5625" fill="black"><tspan x="80" y="336">continuity</tspan><tspan x="80" y="355">facilitator</tspan><tspan x="80" y="374">mandate</tspan></text>
</g>
<g><!-- Association health thread health matter -->
<line x1="155" y1="432" x2="525" y2="432" stroke="black" stroke-width="2" /><text x="175" y="428" text-anchor="start" font-family="Cambria" font-size="22" fill="black"><tspan x="175" y="428">0..*</tspan></text>
<text x="505" y="428" text-anchor="end" font-family="Cambria" font-size="22" fill="black"><tspan x="505" y="428">0..*</tspan></text>
<g transform="translate(509,432)"><polygon points="0,0 8,-6 16,0 8,6" fill="white" stroke="black" stroke-width="2" /></g></g>
<g><!-- health matter -->
<a xlink:href="./health-matter.html" target="_top" xmlns:xlink="http://www.w3.org/1999/xlink"><rect x="5" y="395" width="150" height="75" fill="whitesmoke" stroke="black" stroke-width="2"><title>circumstance contributing to the health state of a person</title></rect></a><text x="80" y="424" text-anchor="middle" font-family="Cambria" font-size="24.0625" fill="black"><tspan x="80" y="424">health</tspan><tspan x="80" y="452">matter</tspan></text>
</g>
<g><!-- Association delineates episodes of care bundle -->
<line x1="675" y1="272" x2="1045" y2="272" stroke="black" stroke-width="2" /><text x="695" y="268" text-anchor="start" font-family="Cambria" font-size="22" fill="black"><tspan x="695" y="268">0..1</tspan></text>
<text x="1023" y="268" text-anchor="end" font-family="Cambria" font-size="22" fill="black"><tspan x="1023" y="268">1..*</tspan></text>
<text x="860" y="288" text-anchor="middle" font-family="Cambria" font-size="22" fill="black"><tspan x="860" y="288">delineates</tspan></text>
</g>
<g><!-- episodes of care bundle -->
<a xlink:href="./episodes-of-care-bundle.html" target="_top" xmlns:xlink="http://www.w3.org/1999/xlink"><rect x="1045" y="235" width="150" height="75" fill="whitesmoke" stroke="black" stroke-width="2"><title>group of episodes of care delineated by a health thread</title></rect></a><text x="1120" y="260" text-anchor="middle" font-family="Cambria" font-size="20.9375" fill="black"><tspan x="1120" y="260">episodes of</tspan><tspan x="1120" y="285">care bundle</tspan></text>
</g>
<g><!-- Association delineates(1) health concern -->
<line x1="675" y1="352" x2="1045" y2="352" stroke="black" stroke-width="2" /><text x="695" y="348" text-anchor="start" font-family="Cambria" font-size="22" fill="black"><tspan x="695" y="348">0..1</tspan></text>
<text x="1023" y="348" text-anchor="end" font-family="Cambria" font-size="22" fill="black"><tspan x="1023" y="348">1</tspan></text>
<text x="860" y="368" text-anchor="middle" font-family="Cambria" font-size="22" fill="black"><tspan x="860" y="368">delineates(1)</tspan></text>
</g>
<g><!-- health concern -->
<a xlink:href="./health-concern.html" target="_top" xmlns:xlink="http://www.w3.org/1999/xlink"><rect x="1045" y="315" width="150" height="75" fill="whitesmoke" stroke="black" stroke-width="2"><title>health record extract that includes all health record components associated with a health thread for a specific concern</title></rect></a><text x="1120" y="344" text-anchor="middle" font-family="Cambria" font-size="24.0625" fill="black"><tspan x="1120" y="344">health</tspan><tspan x="1120" y="372">concern</tspan></text>
</g>
<g><!-- Focal health thread -->
<a xlink:href="./health-thread.html" target="_top" xmlns:xlink="http://www.w3.org/1999/xlink"><rect x="525" y="155" width="150" height="320" fill="white" stroke="black" stroke-width="2"><title>defined association between health matters as determined by one or more care actors</title></rect></a><text x="600" y="185" text-anchor="middle" font-family="Cambria" font-size="25" fill="black"><tspan x="600" y="185">health</tspan><tspan x="600" y="215">thread</tspan></text>
</g>
<g><!-- health problem list -->
<a xlink:href="./health-problem-list.html" target="_top" xmlns:xlink="http://www.w3.org/1999/xlink"><rect x="525" y="517" width="150" height="75" fill="white" stroke="black" stroke-width="2"><title>health thread linking a set of health problems</title></rect></a><text x="600" y="541" text-anchor="middle" font-family="Cambria" font-size="19.375" fill="black"><tspan x="600" y="541">health</tspan><tspan x="600" y="564">problem list</tspan></text>
</g>
<!-- Subclass row bus -->
<line x1="600" y1="497" x2="600" y2="497" stroke="black" stroke-width="2" /><!-- Subclass row vertical to focal -->
<line x1="600" y1="487" x2="600" y2="497" stroke="black" stroke-width="2" /><polygon points="600,477 595,487 605,487" fill="white" stroke="black" stroke-width="2" /><line x1="600" y1="497" x2="600" y2="517" stroke="black" stroke-width="2" /></svg>