<svg xmlns="http://www.w3.org/2000/svg" viewBox="0 0 1200 672" role="img" aria-labelledby="title desc"><title id="title">Class Diagram of health state</title><desc id="desc">Generated diagram of focal class health state and related classes.</desc><!-- Super types of health state -->
<g><!-- state -->
<a xlink:href="./state.html" target="_top" xmlns:xlink="http://www.w3.org/1999/xlink"><rect x="525" y="5" width="150" height="75" fill="white" stroke="black" stroke-width="2"><title></title></rect></a><text x="600" y="35" text-anchor="middle" font-family="Cambria" font-size="25" fill="black"><tspan x="600" y="35">state</tspan></text>
</g>
<!-- Generalization health state -> state -->
<line x1="600" y1="155" x2="600" y2="135" stroke="black" stroke-width="2" /><line x1="600" y1="82" x2="600" y2="135" stroke="black" stroke-width="2" /><line x1="600" y1="135" x2="600" y2="135" stroke="black" stroke-width="2" /><polygon points="600,82 595,92 605,92" fill="white" stroke="black" stroke-width="2" /><g><!-- Association clarifies care investigation -->
<line x1="155" y1="192" x2="525" y2="192" stroke="black" stroke-width="2" /><text x="175" y="188" text-anchor="start" font-family="Cambria" font-size="22" fill="black"><tspan x="175" y="188">1</tspan></text>
<text x="505" y="188" text-anchor="end" font-family="Cambria" font-size="22" fill="black"><tspan x="505" y="188">1</tspan></text>
<text x="340" y="208" text-anchor="middle" font-family="Cambria" font-size="22" fill="black"><tspan x="340" y="208">clarifies</tspan></text>
</g>
<g><!-- care investigation -->
<a xlink:href="./care-investigation.html" target="_top" xmlns:xlink="http://www.w3.org/1999/xlink"><rect x="5" y="155" width="150" height="75" fill="whitesmoke" stroke="black" stroke-width="2"><title>care activity with the intention to clarify one or more health conditions of a subject of care</title></rect></a><text x="80" y="184" text-anchor="middle" font-family="Cambria" font-size="24.0625" fill="black"><tspan x="80" y="184">care</tspan><tspan x="80" y="212">investigation</tspan></text>
</g>
<g><!-- Association influences care treatment -->
<line x1="155" y1="272" x2="525" y2="272" stroke="black" stroke-width="2" /><text x="175" y="268" text-anchor="start" font-family="Cambria" font-size="22" fill="black"><tspan x="175" y="268">1</tspan></text>
<text x="505" y="268" text-anchor="end" font-family="Cambria" font-size="22" fill="black"><tspan x="505" y="268">0..*</tspan></text>
<text x="340" y="288" text-anchor="middle" font-family="Cambria" font-size="22" fill="black"><tspan x="340" y="288">influences</tspan></text>
</g>
<g><!-- care treatment -->
<a xlink:href="./care-treatment.html" target="_top" xmlns:xlink="http://www.w3.org/1999/xlink"><rect x="5" y="235" width="150" height="75" fill="whitesmoke" stroke="black" stroke-width="2"><title>care activity intended to directly improve or maintain a health state</title></rect></a><text x="80" y="264" text-anchor="middle" font-family="Cambria" font-size="24.0625" fill="black"><tspan x="80" y="264">care</tspan><tspan x="80" y="292">treatment</tspan></text>
</g>
<g><!-- Association health state health matter -->
<line x1="155" y1="352" x2="525" y2="352" stroke="black" stroke-width="2" /><text x="175" y="348" text-anchor="start" font-family="Cambria" font-size="22" fill="black"><tspan x="175" y="348">1..*</tspan></text>
<text x="505" y="348" text-anchor="end" font-family="Cambria" font-size="22" fill="black"><tspan x="505" y="348">1</tspan></text>
<g transform="translate(509,352)"><polygon points="0,0 8,-6 16,0 8,6" fill="white" stroke="black" stroke-width="2" /></g></g>
<g><!-- health matter -->
<a xlink:href="./health-matter.html" target="_top" xmlns:xlink="http://www.w3.org/1999/xlink"><rect x="5" y="315" width="150" height="75" fill="whitesmoke" stroke="black" stroke-width="2"><title>circumstance contributing to the health state of a person</title></rect></a><text x="80" y="344" text-anchor="middle" font-family="Cambria" font-size="24.0625" fill="black"><tspan x="80" y="344">health</tspan><tspan x="80" y="372">matter</tspan></text>
</g>
<g><!-- Association deficit in health need -->
<line x1="155" y1="432" x2="525" y2="432" stroke="black" stroke-width="2" /><text x="175" y="428" text-anchor="start" font-family="Cambria" font-size="22" fill="black"><tspan x="175" y="428">1</tspan></text>
<text x="505" y="428" text-anchor="end" font-family="Cambria" font-size="22" fill="black"><tspan x="505" y="428">1</tspan></text>
<text x="340" y="448" text-anchor="middle" font-family="Cambria" font-size="22" fill="black"><tspan x="340" y="448">deficit in</tspan></text>
</g>
<g><!-- health need -->
<a xlink:href="./health-need.html" target="_top" xmlns:xlink="http://www.w3.org/1999/xlink"><rect x="5" y="395" width="150" height="75" fill="whitesmoke" stroke="black" stroke-width="2"><title>health matter causing a deficit in the current health state compared to aspects of a desired future health state</title></rect></a><text x="80" y="424" text-anchor="middle" font-family="Cambria" font-size="24.0625" fill="black"><tspan x="80" y="424">health</tspan><tspan x="80" y="452">need</tspan></text>
</g>
<g><!-- Association concerns person -->
<line x1="675" y1="192" x2="1045" y2="192" stroke="black" stroke-width="2" /><text x="695" y="188" text-anchor="start" font-family="Cambria" font-size="22" fill="black"><tspan x="695" y="188">1</tspan></text>
<text x="1023" y="188" text-anchor="end" font-family="Cambria" font-size="22" fill="black"><tspan x="1023" y="188">1</tspan></text>
<text x="860" y="208" text-anchor="middle" font-family="Cambria" font-size="22" fill="black"><tspan x="860" y="208">concerns</tspan></text>
</g>
<g><!-- person -->
<a xlink:href="./person.html" target="_top" xmlns:xlink="http://www.w3.org/1999/xlink"><rect x="1045" y="155" width="150" height="75" fill="whitesmoke" stroke="black" stroke-width="2"><title>individual human being</title></rect></a><text x="1120" y="185" text-anchor="middle" font-family="Cambria" font-size="25" fill="black"><tspan x="1120" y="185">person</tspan></text>
</g>
<g><!-- Focal health state -->
<a xlink:href="./health-state.html" target="_top" xmlns:xlink="http://www.w3.org/1999/xlink"><rect x="525" y="155" width="150" height="320" fill="white" stroke="black" stroke-width="2"><title>overall level of health of a subject of care</title></rect></a><text x="600" y="185" text-anchor="middle" font-family="Cambria" font-size="25" fill="black"><tspan x="600" y="185">health</tspan><tspan x="600" y="215">state</tspan></text>
</g>
<g><!-- output health state -->
<a xlink:href="./output-health-state.html" target="_top" xmlns:xlink="http://www.w3.org/1999/xlink"><rect x="225" y="517" width="150" height="75" fill="white" stroke="black" stroke-width="2"><title>health state at the end of a care process</title></rect></a><text x="300" y="541" text-anchor="middle" font-family="Cambria" font-size="19.375" fill="black"><tspan x="300" y="541">output</tspan><tspan x="300" y="564">health state</tspan></text>
</g>
<g><!-- input health state -->
<a xlink:href="./input-health-state.html" target="_top" xmlns:xlink="http://www.w3.org/1999/xlink"><rect x="825" y="517" width="150" height="75" fill="white" stroke="black" stroke-width="2"><title>health state at the start of a care process</title></rect></a><text x="900" y="541" text-anchor="middle" font-family="Cambria" font-size="19.375" fill="black"><tspan x="900" y="541">input health</tspan><tspan x="900" y="564">state</tspan></text>
</g>
<!-- Subclass row bus -->
<line x1="300" y1="497" x2="900" y2="497" stroke="black" stroke-width="2" /><!-- Subclass row vertical to focal -->
<line x1="600" y1="487" x2="600" y2="497" stroke="black" stroke-width="2" /><polygon points="600,477 595,487 605,487" fill="white" stroke="black" stroke-width="2" /><line x1="300" y1="497" x2="300" y2="517" stroke="black" stroke-width="2" /><line x1="900" y1="497" x2="900" y2="517" stroke="black" stroke-width="2" /></svg>