<svg xmlns="http://www.w3.org/2000/svg" viewBox="0 0 1200 512" role="img" aria-labelledby="title desc"><title id="title">Class Diagram of health condition period</title><desc id="desc">Generated diagram of focal class health condition period and related classes.</desc><!-- Super types of health condition period -->
<g><!-- health related period -->
<a xlink:href="./health-related-period.html" target="_top" xmlns:xlink="http://www.w3.org/1999/xlink"><rect x="525" y="5" width="150" height="75" fill="white" stroke="black" stroke-width="2"><title>time interval related to the health or care of a subject of care</title></rect></a><text x="600" y="26" text-anchor="middle" font-family="Cambria" font-size="16.5625" fill="black"><tspan x="600" y="26">health related</tspan><tspan x="600" y="45">period</tspan></text>
</g>
<!-- Generalization health condition period -> health related period -->
<line x1="600" y1="155" x2="600" y2="135" stroke="black" stroke-width="2" /><line x1="600" y1="82" x2="600" y2="135" stroke="black" stroke-width="2" /><line x1="600" y1="135" x2="600" y2="135" stroke="black" stroke-width="2" /><polygon points="600,82 595,92 605,92" fill="white" stroke="black" stroke-width="2" /><g><!-- Association observed during health condition -->
<line x1="155" y1="192" x2="525" y2="192" stroke="black" stroke-width="2" /><text x="175" y="188" text-anchor="start" font-family="Cambria" font-size="22" fill="black"><tspan x="175" y="188">1..*</tspan></text>
<text x="505" y="188" text-anchor="end" font-family="Cambria" font-size="22" fill="black"><tspan x="505" y="188">1</tspan></text>
<text x="340" y="208" text-anchor="middle" font-family="Cambria" font-size="22" fill="black"><tspan x="340" y="208">observed during</tspan></text>
</g>
<g><!-- health condition -->
<a xlink:href="./health-condition.html" target="_top" xmlns:xlink="http://www.w3.org/1999/xlink"><rect x="5" y="155" width="150" height="75" fill="whitesmoke" stroke="black" stroke-width="2"><title>aspect of a health state</title></rect></a><text x="80" y="184" text-anchor="middle" font-family="Cambria" font-size="24.0625" fill="black"><tspan x="80" y="184">health</tspan><tspan x="80" y="212">condition</tspan></text>
</g>
<g><!-- Association observed during observed condition -->
<line x1="155" y1="272" x2="525" y2="272" stroke="black" stroke-width="2" /><text x="175" y="268" text-anchor="start" font-family="Cambria" font-size="22" fill="black"><tspan x="175" y="268">1</tspan></text>
<text x="505" y="268" text-anchor="end" font-family="Cambria" font-size="22" fill="black"><tspan x="505" y="268">1..*</tspan></text>
<text x="340" y="288" text-anchor="middle" font-family="Cambria" font-size="22" fill="black"><tspan x="340" y="288">observed during</tspan></text>
</g>
<g><!-- observed condition -->
<a xlink:href="./observed-condition.html" target="_top" xmlns:xlink="http://www.w3.org/1999/xlink"><rect x="5" y="235" width="150" height="75" fill="whitesmoke" stroke="black" stroke-width="2"><title>health condition observed by a care actor</title></rect></a><text x="80" y="264" text-anchor="middle" font-family="Cambria" font-size="24.0625" fill="black"><tspan x="80" y="264">observed</tspan><tspan x="80" y="292">condition</tspan></text>
</g>
<g><!-- Focal health condition period -->
<a xlink:href="./health-condition-period.html" target="_top" xmlns:xlink="http://www.w3.org/1999/xlink"><rect x="525" y="155" width="150" height="160" fill="white" stroke="black" stroke-width="2"><title>health related period during which a health condition has been observed</title></rect></a><text x="600" y="185" text-anchor="middle" font-family="Cambria" font-size="25" fill="black"><tspan x="600" y="185">health</tspan><tspan x="600" y="215">condition</tspan><tspan x="600" y="245">period</tspan></text>
</g>
<g><!-- health condition delay -->
<a xlink:href="./health-condition-delay.html" target="_top" xmlns:xlink="http://www.w3.org/1999/xlink"><rect x="525" y="357" width="150" height="75" fill="white" stroke="black" stroke-width="2"><title>care activity delay caused by a health condition</title></rect></a><text x="600" y="378" text-anchor="middle" font-family="Cambria" font-size="16.5625" fill="black"><tspan x="600" y="378">health</tspan><tspan x="600" y="397">condition</tspan><tspan x="600" y="416">delay</tspan></text>
</g>
<!-- Subclass row bus -->
<line x1="600" y1="337" x2="600" y2="337" stroke="black" stroke-width="2" /><!-- Subclass row vertical to focal -->
<line x1="600" y1="327" x2="600" y2="337" stroke="black" stroke-width="2" /><polygon points="600,317 595,327 605,327" fill="white" stroke="black" stroke-width="2" /><line x1="600" y1="337" x2="600" y2="357" stroke="black" stroke-width="2" /></svg>