<svg xmlns="http://www.w3.org/2000/svg" viewBox="0 0 1200 592" role="img" aria-labelledby="title desc"><title id="title">Class Diagram of health record component</title><desc id="desc">Generated diagram of focal class health record component and related classes.</desc><!-- Super types of health record component -->
<g><!-- information -->
<a xlink:href="./information.html" target="_top" xmlns:xlink="http://www.w3.org/1999/xlink"><rect x="525" y="5" width="150" height="75" fill="white" stroke="black" stroke-width="2"><title>meaningful data</title></rect></a><text x="600" y="35" text-anchor="middle" font-family="Cambria" font-size="25" fill="black"><tspan x="600" y="35">information</tspan></text>
</g>
<!-- Generalization health record component -> information -->
<line x1="600" y1="155" x2="600" y2="135" stroke="black" stroke-width="2" /><line x1="600" y1="82" x2="600" y2="135" stroke="black" stroke-width="2" /><line x1="600" y1="135" x2="600" y2="135" stroke="black" stroke-width="2" /><polygon points="600,82 595,92 605,92" fill="white" stroke="black" stroke-width="2" /><!-- Self associations (pig's ear) adjacent to focal class -->
<g><!-- Self Association (adjacent) link -->
<path d="M 677 174 L 752 174 L 752 210 L 677 210" fill="none" stroke="black" stroke-width="2" /><text x="681" y="170" text-anchor="start" font-family="Cambria" font-size="22" fill="black"><tspan x="681" y="170">0..*</tspan></text>
<text x="681" y="206" text-anchor="start" font-family="Cambria" font-size="22" fill="black"><tspan x="681" y="206">0..*</tspan></text>
<text x="756" y="192" text-anchor="start" font-family="Cambria" font-size="22" fill="black"><tspan x="756" y="192">link</tspan></text>
</g>
<g><!-- Self Association (adjacent) contains -->
<path d="M 677 254 L 752 254 L 752 290 L 677 290" fill="none" stroke="black" stroke-width="2" /><g transform="translate(677,254)"><polygon points="0,0 8,-6 16,0 8,6" fill="white" stroke="black" stroke-width="2" /></g><text x="699" y="250" text-anchor="start" font-family="Cambria" font-size="22" fill="black"><tspan x="699" y="250">0..*</tspan></text>
<text x="681" y="286" text-anchor="start" font-family="Cambria" font-size="22" fill="black"><tspan x="681" y="286">0..*</tspan></text>
<text x="756" y="272" text-anchor="start" font-family="Cambria" font-size="22" fill="black"><tspan x="756" y="272">contains</tspan></text>
</g>
<g><!-- Association labels health matter -->
<line x1="155" y1="192" x2="525" y2="192" stroke="black" stroke-width="2" /><text x="175" y="188" text-anchor="start" font-family="Cambria" font-size="22" fill="black"><tspan x="175" y="188">1..*</tspan></text>
<text x="505" y="188" text-anchor="end" font-family="Cambria" font-size="22" fill="black"><tspan x="505" y="188">1</tspan></text>
<text x="340" y="208" text-anchor="middle" font-family="Cambria" font-size="22" fill="black"><tspan x="340" y="208">labels</tspan></text>
</g>
<g><!-- health matter -->
<a xlink:href="./health-matter.html" target="_top" xmlns:xlink="http://www.w3.org/1999/xlink"><rect x="5" y="155" width="150" height="75" fill="whitesmoke" stroke="black" stroke-width="2"><title>circumstance contributing to the health state of a person</title></rect></a><text x="80" y="184" text-anchor="middle" font-family="Cambria" font-size="24.0625" fill="black"><tspan x="80" y="184">health</tspan><tspan x="80" y="212">matter</tspan></text>
</g>
<g><!-- Association health record component health record -->
<line x1="155" y1="272" x2="525" y2="272" stroke="black" stroke-width="2" /><text x="175" y="268" text-anchor="start" font-family="Cambria" font-size="22" fill="black"><tspan x="175" y="268">1..*</tspan></text>
<text x="505" y="268" text-anchor="end" font-family="Cambria" font-size="22" fill="black"><tspan x="505" y="268">1..*</tspan></text>
<text x="340" y="288" text-anchor="middle" font-family="Cambria" font-size="22" fill="black"><tspan x="340" y="288">health record component</tspan></text>
</g>
<g><!-- health record -->
<a xlink:href="./health-record.html" target="_top" xmlns:xlink="http://www.w3.org/1999/xlink"><rect x="5" y="235" width="150" height="75" fill="whitesmoke" stroke="black" stroke-width="2"><title>data repository regarding the health and care of a subject of care</title></rect></a><text x="80" y="264" text-anchor="middle" font-family="Cambria" font-size="24.0625" fill="black"><tspan x="80" y="264">health</tspan><tspan x="80" y="292">record</tspan></text>
</g>
<g><!-- Association contains health record extract -->
<line x1="155" y1="352" x2="525" y2="352" stroke="black" stroke-width="2" /><text x="175" y="348" text-anchor="start" font-family="Cambria" font-size="22" fill="black"><tspan x="175" y="348">1..*</tspan></text>
<text x="505" y="348" text-anchor="end" font-family="Cambria" font-size="22" fill="black"><tspan x="505" y="348">0..*</tspan></text>
<text x="340" y="368" text-anchor="middle" font-family="Cambria" font-size="22" fill="black"><tspan x="340" y="368">contains</tspan></text>
</g>
<g><!-- health record extract -->
<a xlink:href="./health-record-extract.html" target="_top" xmlns:xlink="http://www.w3.org/1999/xlink"><rect x="5" y="315" width="150" height="75" fill="whitesmoke" stroke="black" stroke-width="2"><title>part or all of a health record extracted for the purpose of communication</title></rect></a><text x="80" y="337" text-anchor="middle" font-family="Cambria" font-size="17.8125" fill="black"><tspan x="80" y="337">health record</tspan><tspan x="80" y="358">extract</tspan></text>
</g>
<g><!-- Focal health record component -->
<a xlink:href="./health-record-component.html" target="_top" xmlns:xlink="http://www.w3.org/1999/xlink"><rect x="525" y="155" width="150" height="240" fill="white" stroke="black" stroke-width="2"><title>part of a health record that is identifiable for the purposes of referencing and revision</title></rect></a><text x="600" y="185" text-anchor="middle" font-family="Cambria" font-size="25" fill="black"><tspan x="600" y="185">health</tspan><tspan x="600" y="215">record</tspan><tspan x="600" y="245">component</tspan></text>
</g>
<g><!-- folder -->
<a xlink:href="./folder.html" target="_top" xmlns:xlink="http://www.w3.org/1999/xlink"><rect x="125" y="437" width="150" height="75" fill="white" stroke="black" stroke-width="2"><title>structure component used for creating hierarchical structures within an electronic health record extract and with compositions as leaf nodes</title></rect></a><text x="200" y="467" text-anchor="middle" font-family="Cambria" font-size="25" fill="black"><tspan x="200" y="467">folder</tspan></text>
</g>
<g><!-- composition -->
<a xlink:href="./composition.html" target="_top" xmlns:xlink="http://www.w3.org/1999/xlink"><rect x="525" y="437" width="150" height="75" fill="white" stroke="black" stroke-width="2"><title>structure component containing information composed during one clinical encounter or documentation session, and committed within one health record</title></rect></a><text x="600" y="467" text-anchor="middle" font-family="Cambria" font-size="25" fill="black"><tspan x="600" y="467">composition</tspan></text>
</g>
<g><!-- entry -->
<a xlink:href="./entry.html" target="_top" xmlns:xlink="http://www.w3.org/1999/xlink"><rect x="925" y="437" width="150" height="75" fill="white" stroke="black" stroke-width="2"><title>health record component that represents the data documenting one  observation or a series of related observations, or a  statement, an explanation of reasoning, a care intention, plan or action</title></rect></a><text x="1000" y="467" text-anchor="middle" font-family="Cambria" font-size="25" fill="black"><tspan x="1000" y="467">entry</tspan></text>
</g>
<!-- Subclass row bus -->
<line x1="200" y1="417" x2="1000" y2="417" stroke="black" stroke-width="2" /><!-- Subclass row vertical to focal -->
<line x1="600" y1="407" x2="600" y2="417" stroke="black" stroke-width="2" /><polygon points="600,397 595,407 605,407" fill="white" stroke="black" stroke-width="2" /><line x1="200" y1="417" x2="200" y2="437" stroke="black" stroke-width="2" /><line x1="600" y1="417" x2="600" y2="437" stroke="black" stroke-width="2" /><line x1="1000" y1="417" x2="1000" y2="437" stroke="black" stroke-width="2" /></svg>