<svg xmlns="http://www.w3.org/2000/svg" viewBox="0 0 1200 592" role="img" aria-labelledby="title desc"><title id="title">Class Diagram of health need</title><desc id="desc">Generated diagram of focal class health need and related classes.</desc><!-- Super types of health need -->
<g><!-- health matter -->
<a xlink:href="./health-matter.html" target="_top" xmlns:xlink="http://www.w3.org/1999/xlink"><rect x="525" y="5" width="150" height="75" fill="white" stroke="black" stroke-width="2"><title>circumstance contributing to the health state of a person</title></rect></a><text x="600" y="34" text-anchor="middle" font-family="Cambria" font-size="24.0625" fill="black"><tspan x="600" y="34">health</tspan><tspan x="600" y="62">matter</tspan></text>
</g>
<!-- Generalization health need -> health matter -->
<line x1="600" y1="155" x2="600" y2="135" stroke="black" stroke-width="2" /><line x1="600" y1="82" x2="600" y2="135" stroke="black" stroke-width="2" /><line x1="600" y1="135" x2="600" y2="135" stroke="black" stroke-width="2" /><polygon points="600,82 595,92 605,92" fill="white" stroke="black" stroke-width="2" /><g><!-- Association addresses intended outcome -->
<line x1="155" y1="192" x2="525" y2="192" stroke="black" stroke-width="2" /><text x="175" y="188" text-anchor="start" font-family="Cambria" font-size="22" fill="black"><tspan x="175" y="188">1..*</tspan></text>
<text x="505" y="188" text-anchor="end" font-family="Cambria" font-size="22" fill="black"><tspan x="505" y="188">0..*</tspan></text>
<text x="340" y="208" text-anchor="middle" font-family="Cambria" font-size="22" fill="black"><tspan x="340" y="208">addresses</tspan></text>
</g>
<g><!-- intended outcome -->
<a xlink:href="./intended-outcome.html" target="_top" xmlns:xlink="http://www.w3.org/1999/xlink"><rect x="5" y="155" width="150" height="75" fill="whitesmoke" stroke="black" stroke-width="2"><title>desired achievement of a care process addressing health needs</title></rect></a><text x="80" y="184" text-anchor="middle" font-family="Cambria" font-size="24.0625" fill="black"><tspan x="80" y="184">intended</tspan><tspan x="80" y="212">outcome</tspan></text>
</g>
<g><!-- Association addresses needed care activity -->
<line x1="155" y1="272" x2="525" y2="272" stroke="black" stroke-width="2" /><text x="175" y="268" text-anchor="start" font-family="Cambria" font-size="22" fill="black"><tspan x="175" y="268">1..*</tspan></text>
<text x="505" y="268" text-anchor="end" font-family="Cambria" font-size="22" fill="black"><tspan x="505" y="268">1..*</tspan></text>
<text x="340" y="288" text-anchor="middle" font-family="Cambria" font-size="22" fill="black"><tspan x="340" y="288">addresses</tspan></text>
</g>
<g><!-- needed care activity -->
<a xlink:href="./needed-care-activity.html" target="_top" xmlns:xlink="http://www.w3.org/1999/xlink"><rect x="5" y="235" width="150" height="75" fill="whitesmoke" stroke="black" stroke-width="2"><title>care activity bundle which includes those care activities assessed as needed to address specified health need</title></rect></a><text x="80" y="260" text-anchor="middle" font-family="Cambria" font-size="20.9375" fill="black"><tspan x="80" y="260">needed care</tspan><tspan x="80" y="285">activity</tspan></text>
</g>
<g><!-- Association has or has had subject of care -->
<line x1="155" y1="352" x2="525" y2="352" stroke="black" stroke-width="2" /><text x="175" y="348" text-anchor="start" font-family="Cambria" font-size="22" fill="black"><tspan x="175" y="348">0..*</tspan></text>
<text x="505" y="348" text-anchor="end" font-family="Cambria" font-size="22" fill="black"><tspan x="505" y="348">1</tspan></text>
<text x="340" y="368" text-anchor="middle" font-family="Cambria" font-size="22" fill="black"><tspan x="340" y="368">has or has had</tspan></text>
</g>
<g><!-- subject of care -->
<a xlink:href="./subject-of-care.html" target="_top" xmlns:xlink="http://www.w3.org/1999/xlink"><rect x="5" y="315" width="150" height="75" fill="whitesmoke" stroke="black" stroke-width="2"><title>person seeking to receive, receiving, or having received care</title></rect></a><text x="80" y="344" text-anchor="middle" font-family="Cambria" font-size="24.0625" fill="black"><tspan x="80" y="344">subject</tspan><tspan x="80" y="372">of care</tspan></text>
</g>
<g><!-- Association considered during care needs assessment -->
<line x1="675" y1="192" x2="1045" y2="192" stroke="black" stroke-width="2" /><text x="695" y="188" text-anchor="start" font-family="Cambria" font-size="22" fill="black"><tspan x="695" y="188">1..*</tspan></text>
<text x="1023" y="188" text-anchor="end" font-family="Cambria" font-size="22" fill="black"><tspan x="1023" y="188">0..*</tspan></text>
<text x="860" y="208" text-anchor="middle" font-family="Cambria" font-size="22" fill="black"><tspan x="860" y="208">considered during</tspan></text>
</g>
<g><!-- care needs assessment -->
<a xlink:href="./care-needs-assessment.html" target="_top" xmlns:xlink="http://www.w3.org/1999/xlink"><rect x="1045" y="155" width="150" height="75" fill="whitesmoke" stroke="black" stroke-width="2"><title>care assessment during which a care professional considers a subject of care’s health needs and determines needed care activities</title></rect></a><text x="1120" y="183" text-anchor="middle" font-family="Cambria" font-size="23.125" fill="black"><tspan x="1120" y="183">care needs</tspan><tspan x="1120" y="210">assessment</tspan></text>
</g>
<g><!-- Association deficit in health state -->
<line x1="675" y1="272" x2="1045" y2="272" stroke="black" stroke-width="2" /><text x="695" y="268" text-anchor="start" font-family="Cambria" font-size="22" fill="black"><tspan x="695" y="268">1</tspan></text>
<text x="1023" y="268" text-anchor="end" font-family="Cambria" font-size="22" fill="black"><tspan x="1023" y="268">1</tspan></text>
<text x="860" y="288" text-anchor="middle" font-family="Cambria" font-size="22" fill="black"><tspan x="860" y="288">deficit in</tspan></text>
</g>
<g><!-- health state -->
<a xlink:href="./health-state.html" target="_top" xmlns:xlink="http://www.w3.org/1999/xlink"><rect x="1045" y="235" width="150" height="75" fill="whitesmoke" stroke="black" stroke-width="2"><title>overall level of health of a subject of care</title></rect></a><text x="1120" y="264" text-anchor="middle" font-family="Cambria" font-size="24.0625" fill="black"><tspan x="1120" y="264">health</tspan><tspan x="1120" y="292">state</tspan></text>
</g>
<g><!-- Association background for reason for request for care -->
<line x1="675" y1="352" x2="1045" y2="352" stroke="black" stroke-width="2" /><text x="695" y="348" text-anchor="start" font-family="Cambria" font-size="22" fill="black"><tspan x="695" y="348">0..*</tspan></text>
<text x="1023" y="348" text-anchor="end" font-family="Cambria" font-size="22" fill="black"><tspan x="1023" y="348">0..*</tspan></text>
<text x="860" y="368" text-anchor="middle" font-family="Cambria" font-size="22" fill="black"><tspan x="860" y="368">background for</tspan></text>
</g>
<g><!-- reason for request for care -->
<a xlink:href="./reason-for-request-for-care.html" target="_top" xmlns:xlink="http://www.w3.org/1999/xlink"><rect x="1045" y="315" width="150" height="75" fill="whitesmoke" stroke="black" stroke-width="2"><title>motive for a request for care</title></rect></a><text x="1120" y="336" text-anchor="middle" font-family="Cambria" font-size="16.5625" fill="black"><tspan x="1120" y="336">reason for</tspan><tspan x="1120" y="355">request for</tspan><tspan x="1120" y="374">care</tspan></text>
</g>
<g><!-- Focal health need -->
<a xlink:href="./health-need.html" target="_top" xmlns:xlink="http://www.w3.org/1999/xlink"><rect x="525" y="155" width="150" height="240" fill="white" stroke="black" stroke-width="2"><title>health matter causing a deficit in the current health state compared to aspects of a desired future health state</title></rect></a><text x="600" y="185" text-anchor="middle" font-family="Cambria" font-size="25" fill="black"><tspan x="600" y="185">health</tspan><tspan x="600" y="215">need</tspan></text>
</g>
<g><!-- clinical need -->
<a xlink:href="./clinical-need.html" target="_top" xmlns:xlink="http://www.w3.org/1999/xlink"><rect x="225" y="437" width="150" height="75" fill="white" stroke="black" stroke-width="2"><title>health need related to the body or mind</title></rect></a><text x="300" y="466" text-anchor="middle" font-family="Cambria" font-size="24.0625" fill="black"><tspan x="300" y="466">clinical</tspan><tspan x="300" y="494">need</tspan></text>
</g>
<g><!-- social need -->
<a xlink:href="./social-need.html" target="_top" xmlns:xlink="http://www.w3.org/1999/xlink"><rect x="825" y="437" width="150" height="75" fill="white" stroke="black" stroke-width="2"><title>health need related to social determinants of health</title></rect></a><text x="900" y="466" text-anchor="middle" font-family="Cambria" font-size="24.0625" fill="black"><tspan x="900" y="466">social</tspan><tspan x="900" y="494">need</tspan></text>
</g>
<!-- Subclass row bus -->
<line x1="300" y1="417" x2="900" y2="417" stroke="black" stroke-width="2" /><!-- Subclass row vertical to focal -->
<line x1="600" y1="407" x2="600" y2="417" stroke="black" stroke-width="2" /><polygon points="600,397 595,407 605,407" fill="white" stroke="black" stroke-width="2" /><line x1="300" y1="417" x2="300" y2="437" stroke="black" stroke-width="2" /><line x1="900" y1="417" x2="900" y2="437" stroke="black" stroke-width="2" /></svg>