<svg xmlns="http://www.w3.org/2000/svg" viewBox="0 0 1200 237" role="img" aria-labelledby="title desc"><title id="title">Class Diagram of health problem</title><desc id="desc">Generated diagram of focal class health problem and related classes.</desc><!-- Super types of health problem -->
<g><!-- health issue -->
<a xlink:href="./health-issue.html" target="_top" xmlns:xlink="http://www.w3.org/1999/xlink"><rect x="525" y="5" width="150" height="75" fill="white" stroke="black" stroke-width="2"><title>health condition motivating care</title></rect></a><text x="600" y="34" text-anchor="middle" font-family="Cambria" font-size="24.0625" fill="black"><tspan x="600" y="34">health</tspan><tspan x="600" y="62">issue</tspan></text>
</g>
<!-- Generalization health problem -> health issue -->
<line x1="600" y1="155" x2="600" y2="135" stroke="black" stroke-width="2" /><line x1="600" y1="82" x2="600" y2="135" stroke="black" stroke-width="2" /><line x1="600" y1="135" x2="600" y2="135" stroke="black" stroke-width="2" /><polygon points="600,82 595,92 605,92" fill="white" stroke="black" stroke-width="2" /><g><!-- Association included in health problem list -->
<line x1="675" y1="192" x2="1045" y2="192" stroke="black" stroke-width="2" /><text x="695" y="188" text-anchor="start" font-family="Cambria" font-size="22" fill="black"><tspan x="695" y="188">1..*</tspan></text>
<text x="1023" y="188" text-anchor="end" font-family="Cambria" font-size="22" fill="black"><tspan x="1023" y="188">0..*</tspan></text>
<g transform="translate(1029,192)"><polygon points="0,0 8,-6 16,0 8,6" fill="white" stroke="black" stroke-width="2" /></g><text x="860" y="208" text-anchor="middle" font-family="Cambria" font-size="22" fill="black"><tspan x="860" y="208">included in</tspan></text>
</g>
<g><!-- health problem list -->
<a xlink:href="./health-problem-list.html" target="_top" xmlns:xlink="http://www.w3.org/1999/xlink"><rect x="1045" y="155" width="150" height="75" fill="whitesmoke" stroke="black" stroke-width="2"><title>health thread linking a set of health problems</title></rect></a><text x="1120" y="179" text-anchor="middle" font-family="Cambria" font-size="19.375" fill="black"><tspan x="1120" y="179">health</tspan><tspan x="1120" y="202">problem list</tspan></text>
</g>
<g><!-- Focal health problem -->
<a xlink:href="./health-problem.html" target="_top" xmlns:xlink="http://www.w3.org/1999/xlink"><rect x="525" y="155" width="150" height="80" fill="white" stroke="black" stroke-width="2"><title>health issue considered by a care actor to be a problem</title></rect></a><text x="600" y="185" text-anchor="middle" font-family="Cambria" font-size="25" fill="black"><tspan x="600" y="185">health</tspan><tspan x="600" y="215">problem</tspan></text>
</g>
</svg>