<svg xmlns="http://www.w3.org/2000/svg" viewBox="0 0 1200 237" role="img" aria-labelledby="title desc"><title id="title">Class Diagram of health problem list</title><desc id="desc">Generated diagram of focal class health problem list and related classes.</desc><!-- Super types of health problem list -->
<g><!-- health thread -->
<a xlink:href="./health-thread.html" target="_top" xmlns:xlink="http://www.w3.org/1999/xlink"><rect x="525" y="5" width="150" height="75" fill="white" stroke="black" stroke-width="2"><title>defined association between health matters as determined by one or more care actors</title></rect></a><text x="600" y="18" text-anchor="middle" font-family="Cambria" font-size="12" fill="black"><tspan x="600" y="18">health thread</tspan></text>
</g>
<!-- Generalization health problem list -> health thread -->
<line x1="600" y1="155" x2="600" y2="135" stroke="black" stroke-width="2" /><line x1="600" y1="82" x2="600" y2="135" stroke="black" stroke-width="2" /><line x1="600" y1="135" x2="600" y2="135" stroke="black" stroke-width="2" /><polygon points="600,82 595,92 605,92" fill="white" stroke="black" stroke-width="2" /><g><!-- Association included in health problem -->
<line x1="155" y1="192" x2="525" y2="192" stroke="black" stroke-width="2" /><text x="175" y="188" text-anchor="start" font-family="Cambria" font-size="12" fill="black"><tspan x="175" y="188">0..*</tspan></text>
<text x="505" y="188" text-anchor="end" font-family="Cambria" font-size="12" fill="black"><tspan x="505" y="188">1..*</tspan></text>
<g transform="translate(509,192)"><polygon points="0,0 8,-6 16,0 8,6" fill="white" stroke="black" stroke-width="2" /></g><text x="340" y="208" text-anchor="middle" font-family="Cambria" font-size="12" fill="black"><tspan x="340" y="208">included in</tspan></text>
</g>
<g><!-- health problem -->
<a xlink:href="./health-problem.html" target="_top" xmlns:xlink="http://www.w3.org/1999/xlink"><rect x="5" y="155" width="150" height="75" fill="whitesmoke" stroke="black" stroke-width="2"><title>health issue considered by a care actor to be a problem</title></rect></a><text x="80" y="168" text-anchor="middle" font-family="Cambria" font-size="12" fill="black"><tspan x="80" y="168">health problem</tspan></text>
</g>
<g><!-- Focal health problem list -->
<a xlink:href="./health-problem-list.html" target="_top" xmlns:xlink="http://www.w3.org/1999/xlink"><rect x="525" y="155" width="150" height="80" fill="white" stroke="black" stroke-width="2"><title>health thread linking a set of health problems</title></rect></a><text x="600" y="168" text-anchor="middle" font-family="Cambria" font-size="12" fill="black"><tspan x="600" y="168">health problem list</tspan></text>
</g>
</svg>