<svg xmlns="http://www.w3.org/2000/svg" viewBox="0 0 1200 797" role="img" aria-labelledby="title desc"><title id="title">Class Diagram of health matter</title><desc id="desc">Generated diagram of focal class health matter and related classes.</desc><!-- Super types of health matter -->
<g><!-- state -->
<a xlink:href="./state.html" target="_top" xmlns:xlink="http://www.w3.org/1999/xlink"><rect x="525" y="5" width="150" height="75" fill="white" stroke="black" stroke-width="2"><title></title></rect></a><text x="600" y="18" text-anchor="middle" font-family="Cambria" font-size="12" fill="black"><tspan x="600" y="18">state</tspan></text>
</g>
<!-- Generalization health matter -> state -->
<line x1="600" y1="155" x2="600" y2="135" stroke="black" stroke-width="2" /><line x1="600" y1="82" x2="600" y2="135" stroke="black" stroke-width="2" /><line x1="600" y1="135" x2="600" y2="135" stroke="black" stroke-width="2" /><polygon points="600,82 595,92 605,92" fill="white" stroke="black" stroke-width="2" /><g><!-- Association identifies care actor -->
<line x1="155" y1="192" x2="525" y2="192" stroke="black" stroke-width="2" /><text x="175" y="188" text-anchor="start" font-family="Cambria" font-size="12" fill="black"><tspan x="175" y="188">1..*</tspan></text>
<text x="505" y="188" text-anchor="end" font-family="Cambria" font-size="12" fill="black"><tspan x="505" y="188">0..*</tspan></text>
<text x="340" y="208" text-anchor="middle" font-family="Cambria" font-size="12" fill="black"><tspan x="340" y="208">identifies</tspan></text>
</g>
<g><!-- care actor -->
<a xlink:href="./care-actor.html" target="_top" xmlns:xlink="http://www.w3.org/1999/xlink"><rect x="5" y="155" width="150" height="75" fill="whitesmoke" stroke="black" stroke-width="2"><title>organization or person participating in care</title></rect></a><text x="80" y="168" text-anchor="middle" font-family="Cambria" font-size="12" fill="black"><tspan x="80" y="168">care actor</tspan></text>
</g>
<g><!-- Association attests health certificate -->
<line x1="155" y1="272" x2="525" y2="272" stroke="black" stroke-width="2" /><text x="175" y="268" text-anchor="start" font-family="Cambria" font-size="12" fill="black"><tspan x="175" y="268">0..*</tspan></text>
<text x="505" y="268" text-anchor="end" font-family="Cambria" font-size="12" fill="black"><tspan x="505" y="268">1..*</tspan></text>
<text x="340" y="288" text-anchor="middle" font-family="Cambria" font-size="12" fill="black"><tspan x="340" y="288">attests</tspan></text>
</g>
<g><!-- health certificate -->
<a xlink:href="./health-certificate.html" target="_top" xmlns:xlink="http://www.w3.org/1999/xlink"><rect x="5" y="235" width="150" height="75" fill="whitesmoke" stroke="black" stroke-width="2"><title>official document issued by a care actor attesting the relevant health matters of a subject of care</title></rect></a><text x="80" y="248" text-anchor="middle" font-family="Cambria" font-size="12" fill="black"><tspan x="80" y="248">health certificate</tspan></text>
</g>
<g><!-- Association concerns mandate to export personal information -->
<line x1="155" y1="352" x2="525" y2="352" stroke="black" stroke-width="2" /><text x="175" y="348" text-anchor="start" font-family="Cambria" font-size="12" fill="black"><tspan x="175" y="348">0..*</tspan></text>
<text x="505" y="348" text-anchor="end" font-family="Cambria" font-size="12" fill="black"><tspan x="505" y="348">0..*</tspan></text>
<text x="340" y="368" text-anchor="middle" font-family="Cambria" font-size="12" fill="black"><tspan x="340" y="368">concerns</tspan></text>
</g>
<g><!-- mandate to export personal information -->
<a xlink:href="./mandate-to-export-personal-information.html" target="_top" xmlns:xlink="http://www.w3.org/1999/xlink"><rect x="5" y="315" width="150" height="75" fill="whitesmoke" stroke="black" stroke-width="2"><title>care mandate implying the right to communicate health record extracts</title></rect></a><text x="80" y="328" text-anchor="middle" font-family="Cambria" font-size="12" fill="black"><tspan x="80" y="328">mandate to export</tspan><tspan x="80" y="344">personal</tspan><tspan x="80" y="360">information</tspan></text>
</g>
<g><!-- Association concerns request for care -->
<line x1="155" y1="432" x2="525" y2="432" stroke="black" stroke-width="2" /><text x="175" y="428" text-anchor="start" font-family="Cambria" font-size="12" fill="black"><tspan x="175" y="428">1..*</tspan></text>
<text x="505" y="428" text-anchor="end" font-family="Cambria" font-size="12" fill="black"><tspan x="505" y="428">1..*</tspan></text>
<text x="340" y="448" text-anchor="middle" font-family="Cambria" font-size="12" fill="black"><tspan x="340" y="448">concerns</tspan></text>
</g>
<g><!-- request for care -->
<a xlink:href="./request-for-care.html" target="_top" xmlns:xlink="http://www.w3.org/1999/xlink"><rect x="5" y="395" width="150" height="75" fill="whitesmoke" stroke="black" stroke-width="2"><title>request for care provider activities</title></rect></a><text x="80" y="408" text-anchor="middle" font-family="Cambria" font-size="12" fill="black"><tspan x="80" y="408">request for care</tspan></text>
</g>
<g><!-- Association labels health record component -->
<line x1="675" y1="192" x2="1045" y2="192" stroke="black" stroke-width="2" /><text x="695" y="188" text-anchor="start" font-family="Cambria" font-size="12" fill="black"><tspan x="695" y="188">1</tspan></text>
<text x="1023" y="188" text-anchor="end" font-family="Cambria" font-size="12" fill="black"><tspan x="1023" y="188">1..*</tspan></text>
<text x="860" y="208" text-anchor="middle" font-family="Cambria" font-size="12" fill="black"><tspan x="860" y="208">labels</tspan></text>
</g>
<g><!-- health record component -->
<a xlink:href="./health-record-component.html" target="_top" xmlns:xlink="http://www.w3.org/1999/xlink"><rect x="1045" y="155" width="150" height="75" fill="whitesmoke" stroke="black" stroke-width="2"><title>part of a health record that is identifiable for the purposes of referencing and revision</title></rect></a><text x="1120" y="168" text-anchor="middle" font-family="Cambria" font-size="12" fill="black"><tspan x="1120" y="168">health record</tspan><tspan x="1120" y="184">component</tspan></text>
</g>
<g><!-- Association health state health state -->
<line x1="675" y1="272" x2="1045" y2="272" stroke="black" stroke-width="2" /><text x="695" y="268" text-anchor="start" font-family="Cambria" font-size="12" fill="black"><tspan x="695" y="268">1</tspan></text>
<text x="1023" y="268" text-anchor="end" font-family="Cambria" font-size="12" fill="black"><tspan x="1023" y="268">1..*</tspan></text>
<g transform="translate(1029,272)"><polygon points="0,0 8,-6 16,0 8,6" fill="white" stroke="black" stroke-width="2" /></g></g>
<g><!-- health state -->
<a xlink:href="./health-state.html" target="_top" xmlns:xlink="http://www.w3.org/1999/xlink"><rect x="1045" y="235" width="150" height="75" fill="whitesmoke" stroke="black" stroke-width="2"><title>overall level of health of a subject of care</title></rect></a><text x="1120" y="248" text-anchor="middle" font-family="Cambria" font-size="12" fill="black"><tspan x="1120" y="248">health state</tspan></text>
</g>
<g><!-- Association health thread health thread -->
<line x1="675" y1="352" x2="1045" y2="352" stroke="black" stroke-width="2" /><text x="695" y="348" text-anchor="start" font-family="Cambria" font-size="12" fill="black"><tspan x="695" y="348">0..*</tspan></text>
<text x="1023" y="348" text-anchor="end" font-family="Cambria" font-size="12" fill="black"><tspan x="1023" y="348">0..*</tspan></text>
<g transform="translate(1029,352)"><polygon points="0,0 8,-6 16,0 8,6" fill="white" stroke="black" stroke-width="2" /></g></g>
<g><!-- health thread -->
<a xlink:href="./health-thread.html" target="_top" xmlns:xlink="http://www.w3.org/1999/xlink"><rect x="1045" y="315" width="150" height="75" fill="whitesmoke" stroke="black" stroke-width="2"><title>defined association between health matters as determined by one or more care actors</title></rect></a><text x="1120" y="328" text-anchor="middle" font-family="Cambria" font-size="12" fill="black"><tspan x="1120" y="328">health thread</tspan></text>
</g>
<g><!-- Focal health matter -->
<a xlink:href="./health-matter.html" target="_top" xmlns:xlink="http://www.w3.org/1999/xlink"><rect x="525" y="155" width="150" height="320" fill="white" stroke="black" stroke-width="2"><title>circumstance contributing to the health state of a person</title></rect></a><text x="600" y="168" text-anchor="middle" font-family="Cambria" font-size="12" fill="black"><tspan x="600" y="168">health matter</tspan></text>
</g>
<g><!-- social matter -->
<a xlink:href="./social-matter.html" target="_top" xmlns:xlink="http://www.w3.org/1999/xlink"><rect x="25" y="517" width="150" height="75" fill="white" stroke="black" stroke-width="2"><title>health matter concerning how a subject of care lives in their social environment</title></rect></a><text x="100" y="530" text-anchor="middle" font-family="Cambria" font-size="12" fill="black"><tspan x="100" y="530">social matter</tspan></text>
</g>
<g><!-- health need -->
<a xlink:href="./health-need.html" target="_top" xmlns:xlink="http://www.w3.org/1999/xlink"><rect x="225" y="517" width="150" height="75" fill="white" stroke="black" stroke-width="2"><title>health matter causing a deficit in the current health state compared to aspects of a desired future health state</title></rect></a><text x="300" y="530" text-anchor="middle" font-family="Cambria" font-size="12" fill="black"><tspan x="300" y="530">health need</tspan></text>
</g>
<g><!-- health issue -->
<a xlink:href="./health-issue.html" target="_top" xmlns:xlink="http://www.w3.org/1999/xlink"><rect x="425" y="517" width="150" height="75" fill="white" stroke="black" stroke-width="2"><title>health condition motivating care</title></rect></a><text x="500" y="530" text-anchor="middle" font-family="Cambria" font-size="12" fill="black"><tspan x="500" y="530">health issue</tspan></text>
</g>
<g><!-- intended outcome -->
<a xlink:href="./intended-outcome.html" target="_top" xmlns:xlink="http://www.w3.org/1999/xlink"><rect x="625" y="517" width="150" height="75" fill="white" stroke="black" stroke-width="2"><title>desired achievement of a care process addressing health needs</title></rect></a><text x="700" y="530" text-anchor="middle" font-family="Cambria" font-size="12" fill="black"><tspan x="700" y="530">intended outcome</tspan></text>
</g>
<g><!-- care goal -->
<a xlink:href="./care-goal.html" target="_top" xmlns:xlink="http://www.w3.org/1999/xlink"><rect x="825" y="517" width="150" height="75" fill="white" stroke="black" stroke-width="2"><title>desired achievement of one or more care activities</title></rect></a><text x="900" y="530" text-anchor="middle" font-family="Cambria" font-size="12" fill="black"><tspan x="900" y="530">care goal</tspan></text>
</g>
<g><!-- reason for request for care -->
<a xlink:href="./reason-for-request-for-care.html" target="_top" xmlns:xlink="http://www.w3.org/1999/xlink"><rect x="1025" y="517" width="150" height="75" fill="white" stroke="black" stroke-width="2"><title>motive for a request for care</title></rect></a><text x="1100" y="530" text-anchor="middle" font-family="Cambria" font-size="12" fill="black"><tspan x="1100" y="530">reason for request</tspan><tspan x="1100" y="546">for care</tspan></text>
</g>
<!-- Subclass row bus -->
<line x1="100" y1="497" x2="1100" y2="497" stroke="black" stroke-width="2" /><!-- Subclass row vertical to focal -->
<line x1="600" y1="487" x2="600" y2="497" stroke="black" stroke-width="2" /><polygon points="600,477 595,487 605,487" fill="white" stroke="black" stroke-width="2" /><line x1="100" y1="497" x2="100" y2="517" stroke="black" stroke-width="2" /><line x1="300" y1="497" x2="300" y2="517" stroke="black" stroke-width="2" /><line x1="500" y1="497" x2="500" y2="517" stroke="black" stroke-width="2" /><line x1="700" y1="497" x2="700" y2="517" stroke="black" stroke-width="2" /><line x1="900" y1="497" x2="900" y2="517" stroke="black" stroke-width="2" /><line x1="1100" y1="497" x2="1100" y2="517" stroke="black" stroke-width="2" /><g><!-- clinical matter -->
<a xlink:href="./clinical-matter.html" target="_top" xmlns:xlink="http://www.w3.org/1999/xlink"><rect x="525" y="642" width="150" height="75" fill="white" stroke="black" stroke-width="2"><title>health matter concerned with the body or mind</title></rect></a><text x="600" y="655" text-anchor="middle" font-family="Cambria" font-size="12" fill="black"><tspan x="600" y="655">clinical matter</tspan></text>
</g>
<!-- Subclass row bus -->
<line x1="600" y1="622" x2="600" y2="622" stroke="black" stroke-width="2" /><!-- Subclass row vertical to focal -->
<line x1="600" y1="487" x2="600" y2="622" stroke="black" stroke-width="2" /><line x1="600" y1="622" x2="600" y2="642" stroke="black" stroke-width="2" /></svg>