<svg xmlns="http://www.w3.org/2000/svg" viewBox="0 0 1200 752" role="img" aria-labelledby="title desc"><title id="title">Class Diagram of health issue</title><desc id="desc">Generated diagram of focal class health issue and related classes.</desc><!-- Super types of health issue -->
<g><!-- health condition -->
<a xlink:href="./health-condition.html" target="_top" xmlns:xlink="http://www.w3.org/1999/xlink"><rect x="225" y="5" width="150" height="75" fill="white" stroke="black" stroke-width="2"><title>aspect of a health state</title></rect></a><text x="300" y="34" text-anchor="middle" font-family="Cambria" font-size="24.0625" fill="black"><tspan x="300" y="34">health</tspan><tspan x="300" y="62">condition</tspan></text>
</g>
<!-- Generalization health issue -> health condition -->
<line x1="600" y1="155" x2="600" y2="135" stroke="black" stroke-width="2" /><line x1="300" y1="82" x2="300" y2="135" stroke="black" stroke-width="2" /><line x1="600" y1="135" x2="300" y2="135" stroke="black" stroke-width="2" /><polygon points="300,82 295,92 305,92" fill="white" stroke="black" stroke-width="2" /><g><!-- health matter -->
<a xlink:href="./health-matter.html" target="_top" xmlns:xlink="http://www.w3.org/1999/xlink"><rect x="825" y="5" width="150" height="75" fill="white" stroke="black" stroke-width="2"><title>circumstance contributing to the health state of a person</title></rect></a><text x="900" y="34" text-anchor="middle" font-family="Cambria" font-size="24.0625" fill="black"><tspan x="900" y="34">health</tspan><tspan x="900" y="62">matter</tspan></text>
</g>
<!-- Generalization health issue -> health matter -->
<line x1="600" y1="155" x2="600" y2="135" stroke="black" stroke-width="2" /><line x1="900" y1="82" x2="900" y2="135" stroke="black" stroke-width="2" /><line x1="600" y1="135" x2="900" y2="135" stroke="black" stroke-width="2" /><polygon points="900,82 895,92 905,92" fill="white" stroke="black" stroke-width="2" /><g><!-- Association centred on care guideline -->
<line x1="155" y1="192" x2="525" y2="192" stroke="black" stroke-width="2" /><text x="175" y="188" text-anchor="start" font-family="Cambria" font-size="22" fill="black"><tspan x="175" y="188">1..*</tspan></text>
<text x="505" y="188" text-anchor="end" font-family="Cambria" font-size="22" fill="black"><tspan x="505" y="188">1..*</tspan></text>
<text x="340" y="208" text-anchor="middle" font-family="Cambria" font-size="22" fill="black"><tspan x="340" y="208">centred on</tspan></text>
</g>
<g><!-- care guideline -->
<a xlink:href="./care-guideline.html" target="_top" xmlns:xlink="http://www.w3.org/1999/xlink"><rect x="5" y="155" width="150" height="75" fill="whitesmoke" stroke="black" stroke-width="2"><title>set of systematically developed statements based on knowledge to assist the decisions made by care actors about care activities to be performed with regard to specified health issues</title></rect></a><text x="80" y="184" text-anchor="middle" font-family="Cambria" font-size="24.0625" fill="black"><tspan x="80" y="184">care</tspan><tspan x="80" y="212">guideline</tspan></text>
</g>
<g><!-- Association addresses care pathway -->
<line x1="155" y1="272" x2="525" y2="272" stroke="black" stroke-width="2" /><text x="175" y="268" text-anchor="start" font-family="Cambria" font-size="22" fill="black"><tspan x="175" y="268">1..*</tspan></text>
<text x="505" y="268" text-anchor="end" font-family="Cambria" font-size="22" fill="black"><tspan x="505" y="268">1..*</tspan></text>
<text x="340" y="288" text-anchor="middle" font-family="Cambria" font-size="22" fill="black"><tspan x="340" y="288">addresses</tspan></text>
</g>
<g><!-- care pathway -->
<a xlink:href="./care-pathway.html" target="_top" xmlns:xlink="http://www.w3.org/1999/xlink"><rect x="5" y="235" width="150" height="75" fill="whitesmoke" stroke="black" stroke-width="2"><title>detailed guidance for each stage in the interdisciplinary management of a subject of care</title></rect></a><text x="80" y="264" text-anchor="middle" font-family="Cambria" font-size="24.0625" fill="black"><tspan x="80" y="264">care</tspan><tspan x="80" y="292">pathway</tspan></text>
</g>
<g><!-- Association addresses care provider activity -->
<line x1="155" y1="352" x2="525" y2="352" stroke="black" stroke-width="2" /><text x="175" y="348" text-anchor="start" font-family="Cambria" font-size="22" fill="black"><tspan x="175" y="348">1..*</tspan></text>
<text x="505" y="348" text-anchor="end" font-family="Cambria" font-size="22" fill="black"><tspan x="505" y="348">1..*</tspan></text>
<text x="340" y="368" text-anchor="middle" font-family="Cambria" font-size="22" fill="black"><tspan x="340" y="368">addresses</tspan></text>
</g>
<g><!-- care provider activity -->
<a xlink:href="./care-provider-activity.html" target="_top" xmlns:xlink="http://www.w3.org/1999/xlink"><rect x="5" y="315" width="150" height="75" fill="whitesmoke" stroke="black" stroke-width="2"><title>care activity performed by a care provider</title></rect></a><text x="80" y="337" text-anchor="middle" font-family="Cambria" font-size="17.8125" fill="black"><tspan x="80" y="337">care provider</tspan><tspan x="80" y="358">activity</tspan></text>
</g>
<g><!-- Association addresses continuity of care process -->
<line x1="155" y1="432" x2="525" y2="432" stroke="black" stroke-width="2" /><text x="175" y="428" text-anchor="start" font-family="Cambria" font-size="22" fill="black"><tspan x="175" y="428">1..*</tspan></text>
<text x="505" y="428" text-anchor="end" font-family="Cambria" font-size="22" fill="black"><tspan x="505" y="428">1..*</tspan></text>
<text x="340" y="448" text-anchor="middle" font-family="Cambria" font-size="22" fill="black"><tspan x="340" y="448">addresses</tspan></text>
</g>
<g><!-- continuity of care process -->
<a xlink:href="./continuity-of-care-process.html" target="_top" xmlns:xlink="http://www.w3.org/1999/xlink"><rect x="5" y="395" width="150" height="75" fill="whitesmoke" stroke="black" stroke-width="2"><title>care process, encompassing all care provider activities and other prescribed care activities, that addresses identified or specified health issues</title></rect></a><text x="80" y="417" text-anchor="middle" font-family="Cambria" font-size="17.8125" fill="black"><tspan x="80" y="417">continuity of</tspan><tspan x="80" y="438">care process</tspan></text>
</g>
<g><!-- Association centred on episode of care -->
<line x1="155" y1="512" x2="525" y2="512" stroke="black" stroke-width="2" /><text x="175" y="508" text-anchor="start" font-family="Cambria" font-size="22" fill="black"><tspan x="175" y="508">1..*</tspan></text>
<text x="505" y="508" text-anchor="end" font-family="Cambria" font-size="22" fill="black"><tspan x="505" y="508">1..*</tspan></text>
<text x="340" y="528" text-anchor="middle" font-family="Cambria" font-size="22" fill="black"><tspan x="340" y="528">centred on</tspan></text>
</g>
<g><!-- episode of care -->
<a xlink:href="./episode-of-care.html" target="_top" xmlns:xlink="http://www.w3.org/1999/xlink"><rect x="5" y="475" width="150" height="75" fill="whitesmoke" stroke="black" stroke-width="2"><title>health related period during which care activities are performed to address one health issue as identified by one care professional</title></rect></a><text x="80" y="504" text-anchor="middle" font-family="Cambria" font-size="24.0625" fill="black"><tspan x="80" y="504">episode</tspan><tspan x="80" y="532">of care</tspan></text>
</g>
<g><!-- Focal health issue -->
<a xlink:href="./health-issue.html" target="_top" xmlns:xlink="http://www.w3.org/1999/xlink"><rect x="525" y="155" width="150" height="400" fill="white" stroke="black" stroke-width="2"><title>health condition motivating care</title></rect></a><text x="600" y="185" text-anchor="middle" font-family="Cambria" font-size="25" fill="black"><tspan x="600" y="185">health</tspan><tspan x="600" y="215">issue</tspan></text>
</g>
<g><!-- clinical issue -->
<a xlink:href="./clinical-issue.html" target="_top" xmlns:xlink="http://www.w3.org/1999/xlink"><rect x="125" y="597" width="150" height="75" fill="white" stroke="black" stroke-width="2"><title>health issue that is a clinical matter</title></rect></a><text x="200" y="626" text-anchor="middle" font-family="Cambria" font-size="24.0625" fill="black"><tspan x="200" y="626">clinical</tspan><tspan x="200" y="654">issue</tspan></text>
</g>
<g><!-- health problem -->
<a xlink:href="./health-problem.html" target="_top" xmlns:xlink="http://www.w3.org/1999/xlink"><rect x="525" y="597" width="150" height="75" fill="white" stroke="black" stroke-width="2"><title>health issue considered by a care actor to be a problem</title></rect></a><text x="600" y="626" text-anchor="middle" font-family="Cambria" font-size="24.0625" fill="black"><tspan x="600" y="626">health</tspan><tspan x="600" y="654">problem</tspan></text>
</g>
<g><!-- social issue -->
<a xlink:href="./social-issue.html" target="_top" xmlns:xlink="http://www.w3.org/1999/xlink"><rect x="925" y="597" width="150" height="75" fill="white" stroke="black" stroke-width="2"><title>health issue that is a social matter</title></rect></a><text x="1000" y="626" text-anchor="middle" font-family="Cambria" font-size="24.0625" fill="black"><tspan x="1000" y="626">social</tspan><tspan x="1000" y="654">issue</tspan></text>
</g>
<!-- Subclass row bus -->
<line x1="200" y1="577" x2="1000" y2="577" stroke="black" stroke-width="2" /><!-- Subclass row vertical to focal -->
<line x1="600" y1="567" x2="600" y2="577" stroke="black" stroke-width="2" /><polygon points="600,557 595,567 605,567" fill="white" stroke="black" stroke-width="2" /><line x1="200" y1="577" x2="200" y2="597" stroke="black" stroke-width="2" /><line x1="600" y1="577" x2="600" y2="597" stroke="black" stroke-width="2" /><line x1="1000" y1="577" x2="1000" y2="597" stroke="black" stroke-width="2" /></svg>