<svg xmlns="http://www.w3.org/2000/svg" viewBox="0 0 1200 512" role="img" aria-labelledby="title desc"><title id="title">Class Diagram of health related period</title><desc id="desc">Generated diagram of focal class health related period and related classes.</desc><!-- Super types of health related period -->
<g><!-- time interval -->
<a xlink:href="./time-interval.html" target="_top" xmlns:xlink="http://www.w3.org/1999/xlink"><rect x="525" y="5" width="150" height="75" fill="white" stroke="black" stroke-width="2"><title></title></rect></a><text x="600" y="34" text-anchor="middle" font-family="Cambria" font-size="24.0625" fill="black"><tspan x="600" y="34">time</tspan><tspan x="600" y="62">interval</tspan></text>
</g>
<!-- Generalization health related period -> time interval -->
<line x1="600" y1="155" x2="600" y2="135" stroke="black" stroke-width="2" /><line x1="600" y1="82" x2="600" y2="135" stroke="black" stroke-width="2" /><line x1="600" y1="135" x2="600" y2="135" stroke="black" stroke-width="2" /><polygon points="600,82 595,92 605,92" fill="white" stroke="black" stroke-width="2" /><!-- Self associations (pig's ear) adjacent to focal class -->
<g><!-- Self Association (adjacent) health related period -->
<path d="M 677 174 L 752 174 L 752 210 L 677 210" fill="none" stroke="black" stroke-width="2" /><text x="681" y="170" text-anchor="start" font-family="Cambria" font-size="22" fill="black"><tspan x="681" y="170">0..*</tspan></text>
<text x="681" y="206" text-anchor="start" font-family="Cambria" font-size="22" fill="black"><tspan x="681" y="206">0..*</tspan></text>
<text x="756" y="192" text-anchor="start" font-family="Cambria" font-size="22" fill="black"><tspan x="756" y="192">health</tspan><tspan x="756" y="218">related</tspan><tspan x="756" y="244">period</tspan></text>
</g>
<g><!-- Association episode for continuity of care process -->
<line x1="675" y1="272" x2="1045" y2="272" stroke="black" stroke-width="2" /><text x="695" y="268" text-anchor="start" font-family="Cambria" font-size="22" fill="black"><tspan x="695" y="268">0..1</tspan></text>
<text x="1023" y="268" text-anchor="end" font-family="Cambria" font-size="22" fill="black"><tspan x="1023" y="268">1..*</tspan></text>
<text x="860" y="288" text-anchor="middle" font-family="Cambria" font-size="22" fill="black"><tspan x="860" y="288">episode for</tspan></text>
</g>
<g><!-- continuity of care process -->
<a xlink:href="./continuity-of-care-process.html" target="_top" xmlns:xlink="http://www.w3.org/1999/xlink"><rect x="1045" y="235" width="150" height="75" fill="whitesmoke" stroke="black" stroke-width="2"><title>care process, encompassing all care provider activities and other prescribed care activities, that addresses identified or specified health issues</title></rect></a><text x="1120" y="257" text-anchor="middle" font-family="Cambria" font-size="17.8125" fill="black"><tspan x="1120" y="257">continuity of</tspan><tspan x="1120" y="278">care process</tspan></text>
</g>
<g><!-- Focal health related period -->
<a xlink:href="./health-related-period.html" target="_top" xmlns:xlink="http://www.w3.org/1999/xlink"><rect x="525" y="155" width="150" height="160" fill="white" stroke="black" stroke-width="2"><title>time interval related to the health or care of a subject of care</title></rect></a><text x="600" y="185" text-anchor="middle" font-family="Cambria" font-size="25" fill="black"><tspan x="600" y="185">health</tspan><tspan x="600" y="215">related</tspan><tspan x="600" y="245">period</tspan></text>
</g>
<g><!-- care activity period -->
<a xlink:href="./care-activity-period.html" target="_top" xmlns:xlink="http://www.w3.org/1999/xlink"><rect x="45" y="357" width="150" height="75" fill="white" stroke="black" stroke-width="2"><title>period during which care activities are performed for a subject of care</title></rect></a><text x="120" y="379" text-anchor="middle" font-family="Cambria" font-size="17.8125" fill="black"><tspan x="120" y="379">care activity</tspan><tspan x="120" y="400">period</tspan></text>
</g>
<g><!-- episode of care -->
<a xlink:href="./episode-of-care.html" target="_top" xmlns:xlink="http://www.w3.org/1999/xlink"><rect x="285" y="357" width="150" height="75" fill="white" stroke="black" stroke-width="2"><title>health related period during which care activities are performed to address one health issue as identified by one care professional</title></rect></a><text x="360" y="386" text-anchor="middle" font-family="Cambria" font-size="24.0625" fill="black"><tspan x="360" y="386">episode</tspan><tspan x="360" y="414">of care</tspan></text>
</g>
<g><!-- mandated period of care -->
<a xlink:href="./mandated-period-of-care.html" target="_top" xmlns:xlink="http://www.w3.org/1999/xlink"><rect x="525" y="357" width="150" height="75" fill="white" stroke="black" stroke-width="2"><title>set of care activity periods where a care provider is mandated to perform the care activities required to address specific health needs</title></rect></a><text x="600" y="378" text-anchor="middle" font-family="Cambria" font-size="16.5625" fill="black"><tspan x="600" y="378">mandated</tspan><tspan x="600" y="397">period of care</tspan></text>
</g>
<g><!-- care activity delay -->
<a xlink:href="./care-activity-delay.html" target="_top" xmlns:xlink="http://www.w3.org/1999/xlink"><rect x="765" y="357" width="150" height="75" fill="white" stroke="black" stroke-width="2"><title>health related period during which a care activity is planned but not started</title></rect></a><text x="840" y="379" text-anchor="middle" font-family="Cambria" font-size="17.8125" fill="black"><tspan x="840" y="379">care activity</tspan><tspan x="840" y="400">delay</tspan></text>
</g>
<g><!-- health condition period -->
<a xlink:href="./health-condition-period.html" target="_top" xmlns:xlink="http://www.w3.org/1999/xlink"><rect x="1005" y="357" width="150" height="75" fill="white" stroke="black" stroke-width="2"><title>health related period during which a health condition has been observed</title></rect></a><text x="1080" y="378" text-anchor="middle" font-family="Cambria" font-size="16.5625" fill="black"><tspan x="1080" y="378">health</tspan><tspan x="1080" y="397">condition</tspan><tspan x="1080" y="416">period</tspan></text>
</g>
<!-- Subclass row bus -->
<line x1="120" y1="337" x2="1080" y2="337" stroke="black" stroke-width="2" /><!-- Subclass row vertical to focal -->
<line x1="600" y1="327" x2="600" y2="337" stroke="black" stroke-width="2" /><polygon points="600,317 595,327 605,327" fill="white" stroke="black" stroke-width="2" /><line x1="120" y1="337" x2="120" y2="357" stroke="black" stroke-width="2" /><line x1="360" y1="337" x2="360" y2="357" stroke="black" stroke-width="2" /><line x1="600" y1="337" x2="600" y2="357" stroke="black" stroke-width="2" /><line x1="840" y1="337" x2="840" y2="357" stroke="black" stroke-width="2" /><line x1="1080" y1="337" x2="1080" y2="357" stroke="black" stroke-width="2" /></svg>