<svg xmlns="http://www.w3.org/2000/svg" viewBox="0 0 1200 232" role="img" aria-labelledby="title desc"><title id="title">Class Diagram of health condition delay</title><desc id="desc">Generated diagram of focal class health condition delay and related classes.</desc><!-- Super types of health condition delay -->
<g><!-- health condition period -->
<a xlink:href="./health-condition-period.html" target="_top" xmlns:xlink="http://www.w3.org/1999/xlink"><rect x="225" y="5" width="150" height="75" fill="white" stroke="black" stroke-width="2"><title>health related period during which a health condition has been observed</title></rect></a><text x="300" y="26" text-anchor="middle" font-family="Cambria" font-size="16.5625" fill="black"><tspan x="300" y="26">health</tspan><tspan x="300" y="45">condition</tspan><tspan x="300" y="64">period</tspan></text>
</g>
<!-- Generalization health condition delay -> health condition period -->
<line x1="600" y1="155" x2="600" y2="135" stroke="black" stroke-width="2" /><line x1="300" y1="82" x2="300" y2="135" stroke="black" stroke-width="2" /><line x1="600" y1="135" x2="300" y2="135" stroke="black" stroke-width="2" /><polygon points="300,82 295,92 305,92" fill="white" stroke="black" stroke-width="2" /><g><!-- care activity delay -->
<a xlink:href="./care-activity-delay.html" target="_top" xmlns:xlink="http://www.w3.org/1999/xlink"><rect x="825" y="5" width="150" height="75" fill="white" stroke="black" stroke-width="2"><title>health related period during which a care activity is planned but not started</title></rect></a><text x="900" y="27" text-anchor="middle" font-family="Cambria" font-size="17.8125" fill="black"><tspan x="900" y="27">care activity</tspan><tspan x="900" y="48">delay</tspan></text>
</g>
<!-- Generalization health condition delay -> care activity delay -->
<line x1="600" y1="155" x2="600" y2="135" stroke="black" stroke-width="2" /><line x1="900" y1="82" x2="900" y2="135" stroke="black" stroke-width="2" /><line x1="600" y1="135" x2="900" y2="135" stroke="black" stroke-width="2" /><polygon points="900,82 895,92 905,92" fill="white" stroke="black" stroke-width="2" /><g><!-- Focal health condition delay -->
<a xlink:href="./health-condition-delay.html" target="_top" xmlns:xlink="http://www.w3.org/1999/xlink"><rect x="525" y="155" width="150" height="75" fill="white" stroke="black" stroke-width="2"><title>care activity delay caused by a health condition</title></rect></a><text x="600" y="176" text-anchor="middle" font-family="Cambria" font-size="16.5625" fill="black"><tspan x="600" y="176">health</tspan><tspan x="600" y="195">condition</tspan><tspan x="600" y="214">delay</tspan></text>
</g>
</svg>