<svg xmlns="http://www.w3.org/2000/svg" viewBox="0 0 1200 432" role="img" aria-labelledby="title desc"><title id="title">Class Diagram of information</title><desc id="desc">Generated diagram of focal class information and related classes.</desc><!-- Super types of information -->
<g><!-- mental object -->
<a xlink:href="./mental-object.html" target="_top" xmlns:xlink="http://www.w3.org/1999/xlink"><rect x="525" y="5" width="150" height="75" fill="white" stroke="black" stroke-width="2"><title>thoughts, ideas, memories and concepts that exist within an individual’s mind</title></rect></a><text x="600" y="34" text-anchor="middle" font-family="Cambria" font-size="24.0625" fill="black"><tspan x="600" y="34">mental</tspan><tspan x="600" y="62">object</tspan></text>
</g>
<!-- Generalization information -> mental object -->
<line x1="600" y1="155" x2="600" y2="135" stroke="black" stroke-width="2" /><line x1="600" y1="82" x2="600" y2="135" stroke="black" stroke-width="2" /><line x1="600" y1="135" x2="600" y2="135" stroke="black" stroke-width="2" /><polygon points="600,82 595,92 605,92" fill="white" stroke="black" stroke-width="2" /><g><!-- Association shared during continuity of care -->
<line x1="675" y1="192" x2="1045" y2="192" stroke="black" stroke-width="2" /><text x="695" y="188" text-anchor="start" font-family="Cambria" font-size="22" fill="black"><tspan x="695" y="188">0..*</tspan></text>
<text x="1023" y="188" text-anchor="end" font-family="Cambria" font-size="22" fill="black"><tspan x="1023" y="188">0..*</tspan></text>
<text x="860" y="208" text-anchor="middle" font-family="Cambria" font-size="22" fill="black"><tspan x="860" y="208">shared during</tspan></text>
</g>
<g><!-- continuity of care -->
<a xlink:href="./continuity-of-care.html" target="_top" xmlns:xlink="http://www.w3.org/1999/xlink"><rect x="1045" y="155" width="150" height="75" fill="whitesmoke" stroke="black" stroke-width="2"><title>coherent and interconnected series of care events over time</title></rect></a><text x="1120" y="184" text-anchor="middle" font-family="Cambria" font-size="24.0625" fill="black"><tspan x="1120" y="184">continuity</tspan><tspan x="1120" y="212">of care</tspan></text>
</g>
<g><!-- Focal information -->
<a xlink:href="./information.html" target="_top" xmlns:xlink="http://www.w3.org/1999/xlink"><rect x="525" y="155" width="150" height="80" fill="white" stroke="black" stroke-width="2"><title>meaningful data</title></rect></a><text x="600" y="185" text-anchor="middle" font-family="Cambria" font-size="25" fill="black"><tspan x="600" y="185">information</tspan></text>
</g>
<g><!-- health record extract -->
<a xlink:href="./health-record-extract.html" target="_top" xmlns:xlink="http://www.w3.org/1999/xlink"><rect x="125" y="277" width="150" height="75" fill="white" stroke="black" stroke-width="2"><title>part or all of a health record extracted for the purpose of communication</title></rect></a><text x="200" y="299" text-anchor="middle" font-family="Cambria" font-size="17.8125" fill="black"><tspan x="200" y="299">health record</tspan><tspan x="200" y="320">extract</tspan></text>
</g>
<g><!-- care information -->
<a xlink:href="./care-information.html" target="_top" xmlns:xlink="http://www.w3.org/1999/xlink"><rect x="525" y="277" width="150" height="75" fill="white" stroke="black" stroke-width="2"><title>information about a person relevant to their care</title></rect></a><text x="600" y="306" text-anchor="middle" font-family="Cambria" font-size="24.0625" fill="black"><tspan x="600" y="306">care</tspan><tspan x="600" y="334">information</tspan></text>
</g>
<g><!-- health record component -->
<a xlink:href="./health-record-component.html" target="_top" xmlns:xlink="http://www.w3.org/1999/xlink"><rect x="925" y="277" width="150" height="75" fill="white" stroke="black" stroke-width="2"><title>part of a health record that is identifiable for the purposes of referencing and revision</title></rect></a><text x="1000" y="299" text-anchor="middle" font-family="Cambria" font-size="17.8125" fill="black"><tspan x="1000" y="299">health record</tspan><tspan x="1000" y="320">component</tspan></text>
</g>
<!-- Subclass row bus -->
<line x1="200" y1="257" x2="1000" y2="257" stroke="black" stroke-width="2" /><!-- Subclass row vertical to focal -->
<line x1="600" y1="247" x2="600" y2="257" stroke="black" stroke-width="2" /><polygon points="600,237 595,247 605,247" fill="white" stroke="black" stroke-width="2" /><line x1="200" y1="257" x2="200" y2="277" stroke="black" stroke-width="2" /><line x1="600" y1="257" x2="600" y2="277" stroke="black" stroke-width="2" /><line x1="1000" y1="257" x2="1000" y2="277" stroke="black" stroke-width="2" /></svg>