<svg xmlns="http://www.w3.org/2000/svg" viewBox="0 0 1200 432" role="img" aria-labelledby="title desc"><title id="title">Class Diagram of organization</title><desc id="desc">Generated diagram of focal class organization and related classes.</desc><!-- Super types of organization -->
<g><!-- mental object -->
<a xlink:href="./mental-object.html" target="_top" xmlns:xlink="http://www.w3.org/1999/xlink"><rect x="525" y="5" width="150" height="75" fill="white" stroke="black" stroke-width="2"><title>thoughts, ideas, memories and concepts that exist within an individual’s mind</title></rect></a><text x="600" y="34" text-anchor="middle" font-family="Cambria" font-size="24.0625" fill="black"><tspan x="600" y="34">mental</tspan><tspan x="600" y="62">object</tspan></text>
</g>
<!-- Generalization organization -> mental object -->
<line x1="600" y1="155" x2="600" y2="135" stroke="black" stroke-width="2" /><line x1="600" y1="82" x2="600" y2="135" stroke="black" stroke-width="2" /><line x1="600" y1="135" x2="600" y2="135" stroke="black" stroke-width="2" /><polygon points="600,82 595,92 605,92" fill="white" stroke="black" stroke-width="2" /><g><!-- Association is care actor -->
<line x1="675" y1="192" x2="1045" y2="192" stroke="black" stroke-width="2" /><text x="695" y="188" text-anchor="start" font-family="Cambria" font-size="22" fill="black"><tspan x="695" y="188">0..1</tspan></text>
<text x="1023" y="188" text-anchor="end" font-family="Cambria" font-size="22" fill="black"><tspan x="1023" y="188">1..*</tspan></text>
<text x="860" y="208" text-anchor="middle" font-family="Cambria" font-size="22" fill="black"><tspan x="860" y="208">is</tspan></text>
</g>
<g><!-- care actor -->
<a xlink:href="./care-actor.html" target="_top" xmlns:xlink="http://www.w3.org/1999/xlink"><rect x="1045" y="155" width="150" height="75" fill="whitesmoke" stroke="black" stroke-width="2"><title>organization or person participating in care</title></rect></a><text x="1120" y="184" text-anchor="middle" font-family="Cambria" font-size="24.0625" fill="black"><tspan x="1120" y="184">care</tspan><tspan x="1120" y="212">actor</tspan></text>
</g>
<g><!-- Focal organization -->
<a xlink:href="./organization.html" target="_top" xmlns:xlink="http://www.w3.org/1999/xlink"><rect x="525" y="155" width="150" height="80" fill="white" stroke="black" stroke-width="2"><title>person or group of people that has its own functions with responsibilities, authorities and relationships to achieve its objectives</title></rect></a><text x="600" y="185" text-anchor="middle" font-family="Cambria" font-size="25" fill="black"><tspan x="600" y="185">organization</tspan></text>
</g>
<g><!-- care supporting organization -->
<a xlink:href="./care-supporting-organization.html" target="_top" xmlns:xlink="http://www.w3.org/1999/xlink"><rect x="525" y="277" width="150" height="75" fill="white" stroke="black" stroke-width="2"><title>organization that is a care third party</title></rect></a><text x="600" y="298" text-anchor="middle" font-family="Cambria" font-size="16.5625" fill="black"><tspan x="600" y="298">care</tspan><tspan x="600" y="317">supporting</tspan><tspan x="600" y="336">organization</tspan></text>
</g>
<!-- Subclass row bus -->
<line x1="600" y1="257" x2="600" y2="257" stroke="black" stroke-width="2" /><!-- Subclass row vertical to focal -->
<line x1="600" y1="247" x2="600" y2="257" stroke="black" stroke-width="2" /><polygon points="600,237 595,247 605,247" fill="white" stroke="black" stroke-width="2" /><line x1="600" y1="257" x2="600" y2="277" stroke="black" stroke-width="2" /></svg>