<svg xmlns="http://www.w3.org/2000/svg" viewBox="0 0 1200 232" role="img" aria-labelledby="title desc"><title id="title">Class Diagram of other carer</title><desc id="desc">Generated diagram of focal class other carer and related classes.</desc><!-- Super types of other carer -->
<g><!-- care third party -->
<a xlink:href="./care-third-party.html" target="_top" xmlns:xlink="http://www.w3.org/1999/xlink"><rect x="225" y="5" width="150" height="75" fill="white" stroke="black" stroke-width="2"><title>care actor other than a care provider or the subject of care</title></rect></a><text x="300" y="33" text-anchor="middle" font-family="Cambria" font-size="23.125" fill="black"><tspan x="300" y="33">care third</tspan><tspan x="300" y="60">party</tspan></text>
</g>
<!-- Generalization other carer -> care third party -->
<line x1="600" y1="155" x2="600" y2="135" stroke="black" stroke-width="2" /><line x1="300" y1="82" x2="300" y2="135" stroke="black" stroke-width="2" /><line x1="600" y1="135" x2="300" y2="135" stroke="black" stroke-width="2" /><polygon points="300,82 295,92 305,92" fill="white" stroke="black" stroke-width="2" /><g><!-- person -->
<a xlink:href="./person.html" target="_top" xmlns:xlink="http://www.w3.org/1999/xlink"><rect x="825" y="5" width="150" height="75" fill="white" stroke="black" stroke-width="2"><title>individual human being</title></rect></a><text x="900" y="35" text-anchor="middle" font-family="Cambria" font-size="25" fill="black"><tspan x="900" y="35">person</tspan></text>
</g>
<!-- Generalization other carer -> person -->
<line x1="600" y1="155" x2="600" y2="135" stroke="black" stroke-width="2" /><line x1="900" y1="82" x2="900" y2="135" stroke="black" stroke-width="2" /><line x1="600" y1="135" x2="900" y2="135" stroke="black" stroke-width="2" /><polygon points="900,82 895,92 905,92" fill="white" stroke="black" stroke-width="2" /><g><!-- Focal other carer -->
<a xlink:href="./other-carer.html" target="_top" xmlns:xlink="http://www.w3.org/1999/xlink"><rect x="525" y="155" width="150" height="75" fill="white" stroke="black" stroke-width="2"><title>person being a care third party</title></rect></a><text x="600" y="184" text-anchor="middle" font-family="Cambria" font-size="24.0625" fill="black"><tspan x="600" y="184">other</tspan><tspan x="600" y="212">carer</tspan></text>
</g>
</svg>