<svg xmlns="http://www.w3.org/2000/svg" viewBox="0 0 1200 507" role="img" aria-labelledby="title desc"><title id="title">Class Diagram of person</title><desc id="desc">Generated diagram of focal class person and related classes.</desc><!-- Super types of person -->
<g><!-- physical object -->
<a xlink:href="./physical-object.html" target="_top" xmlns:xlink="http://www.w3.org/1999/xlink"><rect x="525" y="5" width="150" height="75" fill="white" stroke="black" stroke-width="2"><title></title></rect></a><text x="600" y="18" text-anchor="middle" font-family="Cambria" font-size="12" fill="black"><tspan x="600" y="18">physical object</tspan></text>
</g>
<!-- Generalization person -> physical object -->
<line x1="600" y1="155" x2="600" y2="135" stroke="black" stroke-width="2" /><line x1="600" y1="82" x2="600" y2="135" stroke="black" stroke-width="2" /><line x1="600" y1="135" x2="600" y2="135" stroke="black" stroke-width="2" /><polygon points="600,82 595,92 605,92" fill="white" stroke="black" stroke-width="2" /><g><!-- Association concerns health state -->
<line x1="155" y1="192" x2="525" y2="192" stroke="black" stroke-width="2" /><text x="175" y="188" text-anchor="start" font-family="Cambria" font-size="12" fill="black"><tspan x="175" y="188">1</tspan></text>
<text x="505" y="188" text-anchor="end" font-family="Cambria" font-size="12" fill="black"><tspan x="505" y="188">1</tspan></text>
<text x="340" y="208" text-anchor="middle" font-family="Cambria" font-size="12" fill="black"><tspan x="340" y="208">concerns</tspan></text>
</g>
<g><!-- health state -->
<a xlink:href="./health-state.html" target="_top" xmlns:xlink="http://www.w3.org/1999/xlink"><rect x="5" y="155" width="150" height="75" fill="whitesmoke" stroke="black" stroke-width="2"><title>overall level of health of a subject of care</title></rect></a><text x="80" y="168" text-anchor="middle" font-family="Cambria" font-size="12" fill="black"><tspan x="80" y="168">health state</tspan></text>
</g>
<g><!-- Association has social environment -->
<line x1="675" y1="192" x2="1045" y2="192" stroke="black" stroke-width="2" /><text x="695" y="188" text-anchor="start" font-family="Cambria" font-size="12" fill="black"><tspan x="695" y="188">1</tspan></text>
<text x="1023" y="188" text-anchor="end" font-family="Cambria" font-size="12" fill="black"><tspan x="1023" y="188">1</tspan></text>
<text x="860" y="208" text-anchor="middle" font-family="Cambria" font-size="12" fill="black"><tspan x="860" y="208">has</tspan></text>
</g>
<g><!-- Association part of social environment -->
<line x1="675" y1="267" x2="1045" y2="267" stroke="black" stroke-width="2" /><text x="695" y="263" text-anchor="start" font-family="Cambria" font-size="12" fill="black"><tspan x="695" y="263">0..*</tspan></text>
<text x="1023" y="263" text-anchor="end" font-family="Cambria" font-size="12" fill="black"><tspan x="1023" y="263">0..*</tspan></text>
<g transform="translate(1029,267)"><polygon points="0,0 8,-6 16,0 8,6" fill="white" stroke="black" stroke-width="2" /></g><text x="860" y="283" text-anchor="middle" font-family="Cambria" font-size="12" fill="black"><tspan x="860" y="283">part of</tspan></text>
</g>
<g><!-- social environment -->
<a xlink:href="./social-environment.html" target="_top" xmlns:xlink="http://www.w3.org/1999/xlink"><rect x="1045" y="155" width="150" height="150" fill="whitesmoke" stroke="black" stroke-width="2"><title>immediate physical and social setting in which a subject of care lives and interacts</title></rect></a><text x="1120" y="168" text-anchor="middle" font-family="Cambria" font-size="12" fill="black"><tspan x="1120" y="168">social environment</tspan></text>
</g>
<g><!-- Focal person -->
<a xlink:href="./person.html" target="_top" xmlns:xlink="http://www.w3.org/1999/xlink"><rect x="525" y="155" width="150" height="155" fill="white" stroke="black" stroke-width="2"><title>individual human being</title></rect></a><text x="600" y="168" text-anchor="middle" font-family="Cambria" font-size="12" fill="black"><tspan x="600" y="168">person</tspan></text>
</g>
<g><!-- other carer -->
<a xlink:href="./other-carer.html" target="_top" xmlns:xlink="http://www.w3.org/1999/xlink"><rect x="525" y="352" width="150" height="75" fill="white" stroke="black" stroke-width="2"><title>person being a care third party</title></rect></a><text x="600" y="365" text-anchor="middle" font-family="Cambria" font-size="12" fill="black"><tspan x="600" y="365">other carer</tspan></text>
</g>
<!-- Subclass row bus -->
<line x1="600" y1="332" x2="600" y2="332" stroke="black" stroke-width="2" /><!-- Subclass row vertical to focal -->
<line x1="600" y1="322" x2="600" y2="332" stroke="black" stroke-width="2" /><polygon points="600,312 595,322 605,322" fill="white" stroke="black" stroke-width="2" /><line x1="600" y1="332" x2="600" y2="352" stroke="black" stroke-width="2" /></svg>