<svg xmlns="http://www.w3.org/2000/svg" viewBox="0 0 1200 427" role="img" aria-labelledby="title desc"><title id="title">Class Diagram of process</title><desc id="desc">Generated diagram of focal class process and related classes.</desc><!-- Super types of process -->
<g><!-- stative -->
<a xlink:href="./stative.html" target="_top" xmlns:xlink="http://www.w3.org/1999/xlink"><rect x="525" y="5" width="150" height="75" fill="white" stroke="black" stroke-width="2"><title>a state or condition</title></rect></a><text x="600" y="18" text-anchor="middle" font-family="Cambria" font-size="12" fill="black"><tspan x="600" y="18">stative</tspan></text>
</g>
<!-- Generalization process -> stative -->
<line x1="600" y1="155" x2="600" y2="135" stroke="black" stroke-width="2" /><line x1="600" y1="82" x2="600" y2="135" stroke="black" stroke-width="2" /><line x1="600" y1="135" x2="600" y2="135" stroke="black" stroke-width="2" /><polygon points="600,82 595,92 605,92" fill="white" stroke="black" stroke-width="2" /><g><!-- Focal process -->
<a xlink:href="./process.html" target="_top" xmlns:xlink="http://www.w3.org/1999/xlink"><rect x="525" y="155" width="150" height="75" fill="white" stroke="black" stroke-width="2"><title></title></rect></a><text x="600" y="168" text-anchor="middle" font-family="Cambria" font-size="12" fill="black"><tspan x="600" y="168">process</tspan></text>
</g>
<g><!-- care process -->
<a xlink:href="./care-process.html" target="_top" xmlns:xlink="http://www.w3.org/1999/xlink"><rect x="525" y="272" width="150" height="75" fill="white" stroke="black" stroke-width="2"><title>set of interrelated or interacting care activities which transforms inputs into outputs</title></rect></a><text x="600" y="285" text-anchor="middle" font-family="Cambria" font-size="12" fill="black"><tspan x="600" y="285">care process</tspan></text>
</g>
<!-- Subclass row bus -->
<line x1="600" y1="252" x2="600" y2="252" stroke="black" stroke-width="2" /><!-- Subclass row vertical to focal -->
<line x1="600" y1="242" x2="600" y2="252" stroke="black" stroke-width="2" /><polygon points="600,232 595,242 605,242" fill="white" stroke="black" stroke-width="2" /><line x1="600" y1="252" x2="600" y2="272" stroke="black" stroke-width="2" /></svg>