<svg xmlns="http://www.w3.org/2000/svg" viewBox="0 0 1200 747" role="img" aria-labelledby="title desc"><title id="title">Class Diagram of request for care</title><desc id="desc">Generated diagram of focal class request for care and related classes.</desc><!-- Super types of request for care -->
<g><!-- event -->
<a xlink:href="./event.html" target="_top" xmlns:xlink="http://www.w3.org/1999/xlink"><rect x="525" y="5" width="150" height="75" fill="white" stroke="black" stroke-width="2"><title>situation considered to occur at a time point</title></rect></a><text x="600" y="35" text-anchor="middle" font-family="Cambria" font-size="25" fill="black"><tspan x="600" y="35">event</tspan></text>
</g>
<!-- Generalization request for care -> event -->
<line x1="600" y1="155" x2="600" y2="135" stroke="black" stroke-width="2" /><line x1="600" y1="82" x2="600" y2="135" stroke="black" stroke-width="2" /><line x1="600" y1="135" x2="600" y2="135" stroke="black" stroke-width="2" /><polygon points="600,82 595,92 605,92" fill="white" stroke="black" stroke-width="2" /><g><!-- Association expresses care actor -->
<line x1="155" y1="192" x2="525" y2="192" stroke="black" stroke-width="2" /><text x="175" y="188" text-anchor="start" font-family="Cambria" font-size="22" fill="black"><tspan x="175" y="188">0..*</tspan></text>
<text x="505" y="188" text-anchor="end" font-family="Cambria" font-size="22" fill="black"><tspan x="505" y="188">1..*</tspan></text>
<text x="340" y="208" text-anchor="middle" font-family="Cambria" font-size="22" fill="black"><tspan x="340" y="208">expresses</tspan></text>
</g>
<g><!-- care actor -->
<a xlink:href="./care-actor.html" target="_top" xmlns:xlink="http://www.w3.org/1999/xlink"><rect x="5" y="155" width="150" height="75" fill="whitesmoke" stroke="black" stroke-width="2"><title>organization or person participating in care</title></rect></a><text x="80" y="184" text-anchor="middle" font-family="Cambria" font-size="24.0625" fill="black"><tspan x="80" y="184">care</tspan><tspan x="80" y="212">actor</tspan></text>
</g>
<g><!-- Association manages demand care professional -->
<line x1="155" y1="272" x2="525" y2="272" stroke="black" stroke-width="2" /><text x="175" y="268" text-anchor="start" font-family="Cambria" font-size="22" fill="black"><tspan x="175" y="268">0..*</tspan></text>
<text x="505" y="268" text-anchor="end" font-family="Cambria" font-size="22" fill="black"><tspan x="505" y="268">1..*</tspan></text>
<text x="340" y="288" text-anchor="middle" font-family="Cambria" font-size="22" fill="black"><tspan x="340" y="288">manages demand</tspan></text>
</g>
<g><!-- care professional -->
<a xlink:href="./care-professional.html" target="_top" xmlns:xlink="http://www.w3.org/1999/xlink"><rect x="5" y="235" width="150" height="75" fill="whitesmoke" stroke="black" stroke-width="2"><title>person holding a care professional entitlement</title></rect></a><text x="80" y="264" text-anchor="middle" font-family="Cambria" font-size="24.0625" fill="black"><tspan x="80" y="264">care</tspan><tspan x="80" y="292">professional</tspan></text>
</g>
<g><!-- Association accepts or declines care provider -->
<line x1="155" y1="352" x2="525" y2="352" stroke="black" stroke-width="2" /><text x="175" y="348" text-anchor="start" font-family="Cambria" font-size="22" fill="black"><tspan x="175" y="348">0..*</tspan></text>
<text x="505" y="348" text-anchor="end" font-family="Cambria" font-size="22" fill="black"><tspan x="505" y="348">1..*</tspan></text>
<text x="340" y="368" text-anchor="middle" font-family="Cambria" font-size="22" fill="black"><tspan x="340" y="368">accepts or declines</tspan></text>
</g>
<g><!-- Association receives care provider -->
<line x1="155" y1="427" x2="525" y2="427" stroke="black" stroke-width="2" /><text x="175" y="423" text-anchor="start" font-family="Cambria" font-size="22" fill="black"><tspan x="175" y="423">0..*</tspan></text>
<text x="505" y="423" text-anchor="end" font-family="Cambria" font-size="22" fill="black"><tspan x="505" y="423">1..*</tspan></text>
<text x="340" y="443" text-anchor="middle" font-family="Cambria" font-size="22" fill="black"><tspan x="340" y="443">receives</tspan></text>
</g>
<g><!-- care provider -->
<a xlink:href="./care-provider.html" target="_top" xmlns:xlink="http://www.w3.org/1999/xlink"><rect x="5" y="315" width="150" height="150" fill="whitesmoke" stroke="black" stroke-width="2"><title>care actor that is able to be assigned one or more care period mandates</title></rect></a><text x="80" y="345" text-anchor="middle" font-family="Cambria" font-size="25" fill="black"><tspan x="80" y="345">care</tspan><tspan x="80" y="375">provider</tspan></text>
</g>
<g><!-- Association motivates reason for request for care -->
<line x1="155" y1="507" x2="525" y2="507" stroke="black" stroke-width="2" /><text x="175" y="503" text-anchor="start" font-family="Cambria" font-size="22" fill="black"><tspan x="175" y="503">1..*</tspan></text>
<text x="505" y="503" text-anchor="end" font-family="Cambria" font-size="22" fill="black"><tspan x="505" y="503">1..*</tspan></text>
<text x="340" y="523" text-anchor="middle" font-family="Cambria" font-size="22" fill="black"><tspan x="340" y="523">motivates</tspan></text>
</g>
<g><!-- reason for request for care -->
<a xlink:href="./reason-for-request-for-care.html" target="_top" xmlns:xlink="http://www.w3.org/1999/xlink"><rect x="5" y="470" width="150" height="75" fill="whitesmoke" stroke="black" stroke-width="2"><title>motive for a request for care</title></rect></a><text x="80" y="491" text-anchor="middle" font-family="Cambria" font-size="16.5625" fill="black"><tspan x="80" y="491">reason for</tspan><tspan x="80" y="510">request for</tspan><tspan x="80" y="529">care</tspan></text>
</g>
<g><!-- Association triggers care period mandate -->
<line x1="675" y1="192" x2="1045" y2="192" stroke="black" stroke-width="2" /><text x="695" y="188" text-anchor="start" font-family="Cambria" font-size="22" fill="black"><tspan x="695" y="188">0..1</tspan></text>
<text x="1023" y="188" text-anchor="end" font-family="Cambria" font-size="22" fill="black"><tspan x="1023" y="188">1</tspan></text>
<text x="860" y="208" text-anchor="middle" font-family="Cambria" font-size="22" fill="black"><tspan x="860" y="208">triggers</tspan></text>
</g>
<g><!-- care period mandate -->
<a xlink:href="./care-period-mandate.html" target="_top" xmlns:xlink="http://www.w3.org/1999/xlink"><rect x="1045" y="155" width="150" height="75" fill="whitesmoke" stroke="black" stroke-width="2"><title>care mandate commissioning a mandated period of care</title></rect></a><text x="1120" y="180" text-anchor="middle" font-family="Cambria" font-size="20.9375" fill="black"><tspan x="1120" y="180">care period</tspan><tspan x="1120" y="205">mandate</tspan></text>
</g>
<g><!-- Association asks for care provider activity -->
<line x1="675" y1="272" x2="1045" y2="272" stroke="black" stroke-width="2" /><text x="695" y="268" text-anchor="start" font-family="Cambria" font-size="22" fill="black"><tspan x="695" y="268">1..*</tspan></text>
<text x="1023" y="268" text-anchor="end" font-family="Cambria" font-size="22" fill="black"><tspan x="1023" y="268">0..*</tspan></text>
<text x="860" y="288" text-anchor="middle" font-family="Cambria" font-size="22" fill="black"><tspan x="860" y="288">asks for</tspan></text>
</g>
<g><!-- care provider activity -->
<a xlink:href="./care-provider-activity.html" target="_top" xmlns:xlink="http://www.w3.org/1999/xlink"><rect x="1045" y="235" width="150" height="75" fill="whitesmoke" stroke="black" stroke-width="2"><title>care activity performed by a care provider</title></rect></a><text x="1120" y="257" text-anchor="middle" font-family="Cambria" font-size="17.8125" fill="black"><tspan x="1120" y="257">care provider</tspan><tspan x="1120" y="278">activity</tspan></text>
</g>
<g><!-- Association concerns health matter -->
<line x1="675" y1="352" x2="1045" y2="352" stroke="black" stroke-width="2" /><text x="695" y="348" text-anchor="start" font-family="Cambria" font-size="22" fill="black"><tspan x="695" y="348">1..*</tspan></text>
<text x="1023" y="348" text-anchor="end" font-family="Cambria" font-size="22" fill="black"><tspan x="1023" y="348">1..*</tspan></text>
<text x="860" y="368" text-anchor="middle" font-family="Cambria" font-size="22" fill="black"><tspan x="860" y="368">concerns</tspan></text>
</g>
<g><!-- health matter -->
<a xlink:href="./health-matter.html" target="_top" xmlns:xlink="http://www.w3.org/1999/xlink"><rect x="1045" y="315" width="150" height="75" fill="whitesmoke" stroke="black" stroke-width="2"><title>circumstance contributing to the health state of a person</title></rect></a><text x="1120" y="344" text-anchor="middle" font-family="Cambria" font-size="24.0625" fill="black"><tspan x="1120" y="344">health</tspan><tspan x="1120" y="372">matter</tspan></text>
</g>
<g><!-- Association justifies request mandate -->
<line x1="675" y1="432" x2="1045" y2="432" stroke="black" stroke-width="2" /><text x="695" y="428" text-anchor="start" font-family="Cambria" font-size="22" fill="black"><tspan x="695" y="428">1..*</tspan></text>
<text x="1023" y="428" text-anchor="end" font-family="Cambria" font-size="22" fill="black"><tspan x="1023" y="428">0..*</tspan></text>
<text x="860" y="448" text-anchor="middle" font-family="Cambria" font-size="22" fill="black"><tspan x="860" y="448">justifies</tspan></text>
</g>
<g><!-- request mandate -->
<a xlink:href="./request-mandate.html" target="_top" xmlns:xlink="http://www.w3.org/1999/xlink"><rect x="1045" y="395" width="150" height="75" fill="whitesmoke" stroke="black" stroke-width="2"><title>care mandate implying the right and obligation to request care activities</title></rect></a><text x="1120" y="424" text-anchor="middle" font-family="Cambria" font-size="24.0625" fill="black"><tspan x="1120" y="424">request</tspan><tspan x="1120" y="452">mandate</tspan></text>
</g>
<g><!-- Focal request for care -->
<a xlink:href="./request-for-care.html" target="_top" xmlns:xlink="http://www.w3.org/1999/xlink"><rect x="525" y="155" width="150" height="395" fill="white" stroke="black" stroke-width="2"><title>request for care provider activities</title></rect></a><text x="600" y="185" text-anchor="middle" font-family="Cambria" font-size="25" fill="black"><tspan x="600" y="185">request</tspan><tspan x="600" y="215">for care</tspan></text>
</g>
<g><!-- referral -->
<a xlink:href="./referral.html" target="_top" xmlns:xlink="http://www.w3.org/1999/xlink"><rect x="125" y="592" width="150" height="75" fill="white" stroke="black" stroke-width="2"><title>request for care where a care professional asks a care provider to make a care commitment for a care period mandate</title></rect></a><text x="200" y="622" text-anchor="middle" font-family="Cambria" font-size="25" fill="black"><tspan x="200" y="622">referral</tspan></text>
</g>
<g><!-- initial request for care -->
<a xlink:href="./initial-request-for-care.html" target="_top" xmlns:xlink="http://www.w3.org/1999/xlink"><rect x="525" y="592" width="150" height="75" fill="white" stroke="black" stroke-width="2"><title>first request for care concerning one or more specific health matters to be assessed by a care provider</title></rect></a><text x="600" y="613" text-anchor="middle" font-family="Cambria" font-size="16.5625" fill="black"><tspan x="600" y="613">initial</tspan><tspan x="600" y="632">request for</tspan><tspan x="600" y="651">care</tspan></text>
</g>
<g><!-- request for service -->
<a xlink:href="./request-for-service.html" target="_top" xmlns:xlink="http://www.w3.org/1999/xlink"><rect x="925" y="592" width="150" height="75" fill="white" stroke="black" stroke-width="2"><title>request for care where a care professional asks a care provider to perform one or more care provider activities</title></rect></a><text x="1000" y="617" text-anchor="middle" font-family="Cambria" font-size="20.9375" fill="black"><tspan x="1000" y="617">request for</tspan><tspan x="1000" y="642">service</tspan></text>
</g>
<!-- Subclass row bus -->
<line x1="200" y1="572" x2="1000" y2="572" stroke="black" stroke-width="2" /><!-- Subclass row vertical to focal -->
<line x1="600" y1="562" x2="600" y2="572" stroke="black" stroke-width="2" /><polygon points="600,552 595,562 605,562" fill="white" stroke="black" stroke-width="2" /><line x1="200" y1="572" x2="200" y2="592" stroke="black" stroke-width="2" /><line x1="600" y1="572" x2="600" y2="592" stroke="black" stroke-width="2" /><line x1="1000" y1="572" x2="1000" y2="592" stroke="black" stroke-width="2" /></svg>