<svg xmlns="http://www.w3.org/2000/svg" viewBox="0 0 1200 282" role="img" aria-labelledby="title desc"><title id="title">Class Diagram of resource</title><desc id="desc">Generated diagram of focal class resource and related classes.</desc><g><!-- Association care care -->
<line x1="675" y1="42" x2="1045" y2="42" stroke="black" stroke-width="2" /><text x="695" y="38" text-anchor="start" font-family="Cambria" font-size="22" fill="black"><tspan x="695" y="38">1..*</tspan></text>
<text x="1023" y="38" text-anchor="end" font-family="Cambria" font-size="22" fill="black"><tspan x="1023" y="38">1..*</tspan></text>
<g transform="translate(1029,42)"><polygon points="0,0 8,-6 16,0 8,6" fill="white" stroke="black" stroke-width="2" /></g></g>
<g><!-- care -->
<a xlink:href="./care.html" target="_top" xmlns:xlink="http://www.w3.org/1999/xlink"><rect x="1045" y="5" width="150" height="75" fill="whitesmoke" stroke="black" stroke-width="2"><title>provision of accommodations, comfort and treatment to an individual subject of care</title></rect></a><text x="1120" y="35" text-anchor="middle" font-family="Cambria" font-size="25" fill="black"><tspan x="1120" y="35">care</tspan></text>
</g>
<g><!-- Focal resource -->
<a xlink:href="./resource.html" target="_top" xmlns:xlink="http://www.w3.org/1999/xlink"><rect x="525" y="5" width="150" height="80" fill="white" stroke="black" stroke-width="2"><title>asset that is utilized or consumed during the execution of activities</title></rect></a><text x="600" y="35" text-anchor="middle" font-family="Cambria" font-size="25" fill="black"><tspan x="600" y="35">resource</tspan></text>
</g>
<g><!-- care funds -->
<a xlink:href="./care-funds.html" target="_top" xmlns:xlink="http://www.w3.org/1999/xlink"><rect x="125" y="127" width="150" height="75" fill="white" stroke="black" stroke-width="2"><title>resource provided for funding care delivery</title></rect></a><text x="200" y="156" text-anchor="middle" font-family="Cambria" font-size="24.0625" fill="black"><tspan x="200" y="156">care</tspan><tspan x="200" y="184">funds</tspan></text>
</g>
<g><!-- data repository -->
<a xlink:href="./data-repository.html" target="_top" xmlns:xlink="http://www.w3.org/1999/xlink"><rect x="525" y="127" width="150" height="75" fill="white" stroke="black" stroke-width="2"><title>identifiable data storage facility</title></rect></a><text x="600" y="156" text-anchor="middle" font-family="Cambria" font-size="24.0625" fill="black"><tspan x="600" y="156">data</tspan><tspan x="600" y="184">repository</tspan></text>
</g>
<g><!-- care resource -->
<a xlink:href="./care-resource.html" target="_top" xmlns:xlink="http://www.w3.org/1999/xlink"><rect x="925" y="127" width="150" height="75" fill="white" stroke="black" stroke-width="2"><title>resource needed to perform care activities</title></rect></a><text x="1000" y="156" text-anchor="middle" font-family="Cambria" font-size="24.0625" fill="black"><tspan x="1000" y="156">care</tspan><tspan x="1000" y="184">resource</tspan></text>
</g>
<!-- Subclass row bus -->
<line x1="200" y1="107" x2="1000" y2="107" stroke="black" stroke-width="2" /><!-- Subclass row vertical to focal -->
<line x1="600" y1="97" x2="600" y2="107" stroke="black" stroke-width="2" /><polygon points="600,87 595,97 605,97" fill="white" stroke="black" stroke-width="2" /><line x1="200" y1="107" x2="200" y2="127" stroke="black" stroke-width="2" /><line x1="600" y1="107" x2="600" y2="127" stroke="black" stroke-width="2" /><line x1="1000" y1="107" x2="1000" y2="127" stroke="black" stroke-width="2" /></svg>