<svg xmlns="http://www.w3.org/2000/svg" viewBox="0 0 1200 427" role="img" aria-labelledby="title desc"><title id="title">Class Diagram of stative</title><desc id="desc">Generated diagram of focal class stative and related classes.</desc><!-- Super types of stative -->
<g><!-- thing -->
<a xlink:href="./thing.html" target="_top" xmlns:xlink="http://www.w3.org/1999/xlink"><rect x="525" y="5" width="150" height="75" fill="white" stroke="black" stroke-width="2"><title></title></rect></a><text x="600" y="18" text-anchor="middle" font-family="Cambria" font-size="12" fill="black"><tspan x="600" y="18">thing</tspan></text>
</g>
<!-- Generalization stative -> thing -->
<line x1="600" y1="155" x2="600" y2="135" stroke="black" stroke-width="2" /><line x1="600" y1="82" x2="600" y2="135" stroke="black" stroke-width="2" /><line x1="600" y1="135" x2="600" y2="135" stroke="black" stroke-width="2" /><polygon points="600,82 595,92 605,92" fill="white" stroke="black" stroke-width="2" /><g><!-- Focal stative -->
<a xlink:href="./stative.html" target="_top" xmlns:xlink="http://www.w3.org/1999/xlink"><rect x="525" y="155" width="150" height="75" fill="white" stroke="black" stroke-width="2"><title>a state or condition</title></rect></a><text x="600" y="168" text-anchor="middle" font-family="Cambria" font-size="12" fill="black"><tspan x="600" y="168">stative</tspan></text>
</g>
<g><!-- state -->
<a xlink:href="./state.html" target="_top" xmlns:xlink="http://www.w3.org/1999/xlink"><rect x="125" y="272" width="150" height="75" fill="white" stroke="black" stroke-width="2"><title></title></rect></a><text x="200" y="285" text-anchor="middle" font-family="Cambria" font-size="12" fill="black"><tspan x="200" y="285">state</tspan></text>
</g>
<g><!-- process -->
<a xlink:href="./process.html" target="_top" xmlns:xlink="http://www.w3.org/1999/xlink"><rect x="525" y="272" width="150" height="75" fill="white" stroke="black" stroke-width="2"><title></title></rect></a><text x="600" y="285" text-anchor="middle" font-family="Cambria" font-size="12" fill="black"><tspan x="600" y="285">process</tspan></text>
</g>
<g><!-- social environment -->
<a xlink:href="./social-environment.html" target="_top" xmlns:xlink="http://www.w3.org/1999/xlink"><rect x="925" y="272" width="150" height="75" fill="white" stroke="black" stroke-width="2"><title>immediate physical and social setting in which a subject of care lives and interacts</title></rect></a><text x="1000" y="285" text-anchor="middle" font-family="Cambria" font-size="12" fill="black"><tspan x="1000" y="285">social environment</tspan></text>
</g>
<!-- Subclass row bus -->
<line x1="200" y1="252" x2="1000" y2="252" stroke="black" stroke-width="2" /><!-- Subclass row vertical to focal -->
<line x1="600" y1="242" x2="600" y2="252" stroke="black" stroke-width="2" /><polygon points="600,232 595,242 605,242" fill="white" stroke="black" stroke-width="2" /><line x1="200" y1="252" x2="200" y2="272" stroke="black" stroke-width="2" /><line x1="600" y1="252" x2="600" y2="272" stroke="black" stroke-width="2" /><line x1="1000" y1="252" x2="1000" y2="272" stroke="black" stroke-width="2" /></svg>