<svg xmlns="http://www.w3.org/2000/svg" viewBox="0 0 1200 427" role="img" aria-labelledby="title desc"><title id="title">Class Diagram of state</title><desc id="desc">Generated diagram of focal class state and related classes.</desc><!-- Super types of state -->
<g><!-- stative -->
<a xlink:href="./stative.html" target="_top" xmlns:xlink="http://www.w3.org/1999/xlink"><rect x="525" y="5" width="150" height="75" fill="white" stroke="black" stroke-width="2"><title>a state or condition</title></rect></a><text x="600" y="18" text-anchor="middle" font-family="Cambria" font-size="12" fill="black"><tspan x="600" y="18">stative</tspan></text>
</g>
<!-- Generalization state -> stative -->
<line x1="600" y1="155" x2="600" y2="135" stroke="black" stroke-width="2" /><line x1="600" y1="82" x2="600" y2="135" stroke="black" stroke-width="2" /><line x1="600" y1="135" x2="600" y2="135" stroke="black" stroke-width="2" /><polygon points="600,82 595,92 605,92" fill="white" stroke="black" stroke-width="2" /><g><!-- Focal state -->
<a xlink:href="./state.html" target="_top" xmlns:xlink="http://www.w3.org/1999/xlink"><rect x="525" y="155" width="150" height="75" fill="white" stroke="black" stroke-width="2"><title></title></rect></a><text x="600" y="168" text-anchor="middle" font-family="Cambria" font-size="12" fill="black"><tspan x="600" y="168">state</tspan></text>
</g>
<g><!-- health state -->
<a xlink:href="./health-state.html" target="_top" xmlns:xlink="http://www.w3.org/1999/xlink"><rect x="225" y="272" width="150" height="75" fill="white" stroke="black" stroke-width="2"><title>overall level of health of a subject of care</title></rect></a><text x="300" y="285" text-anchor="middle" font-family="Cambria" font-size="12" fill="black"><tspan x="300" y="285">health state</tspan></text>
</g>
<g><!-- health matter -->
<a xlink:href="./health-matter.html" target="_top" xmlns:xlink="http://www.w3.org/1999/xlink"><rect x="825" y="272" width="150" height="75" fill="white" stroke="black" stroke-width="2"><title>circumstance contributing to the health state of a person</title></rect></a><text x="900" y="285" text-anchor="middle" font-family="Cambria" font-size="12" fill="black"><tspan x="900" y="285">health matter</tspan></text>
</g>
<!-- Subclass row bus -->
<line x1="300" y1="252" x2="900" y2="252" stroke="black" stroke-width="2" /><!-- Subclass row vertical to focal -->
<line x1="600" y1="242" x2="600" y2="252" stroke="black" stroke-width="2" /><polygon points="600,232 595,242 605,242" fill="white" stroke="black" stroke-width="2" /><line x1="300" y1="252" x2="300" y2="272" stroke="black" stroke-width="2" /><line x1="900" y1="252" x2="900" y2="272" stroke="black" stroke-width="2" /></svg>