<svg xmlns="http://www.w3.org/2000/svg" viewBox="0 0 1200 427" role="img" aria-labelledby="title desc"><title id="title">Class Diagram of time interval</title><desc id="desc">Generated diagram of focal class time interval and related classes.</desc><!-- Super types of time interval -->
<g><!-- thing -->
<a xlink:href="./thing.html" target="_top" xmlns:xlink="http://www.w3.org/1999/xlink"><rect x="525" y="5" width="150" height="75" fill="white" stroke="black" stroke-width="2"><title></title></rect></a><text x="600" y="18" text-anchor="middle" font-family="Cambria" font-size="12" fill="black"><tspan x="600" y="18">thing</tspan></text>
</g>
<!-- Generalization time interval -> thing -->
<line x1="600" y1="155" x2="600" y2="135" stroke="black" stroke-width="2" /><line x1="600" y1="82" x2="600" y2="135" stroke="black" stroke-width="2" /><line x1="600" y1="135" x2="600" y2="135" stroke="black" stroke-width="2" /><polygon points="600,82 595,92 605,92" fill="white" stroke="black" stroke-width="2" /><g><!-- Focal time interval -->
<a xlink:href="./time-interval.html" target="_top" xmlns:xlink="http://www.w3.org/1999/xlink"><rect x="525" y="155" width="150" height="75" fill="white" stroke="black" stroke-width="2"><title></title></rect></a><text x="600" y="168" text-anchor="middle" font-family="Cambria" font-size="12" fill="black"><tspan x="600" y="168">time interval</tspan></text>
</g>
<g><!-- health related period -->
<a xlink:href="./health-related-period.html" target="_top" xmlns:xlink="http://www.w3.org/1999/xlink"><rect x="525" y="272" width="150" height="75" fill="white" stroke="black" stroke-width="2"><title>time interval related to the health or care of a subject of care</title></rect></a><text x="600" y="285" text-anchor="middle" font-family="Cambria" font-size="12" fill="black"><tspan x="600" y="285">health related</tspan><tspan x="600" y="301">period</tspan></text>
</g>
<!-- Subclass row bus -->
<line x1="600" y1="252" x2="600" y2="252" stroke="black" stroke-width="2" /><!-- Subclass row vertical to focal -->
<line x1="600" y1="242" x2="600" y2="252" stroke="black" stroke-width="2" /><polygon points="600,232 595,242 605,242" fill="white" stroke="black" stroke-width="2" /><line x1="600" y1="252" x2="600" y2="272" stroke="black" stroke-width="2" /></svg>