<svg xmlns="http://www.w3.org/2000/svg" viewBox="0 0 1200 427" role="img" aria-labelledby="title desc"><title id="title">Class Diagram of unintended event</title><desc id="desc">Generated diagram of focal class unintended event and related classes.</desc><!-- Super types of unintended event -->
<g><!-- event -->
<a xlink:href="./event.html" target="_top" xmlns:xlink="http://www.w3.org/1999/xlink"><rect x="525" y="5" width="150" height="75" fill="white" stroke="black" stroke-width="2"><title>situation considered to occur at a time point</title></rect></a><text x="600" y="35" text-anchor="middle" font-family="Cambria" font-size="25" fill="black"><tspan x="600" y="35">event</tspan></text>
</g>
<!-- Generalization unintended event -> event -->
<line x1="600" y1="155" x2="600" y2="135" stroke="black" stroke-width="2" /><line x1="600" y1="82" x2="600" y2="135" stroke="black" stroke-width="2" /><line x1="600" y1="135" x2="600" y2="135" stroke="black" stroke-width="2" /><polygon points="600,82 595,92 605,92" fill="white" stroke="black" stroke-width="2" /><g><!-- Focal unintended event -->
<a xlink:href="./unintended-event.html" target="_top" xmlns:xlink="http://www.w3.org/1999/xlink"><rect x="525" y="155" width="150" height="75" fill="white" stroke="black" stroke-width="2"><title>phenomenon that is not part of the normal course of a process</title></rect></a><text x="600" y="184" text-anchor="middle" font-family="Cambria" font-size="24.0625" fill="black"><tspan x="600" y="184">unintended</tspan><tspan x="600" y="212">event</tspan></text>
</g>
<g><!-- adverse event -->
<a xlink:href="./adverse-event.html" target="_top" xmlns:xlink="http://www.w3.org/1999/xlink"><rect x="525" y="272" width="150" height="75" fill="white" stroke="black" stroke-width="2"><title>unintended event that has negative impact upon a care process</title></rect></a><text x="600" y="301" text-anchor="middle" font-family="Cambria" font-size="24.0625" fill="black"><tspan x="600" y="301">adverse</tspan><tspan x="600" y="329">event</tspan></text>
</g>
<!-- Subclass row bus -->
<line x1="600" y1="252" x2="600" y2="252" stroke="black" stroke-width="2" /><!-- Subclass row vertical to focal -->
<line x1="600" y1="242" x2="600" y2="252" stroke="black" stroke-width="2" /><polygon points="600,232 595,242 605,242" fill="white" stroke="black" stroke-width="2" /><line x1="600" y1="252" x2="600" y2="272" stroke="black" stroke-width="2" /></svg>